<svg xmlns="http://www.w3.org/2000/svg" width="980" height="620" viewBox="0 0 980 620">
<style>text{font-family:Arial,sans-serif;fill:#172033}.title{font-size:24px;font-weight:bold}.subtitle{font-size:14px;fill:#475569}.axis{font-size:13px;fill:#334155}.tick{font-size:12px;fill:#475569}.legend{font-size:13px;fill:#172033}.grid{stroke:#e2e8f0;stroke-width:1}.axisline{stroke:#334155;stroke-width:1.4}.curve{fill:none;stroke-width:3}.marker{stroke:#64748b;stroke-width:1.4;stroke-dasharray:5 5}.note{font-size:12px;fill:#64748b}</style>
<rect x="0" y="0" width="980" height="620" fill="#ffffff"/>
<text class="title" x="86" y="36">Future nullifier collision probability</text>
<text class="subtitle" x="86" y="62">Single fixed future-nullifier leaf, Poisson future storage-key arrivals, one new key per minute on average.</text>
<text class="subtitle" x="86" y="84">P(collision by day t) = 1 - exp(-1440t / 2^d). Y axis is logarithmic.</text>
<rect x="86" y="96" width="858" height="442" fill="#f8fafc" stroke="#cbd5e1" stroke-width="1"/>
<line class="grid" x1="86.00" y1="96" x2="86.00" y2="538"/>
<text class="tick" x="86.00" y="562" text-anchor="middle">0</text>
<line class="grid" x1="156.52" y1="96" x2="156.52" y2="538"/>
<text class="tick" x="156.52" y="562" text-anchor="middle">30</text>
<line class="grid" x1="227.04" y1="96" x2="227.04" y2="538"/>
<text class="tick" x="227.04" y="562" text-anchor="middle">60</text>
<line class="grid" x1="297.56" y1="96" x2="297.56" y2="538"/>
<text class="tick" x="297.56" y="562" text-anchor="middle">90</text>
<line class="grid" x1="368.08" y1="96" x2="368.08" y2="538"/>
<text class="tick" x="368.08" y="562" text-anchor="middle">120</text>
<line class="grid" x1="509.12" y1="96" x2="509.12" y2="538"/>
<text class="tick" x="509.12" y="562" text-anchor="middle">180</text>
<line class="grid" x1="650.16" y1="96" x2="650.16" y2="538"/>
<text class="tick" x="650.16" y="562" text-anchor="middle">240</text>
<line class="grid" x1="791.21" y1="96" x2="791.21" y2="538"/>
<text class="tick" x="791.21" y="562" text-anchor="middle">300</text>
<line class="grid" x1="944.00" y1="96" x2="944.00" y2="538"/>
<text class="tick" x="944.00" y="562" text-anchor="middle">365</text>
<line class="grid" x1="86" y1="96.00" x2="944" y2="96.00"/>
<text class="tick" x="74" y="100.00" text-anchor="end">1</text>
<line class="grid" x1="86" y1="151.25" x2="944" y2="151.25"/>
<text class="tick" x="74" y="155.25" text-anchor="end">1e-1</text>
<line class="grid" x1="86" y1="206.50" x2="944" y2="206.50"/>
<text class="tick" x="74" y="210.50" text-anchor="end">1e-2</text>
<line class="grid" x1="86" y1="261.75" x2="944" y2="261.75"/>
<text class="tick" x="74" y="265.75" text-anchor="end">1e-3</text>
<line class="grid" x1="86" y1="317.00" x2="944" y2="317.00"/>
<text class="tick" x="74" y="321.00" text-anchor="end">1e-4</text>
<line class="grid" x1="86" y1="372.25" x2="944" y2="372.25"/>
<text class="tick" x="74" y="376.25" text-anchor="end">1e-5</text>
<line class="grid" x1="86" y1="427.50" x2="944" y2="427.50"/>
<text class="tick" x="74" y="431.50" text-anchor="end">1e-6</text>
<line class="grid" x1="86" y1="482.75" x2="944" y2="482.75"/>
<text class="tick" x="74" y="486.75" text-anchor="end">1e-7</text>
<line class="grid" x1="86" y1="538.00" x2="944" y2="538.00"/>
<text class="tick" x="74" y="542.00" text-anchor="end">1e-8</text>
<line class="axisline" x1="86" y1="538" x2="944" y2="538"/>
<line class="axisline" x1="86" y1="96" x2="86" y2="538"/>
<text class="axis" x="515" y="592" text-anchor="middle">Note age after creation, days</text>
<text class="axis" transform="translate(22 317) rotate(-90)" text-anchor="middle">Probability that the note's future nullifier leaf is hit (log scale)</text>
<polyline class="curve" stroke="#c2410c" points="86.00,538.00 88.35,125.18 90.70,112.39 93.05,106.27 95.40,102.75 97.75,100.54 100.10,99.10 102.45,98.14 104.81,97.49 107.16,97.04 109.51,96.72 111.86,96.51 114.21,96.36 116.56,96.25 118.91,96.18 121.26,96.12 123.61,96.09 125.96,96.06 128.31,96.04 130.66,96.03 133.01,96.02 135.36,96.01 137.72,96.01 140.07,96.01 142.42,96.01 144.77,96.00 147.12,96.00 149.47,96.00 151.82,96.00 154.17,96.00 156.52,96.00 158.87,96.00 161.22,96.00 163.57,96.00 165.92,96.00 168.27,96.00 170.62,96.00 172.98,96.00 175.33,96.00 177.68,96.00 180.03,96.00 182.38,96.00 184.73,96.00 187.08,96.00 189.43,96.00 191.78,96.00 194.13,96.00 196.48,96.00 198.83,96.00 201.18,96.00 203.53,96.00 205.88,96.00 208.24,96.00 210.59,96.00 212.94,96.00 215.29,96.00 217.64,96.00 219.99,96.00 222.34,96.00 224.69,96.00 227.04,96.00 229.39,96.00 231.74,96.00 234.09,96.00 236.44,96.00 238.79,96.00 241.15,96.00 243.50,96.00 245.85,96.00 248.20,96.00 250.55,96.00 252.90,96.00 255.25,96.00 257.60,96.00 259.95,96.00 262.30,96.00 264.65,96.00 267.00,96.00 269.35,96.00 271.70,96.00 274.05,96.00 276.41,96.00 278.76,96.00 281.11,96.00 283.46,96.00 285.81,96.00 288.16,96.00 290.51,96.00 292.86,96.00 295.21,96.00 297.56,96.00 299.91,96.00 302.26,96.00 304.61,96.00 306.96,96.00 309.32,96.00 311.67,96.00 314.02,96.00 316.37,96.00 318.72,96.00 321.07,96.00 323.42,96.00 325.77,96.00 328.12,96.00 330.47,96.00 332.82,96.00 335.17,96.00 337.52,96.00 339.87,96.00 342.22,96.00 344.58,96.00 346.93,96.00 349.28,96.00 351.63,96.00 353.98,96.00 356.33,96.00 358.68,96.00 361.03,96.00 363.38,96.00 365.73,96.00 368.08,96.00 370.43,96.00 372.78,96.00 375.13,96.00 377.48,96.00 379.84,96.00 382.19,96.00 384.54,96.00 386.89,96.00 389.24,96.00 391.59,96.00 393.94,96.00 396.29,96.00 398.64,96.00 400.99,96.00 403.34,96.00 405.69,96.00 408.04,96.00 410.39,96.00 412.75,96.00 415.10,96.00 417.45,96.00 419.80,96.00 422.15,96.00 424.50,96.00 426.85,96.00 429.20,96.00 431.55,96.00 433.90,96.00 436.25,96.00 438.60,96.00 440.95,96.00 443.30,96.00 445.65,96.00 448.01,96.00 450.36,96.00 452.71,96.00 455.06,96.00 457.41,96.00 459.76,96.00 462.11,96.00 464.46,96.00 466.81,96.00 469.16,96.00 471.51,96.00 473.86,96.00 476.21,96.00 478.56,96.00 480.92,96.00 483.27,96.00 485.62,96.00 487.97,96.00 490.32,96.00 492.67,96.00 495.02,96.00 497.37,96.00 499.72,96.00 502.07,96.00 504.42,96.00 506.77,96.00 509.12,96.00 511.47,96.00 513.82,96.00 516.18,96.00 518.53,96.00 520.88,96.00 523.23,96.00 525.58,96.00 527.93,96.00 530.28,96.00 532.63,96.00 534.98,96.00 537.33,96.00 539.68,96.00 542.03,96.00 544.38,96.00 546.73,96.00 549.08,96.00 551.44,96.00 553.79,96.00 556.14,96.00 558.49,96.00 560.84,96.00 563.19,96.00 565.54,96.00 567.89,96.00 570.24,96.00 572.59,96.00 574.94,96.00 577.29,96.00 579.64,96.00 581.99,96.00 584.35,96.00 586.70,96.00 589.05,96.00 591.40,96.00 593.75,96.00 596.10,96.00 598.45,96.00 600.80,96.00 603.15,96.00 605.50,96.00 607.85,96.00 610.20,96.00 612.55,96.00 614.90,96.00 617.25,96.00 619.61,96.00 621.96,96.00 624.31,96.00 626.66,96.00 629.01,96.00 631.36,96.00 633.71,96.00 636.06,96.00 638.41,96.00 640.76,96.00 643.11,96.00 645.46,96.00 647.81,96.00 650.16,96.00 652.52,96.00 654.87,96.00 657.22,96.00 659.57,96.00 661.92,96.00 664.27,96.00 666.62,96.00 668.97,96.00 671.32,96.00 673.67,96.00 676.02,96.00 678.37,96.00 680.72,96.00 683.07,96.00 685.42,96.00 687.78,96.00 690.13,96.00 692.48,96.00 694.83,96.00 697.18,96.00 699.53,96.00 701.88,96.00 704.23,96.00 706.58,96.00 708.93,96.00 711.28,96.00 713.63,96.00 715.98,96.00 718.33,96.00 720.68,96.00 723.04,96.00 725.39,96.00 727.74,96.00 730.09,96.00 732.44,96.00 734.79,96.00 737.14,96.00 739.49,96.00 741.84,96.00 744.19,96.00 746.54,96.00 748.89,96.00 751.24,96.00 753.59,96.00 755.95,96.00 758.30,96.00 760.65,96.00 763.00,96.00 765.35,96.00 767.70,96.00 770.05,96.00 772.40,96.00 774.75,96.00 777.10,96.00 779.45,96.00 781.80,96.00 784.15,96.00 786.50,96.00 788.85,96.00 791.21,96.00 793.56,96.00 795.91,96.00 798.26,96.00 800.61,96.00 802.96,96.00 805.31,96.00 807.66,96.00 810.01,96.00 812.36,96.00 814.71,96.00 817.06,96.00 819.41,96.00 821.76,96.00 824.12,96.00 826.47,96.00 828.82,96.00 831.17,96.00 833.52,96.00 835.87,96.00 838.22,96.00 840.57,96.00 842.92,96.00 845.27,96.00 847.62,96.00 849.97,96.00 852.32,96.00 854.67,96.00 857.02,96.00 859.38,96.00 861.73,96.00 864.08,96.00 866.43,96.00 868.78,96.00 871.13,96.00 873.48,96.00 875.83,96.00 878.18,96.00 880.53,96.00 882.88,96.00 885.23,96.00 887.58,96.00 889.93,96.00 892.28,96.00 894.64,96.00 896.99,96.00 899.34,96.00 901.69,96.00 904.04,96.00 906.39,96.00 908.74,96.00 911.09,96.00 913.44,96.00 915.79,96.00 918.14,96.00 920.49,96.00 922.84,96.00 925.19,96.00 927.55,96.00 929.90,96.00 932.25,96.00 934.60,96.00 936.95,96.00 939.30,96.00 941.65,96.00 944.00,96.00"/>
<polyline class="curve" stroke="#d97706" points="86.00,538.00 88.35,220.94 90.70,204.37 93.05,194.71 95.40,187.87 97.75,182.59 100.10,178.28 102.45,174.64 104.81,171.50 107.16,168.74 109.51,166.28 111.86,164.06 114.21,162.04 116.56,160.18 118.91,158.47 121.26,156.88 123.61,155.39 125.96,154.00 128.31,152.70 130.66,151.46 133.01,150.30 135.36,149.19 137.72,148.14 140.07,147.14 142.42,146.18 144.77,145.27 147.12,144.39 149.47,143.55 151.82,142.74 154.17,141.96 156.52,141.21 158.87,140.49 161.22,139.79 163.57,139.12 165.92,138.47 168.27,137.83 170.62,137.22 172.98,136.63 175.33,136.05 177.68,135.49 180.03,134.95 182.38,134.42 184.73,133.91 187.08,133.40 189.43,132.92 191.78,132.44 194.13,131.98 196.48,131.52 198.83,131.08 201.18,130.65 203.53,130.23 205.88,129.81 208.24,129.41 210.59,129.02 212.94,128.63 215.29,128.25 217.64,127.88 219.99,127.52 222.34,127.17 224.69,126.82 227.04,126.48 229.39,126.14 231.74,125.82 234.09,125.49 236.44,125.18 238.79,124.87 241.15,124.56 243.50,124.26 245.85,123.97 248.20,123.68 250.55,123.40 252.90,123.12 255.25,122.85 257.60,122.58 259.95,122.31 262.30,122.05 264.65,121.79 267.00,121.54 269.35,121.29 271.70,121.05 274.05,120.81 276.41,120.57 278.76,120.34 281.11,120.11 283.46,119.88 285.81,119.66 288.16,119.44 290.51,119.22 292.86,119.01 295.21,118.80 297.56,118.59 299.91,118.39 302.26,118.18 304.61,117.98 306.96,117.79 309.32,117.59 311.67,117.40 314.02,117.22 316.37,117.03 318.72,116.85 321.07,116.66 323.42,116.49 325.77,116.31 328.12,116.13 330.47,115.96 332.82,115.79 335.17,115.62 337.52,115.46 339.87,115.29 342.22,115.13 344.58,114.97 346.93,114.82 349.28,114.66 351.63,114.51 353.98,114.35 356.33,114.20 358.68,114.05 361.03,113.91 363.38,113.76 365.73,113.62 368.08,113.48 370.43,113.34 372.78,113.20 375.13,113.06 377.48,112.92 379.84,112.79 382.19,112.66 384.54,112.52 386.89,112.39 389.24,112.27 391.59,112.14 393.94,112.01 396.29,111.89 398.64,111.77 400.99,111.64 403.34,111.52 405.69,111.40 408.04,111.29 410.39,111.17 412.75,111.05 415.10,110.94 417.45,110.83 419.80,110.71 422.15,110.60 424.50,110.49 426.85,110.38 429.20,110.28 431.55,110.17 433.90,110.06 436.25,109.96 438.60,109.86 440.95,109.75 443.30,109.65 445.65,109.55 448.01,109.45 450.36,109.35 452.71,109.26 455.06,109.16 457.41,109.06 459.76,108.97 462.11,108.87 464.46,108.78 466.81,108.69 469.16,108.60 471.51,108.51 473.86,108.42 476.21,108.33 478.56,108.24 480.92,108.15 483.27,108.07 485.62,107.98 487.97,107.90 490.32,107.81 492.67,107.73 495.02,107.65 497.37,107.56 499.72,107.48 502.07,107.40 504.42,107.32 506.77,107.24 509.12,107.16 511.47,107.09 513.82,107.01 516.18,106.93 518.53,106.86 520.88,106.78 523.23,106.71 525.58,106.63 527.93,106.56 530.28,106.49 532.63,106.42 534.98,106.34 537.33,106.27 539.68,106.20 542.03,106.13 544.38,106.07 546.73,106.00 549.08,105.93 551.44,105.86 553.79,105.79 556.14,105.73 558.49,105.66 560.84,105.60 563.19,105.53 565.54,105.47 567.89,105.41 570.24,105.34 572.59,105.28 574.94,105.22 577.29,105.16 579.64,105.10 581.99,105.04 584.35,104.98 586.70,104.92 589.05,104.86 591.40,104.80 593.75,104.74 596.10,104.68 598.45,104.63 600.80,104.57 603.15,104.51 605.50,104.46 607.85,104.40 610.20,104.35 612.55,104.29 614.90,104.24 617.25,104.18 619.61,104.13 621.96,104.08 624.31,104.02 626.66,103.97 629.01,103.92 631.36,103.87 633.71,103.82 636.06,103.77 638.41,103.72 640.76,103.67 643.11,103.62 645.46,103.57 647.81,103.52 650.16,103.47 652.52,103.42 654.87,103.38 657.22,103.33 659.57,103.28 661.92,103.24 664.27,103.19 666.62,103.14 668.97,103.10 671.32,103.05 673.67,103.01 676.02,102.96 678.37,102.92 680.72,102.88 683.07,102.83 685.42,102.79 687.78,102.75 690.13,102.70 692.48,102.66 694.83,102.62 697.18,102.58 699.53,102.54 701.88,102.49 704.23,102.45 706.58,102.41 708.93,102.37 711.28,102.33 713.63,102.29 715.98,102.25 718.33,102.21 720.68,102.18 723.04,102.14 725.39,102.10 727.74,102.06 730.09,102.02 732.44,101.99 734.79,101.95 737.14,101.91 739.49,101.87 741.84,101.84 744.19,101.80 746.54,101.77 748.89,101.73 751.24,101.70 753.59,101.66 755.95,101.62 758.30,101.59 760.65,101.56 763.00,101.52 765.35,101.49 767.70,101.45 770.05,101.42 772.40,101.39 774.75,101.35 777.10,101.32 779.45,101.29 781.80,101.26 784.15,101.22 786.50,101.19 788.85,101.16 791.21,101.13 793.56,101.10 795.91,101.07 798.26,101.04 800.61,101.00 802.96,100.97 805.31,100.94 807.66,100.91 810.01,100.88 812.36,100.85 814.71,100.83 817.06,100.80 819.41,100.77 821.76,100.74 824.12,100.71 826.47,100.68 828.82,100.65 831.17,100.62 833.52,100.60 835.87,100.57 838.22,100.54 840.57,100.51 842.92,100.49 845.27,100.46 847.62,100.43 849.97,100.41 852.32,100.38 854.67,100.35 857.02,100.33 859.38,100.30 861.73,100.28 864.08,100.25 866.43,100.22 868.78,100.20 871.13,100.17 873.48,100.15 875.83,100.12 878.18,100.10 880.53,100.07 882.88,100.05 885.23,100.03 887.58,100.00 889.93,99.98 892.28,99.95 894.64,99.93 896.99,99.91 899.34,99.88 901.69,99.86 904.04,99.84 906.39,99.82 908.74,99.79 911.09,99.77 913.44,99.75 915.79,99.73 918.14,99.70 920.49,99.68 922.84,99.66 925.19,99.64 927.55,99.62 929.90,99.60 932.25,99.57 934.60,99.55 936.95,99.53 939.30,99.51 941.65,99.49 944.00,99.47"/>
<polyline class="curve" stroke="#16a34a" points="86.00,538.00 88.35,320.67 90.70,304.04 93.05,294.31 95.40,287.41 97.75,282.05 100.10,277.68 102.45,273.98 104.81,270.78 107.16,267.95 109.51,265.43 111.86,263.14 114.21,261.05 116.56,259.13 118.91,257.36 121.26,255.70 123.61,254.16 125.96,252.70 128.31,251.33 130.66,250.03 133.01,248.80 135.36,247.64 137.72,246.52 140.07,245.45 142.42,244.43 144.77,243.46 147.12,242.52 149.47,241.61 151.82,240.74 154.17,239.90 156.52,239.09 158.87,238.30 161.22,237.54 163.57,236.80 165.92,236.09 168.27,235.39 170.62,234.72 172.98,234.06 175.33,233.42 177.68,232.80 180.03,232.19 182.38,231.60 184.73,231.02 187.08,230.46 189.43,229.91 191.78,229.37 194.13,228.85 196.48,228.33 198.83,227.83 201.18,227.33 203.53,226.85 205.88,226.38 208.24,225.91 210.59,225.45 212.94,225.01 215.29,224.57 217.64,224.14 219.99,223.71 222.34,223.30 224.69,222.89 227.04,222.49 229.39,222.09 231.74,221.70 234.09,221.32 236.44,220.94 238.79,220.57 241.15,220.20 243.50,219.84 245.85,219.49 248.20,219.14 250.55,218.80 252.90,218.46 255.25,218.12 257.60,217.79 259.95,217.47 262.30,217.15 264.65,216.83 267.00,216.52 269.35,216.21 271.70,215.90 274.05,215.60 276.41,215.31 278.76,215.01 281.11,214.72 283.46,214.44 285.81,214.15 288.16,213.87 290.51,213.60 292.86,213.32 295.21,213.05 297.56,212.79 299.91,212.52 302.26,212.26 304.61,212.00 306.96,211.75 309.32,211.49 311.67,211.24 314.02,211.00 316.37,210.75 318.72,210.51 321.07,210.27 323.42,210.03 325.77,209.80 328.12,209.56 330.47,209.33 332.82,209.10 335.17,208.88 337.52,208.65 339.87,208.43 342.22,208.21 344.58,207.99 346.93,207.78 349.28,207.56 351.63,207.35 353.98,207.14 356.33,206.93 358.68,206.72 361.03,206.52 363.38,206.32 365.73,206.11 368.08,205.91 370.43,205.72 372.78,205.52 375.13,205.33 377.48,205.13 379.84,204.94 382.19,204.75 384.54,204.56 386.89,204.37 389.24,204.19 391.59,204.00 393.94,203.82 396.29,203.64 398.64,203.46 400.99,203.28 403.34,203.10 405.69,202.93 408.04,202.75 410.39,202.58 412.75,202.41 415.10,202.24 417.45,202.07 419.80,201.90 422.15,201.73 424.50,201.56 426.85,201.40 429.20,201.24 431.55,201.07 433.90,200.91 436.25,200.75 438.60,200.59 440.95,200.43 443.30,200.28 445.65,200.12 448.01,199.96 450.36,199.81 452.71,199.66 455.06,199.50 457.41,199.35 459.76,199.20 462.11,199.05 464.46,198.90 466.81,198.76 469.16,198.61 471.51,198.46 473.86,198.32 476.21,198.18 478.56,198.03 480.92,197.89 483.27,197.75 485.62,197.61 487.97,197.47 490.32,197.33 492.67,197.19 495.02,197.05 497.37,196.92 499.72,196.78 502.07,196.65 504.42,196.51 506.77,196.38 509.12,196.25 511.47,196.12 513.82,195.98 516.18,195.85 518.53,195.72 520.88,195.60 523.23,195.47 525.58,195.34 527.93,195.21 530.28,195.09 532.63,194.96 534.98,194.84 537.33,194.71 539.68,194.59 542.03,194.46 544.38,194.34 546.73,194.22 549.08,194.10 551.44,193.98 553.79,193.86 556.14,193.74 558.49,193.62 560.84,193.50 563.19,193.39 565.54,193.27 567.89,193.15 570.24,193.04 572.59,192.92 574.94,192.81 577.29,192.69 579.64,192.58 581.99,192.47 584.35,192.35 586.70,192.24 589.05,192.13 591.40,192.02 593.75,191.91 596.10,191.80 598.45,191.69 600.80,191.58 603.15,191.47 605.50,191.37 607.85,191.26 610.20,191.15 612.55,191.05 614.90,190.94 617.25,190.83 619.61,190.73 621.96,190.62 624.31,190.52 626.66,190.42 629.01,190.31 631.36,190.21 633.71,190.11 636.06,190.01 638.41,189.91 640.76,189.81 643.11,189.71 645.46,189.61 647.81,189.51 650.16,189.41 652.52,189.31 654.87,189.21 657.22,189.11 659.57,189.01 661.92,188.92 664.27,188.82 666.62,188.72 668.97,188.63 671.32,188.53 673.67,188.44 676.02,188.34 678.37,188.25 680.72,188.15 683.07,188.06 685.42,187.97 687.78,187.87 690.13,187.78 692.48,187.69 694.83,187.60 697.18,187.51 699.53,187.42 701.88,187.32 704.23,187.23 706.58,187.14 708.93,187.05 711.28,186.96 713.63,186.88 715.98,186.79 718.33,186.70 720.68,186.61 723.04,186.52 725.39,186.44 727.74,186.35 730.09,186.26 732.44,186.18 734.79,186.09 737.14,186.00 739.49,185.92 741.84,185.83 744.19,185.75 746.54,185.66 748.89,185.58 751.24,185.50 753.59,185.41 755.95,185.33 758.30,185.25 760.65,185.16 763.00,185.08 765.35,185.00 767.70,184.92 770.05,184.84 772.40,184.75 774.75,184.67 777.10,184.59 779.45,184.51 781.80,184.43 784.15,184.35 786.50,184.27 788.85,184.19 791.21,184.11 793.56,184.03 795.91,183.96 798.26,183.88 800.61,183.80 802.96,183.72 805.31,183.64 807.66,183.57 810.01,183.49 812.36,183.41 814.71,183.34 817.06,183.26 819.41,183.18 821.76,183.11 824.12,183.03 826.47,182.96 828.82,182.88 831.17,182.81 833.52,182.73 835.87,182.66 838.22,182.59 840.57,182.51 842.92,182.44 845.27,182.36 847.62,182.29 849.97,182.22 852.32,182.15 854.67,182.07 857.02,182.00 859.38,181.93 861.73,181.86 864.08,181.79 866.43,181.71 868.78,181.64 871.13,181.57 873.48,181.50 875.83,181.43 878.18,181.36 880.53,181.29 882.88,181.22 885.23,181.15 887.58,181.08 889.93,181.01 892.28,180.94 894.64,180.87 896.99,180.81 899.34,180.74 901.69,180.67 904.04,180.60 906.39,180.53 908.74,180.47 911.09,180.40 913.44,180.33 915.79,180.26 918.14,180.20 920.49,180.13 922.84,180.06 925.19,180.00 927.55,179.93 929.90,179.87 932.25,179.80 934.60,179.73 936.95,179.67 939.30,179.60 941.65,179.54 944.00,179.47"/>
<polyline class="curve" stroke="#2563eb" points="86.00,538.00 88.35,420.46 90.70,403.83 93.05,394.10 95.40,387.19 97.75,381.84 100.10,377.46 102.45,373.77 104.81,370.56 107.16,367.74 109.51,365.21 111.86,362.92 114.21,360.83 116.56,358.91 118.91,357.13 121.26,355.48 123.61,353.93 125.96,352.48 128.31,351.10 130.66,349.81 133.01,348.58 135.36,347.41 137.72,346.29 140.07,345.22 142.42,344.20 144.77,343.22 147.12,342.28 149.47,341.38 151.82,340.50 154.17,339.66 156.52,338.85 158.87,338.06 161.22,337.30 163.57,336.56 165.92,335.84 168.27,335.15 170.62,334.47 172.98,333.82 175.33,333.18 177.68,332.55 180.03,331.94 182.38,331.35 184.73,330.77 187.08,330.21 189.43,329.66 191.78,329.12 194.13,328.59 196.48,328.08 198.83,327.57 201.18,327.08 203.53,326.59 205.88,326.12 208.24,325.65 210.59,325.19 212.94,324.74 215.29,324.30 217.64,323.87 219.99,323.45 222.34,323.03 224.69,322.62 227.04,322.22 229.39,321.82 231.74,321.43 234.09,321.05 236.44,320.67 238.79,320.30 241.15,319.93 243.50,319.57 245.85,319.21 248.20,318.86 250.55,318.52 252.90,318.18 255.25,317.84 257.60,317.51 259.95,317.18 262.30,316.86 264.65,316.54 267.00,316.23 269.35,315.92 271.70,315.62 274.05,315.31 276.41,315.02 278.76,314.72 281.11,314.43 283.46,314.14 285.81,313.86 288.16,313.58 290.51,313.30 292.86,313.03 295.21,312.76 297.56,312.49 299.91,312.22 302.26,311.96 304.61,311.70 306.96,311.44 309.32,311.19 311.67,310.94 314.02,310.69 316.37,310.44 318.72,310.20 321.07,309.96 323.42,309.72 325.77,309.48 328.12,309.25 330.47,309.02 332.82,308.79 335.17,308.56 337.52,308.34 339.87,308.11 342.22,307.89 344.58,307.67 346.93,307.46 349.28,307.24 351.63,307.03 353.98,306.82 356.33,306.61 358.68,306.40 361.03,306.19 363.38,305.99 365.73,305.79 368.08,305.58 370.43,305.39 372.78,305.19 375.13,304.99 377.48,304.80 379.84,304.61 382.19,304.41 384.54,304.22 386.89,304.04 389.24,303.85 391.59,303.66 393.94,303.48 396.29,303.30 398.64,303.12 400.99,302.94 403.34,302.76 405.69,302.58 408.04,302.41 410.39,302.23 412.75,302.06 415.10,301.89 417.45,301.72 419.80,301.55 422.15,301.38 424.50,301.21 426.85,301.04 429.20,300.88 431.55,300.72 433.90,300.55 436.25,300.39 438.60,300.23 440.95,300.07 443.30,299.91 445.65,299.76 448.01,299.60 450.36,299.44 452.71,299.29 455.06,299.14 457.41,298.98 459.76,298.83 462.11,298.68 464.46,298.53 466.81,298.38 469.16,298.24 471.51,298.09 473.86,297.94 476.21,297.80 478.56,297.66 480.92,297.51 483.27,297.37 485.62,297.23 487.97,297.09 490.32,296.95 492.67,296.81 495.02,296.67 497.37,296.53 499.72,296.40 502.07,296.26 504.42,296.12 506.77,295.99 509.12,295.86 511.47,295.72 513.82,295.59 516.18,295.46 518.53,295.33 520.88,295.20 523.23,295.07 525.58,294.94 527.93,294.81 530.28,294.69 532.63,294.56 534.98,294.43 537.33,294.31 539.68,294.18 542.03,294.06 544.38,293.94 546.73,293.81 549.08,293.69 551.44,293.57 553.79,293.45 556.14,293.33 558.49,293.21 560.84,293.09 563.19,292.97 565.54,292.85 567.89,292.74 570.24,292.62 572.59,292.50 574.94,292.39 577.29,292.27 579.64,292.16 581.99,292.04 584.35,291.93 586.70,291.82 589.05,291.71 591.40,291.59 593.75,291.48 596.10,291.37 598.45,291.26 600.80,291.15 603.15,291.04 605.50,290.93 607.85,290.83 610.20,290.72 612.55,290.61 614.90,290.50 617.25,290.40 619.61,290.29 621.96,290.19 624.31,290.08 626.66,289.98 629.01,289.87 631.36,289.77 633.71,289.67 636.06,289.56 638.41,289.46 640.76,289.36 643.11,289.26 645.46,289.16 647.81,289.06 650.16,288.95 652.52,288.86 654.87,288.76 657.22,288.66 659.57,288.56 661.92,288.46 664.27,288.36 666.62,288.27 668.97,288.17 671.32,288.07 673.67,287.98 676.02,287.88 678.37,287.78 680.72,287.69 683.07,287.59 685.42,287.50 687.78,287.41 690.13,287.31 692.48,287.22 694.83,287.13 697.18,287.03 699.53,286.94 701.88,286.85 704.23,286.76 706.58,286.67 708.93,286.58 711.28,286.49 713.63,286.40 715.98,286.31 718.33,286.22 720.68,286.13 723.04,286.04 725.39,285.95 727.74,285.86 730.09,285.78 732.44,285.69 734.79,285.60 737.14,285.52 739.49,285.43 741.84,285.34 744.19,285.26 746.54,285.17 748.89,285.09 751.24,285.00 753.59,284.92 755.95,284.83 758.30,284.75 760.65,284.66 763.00,284.58 765.35,284.50 767.70,284.41 770.05,284.33 772.40,284.25 774.75,284.17 777.10,284.09 779.45,284.00 781.80,283.92 784.15,283.84 786.50,283.76 788.85,283.68 791.21,283.60 793.56,283.52 795.91,283.44 798.26,283.36 800.61,283.28 802.96,283.21 805.31,283.13 807.66,283.05 810.01,282.97 812.36,282.89 814.71,282.81 817.06,282.74 819.41,282.66 821.76,282.58 824.12,282.51 826.47,282.43 828.82,282.36 831.17,282.28 833.52,282.20 835.87,282.13 838.22,282.05 840.57,281.98 842.92,281.90 845.27,281.83 847.62,281.76 849.97,281.68 852.32,281.61 854.67,281.53 857.02,281.46 859.38,281.39 861.73,281.32 864.08,281.24 866.43,281.17 868.78,281.10 871.13,281.03 873.48,280.95 875.83,280.88 878.18,280.81 880.53,280.74 882.88,280.67 885.23,280.60 887.58,280.53 889.93,280.46 892.28,280.39 894.64,280.32 896.99,280.25 899.34,280.18 901.69,280.11 904.04,280.04 906.39,279.97 908.74,279.90 911.09,279.84 913.44,279.77 915.79,279.70 918.14,279.63 920.49,279.56 922.84,279.50 925.19,279.43 927.55,279.36 929.90,279.29 932.25,279.23 934.60,279.16 936.95,279.09 939.30,279.03 941.65,278.96 944.00,278.90"/>
<polyline class="curve" stroke="#7c3aed" points="86.00,538.00 88.35,520.25 90.70,503.62 93.05,493.89 95.40,486.99 97.75,481.63 100.10,477.26 102.45,473.56 104.81,470.35 107.16,467.53 109.51,465.00 111.86,462.71 114.21,460.62 116.56,458.70 118.91,456.93 121.26,455.27 123.61,453.72 125.96,452.27 128.31,450.90 130.66,449.60 133.01,448.37 135.36,447.20 137.72,446.08 140.07,445.01 142.42,443.99 144.77,443.01 147.12,442.07 149.47,441.17 151.82,440.29 154.17,439.45 156.52,438.64 158.87,437.85 161.22,437.09 163.57,436.35 165.92,435.63 168.27,434.94 170.62,434.26 172.98,433.61 175.33,432.97 177.68,432.34 180.03,431.74 182.38,431.14 184.73,430.56 187.08,430.00 189.43,429.45 191.78,428.91 194.13,428.38 196.48,427.87 198.83,427.36 201.18,426.87 203.53,426.38 205.88,425.91 208.24,425.44 210.59,424.98 212.94,424.53 215.29,424.09 217.64,423.66 219.99,423.24 222.34,422.82 224.69,422.41 227.04,422.01 229.39,421.61 231.74,421.22 234.09,420.84 236.44,420.46 238.79,420.09 241.15,419.72 243.50,419.36 245.85,419.00 248.20,418.65 250.55,418.31 252.90,417.97 255.25,417.63 257.60,417.30 259.95,416.97 262.30,416.65 264.65,416.33 267.00,416.02 269.35,415.71 271.70,415.41 274.05,415.10 276.41,414.81 278.76,414.51 281.11,414.22 283.46,413.93 285.81,413.65 288.16,413.37 290.51,413.09 292.86,412.82 295.21,412.55 297.56,412.28 299.91,412.01 302.26,411.75 304.61,411.49 306.96,411.23 309.32,410.98 311.67,410.73 314.02,410.48 316.37,410.23 318.72,409.99 321.07,409.75 323.42,409.51 325.77,409.27 328.12,409.04 330.47,408.81 332.82,408.58 335.17,408.35 337.52,408.13 339.87,407.90 342.22,407.68 344.58,407.46 346.93,407.25 349.28,407.03 351.63,406.82 353.98,406.61 356.33,406.40 358.68,406.19 361.03,405.98 363.38,405.78 365.73,405.58 368.08,405.37 370.43,405.18 372.78,404.98 375.13,404.78 377.48,404.59 379.84,404.39 382.19,404.20 384.54,404.01 386.89,403.83 389.24,403.64 391.59,403.45 393.94,403.27 396.29,403.09 398.64,402.91 400.99,402.73 403.34,402.55 405.69,402.37 408.04,402.20 410.39,402.02 412.75,401.85 415.10,401.68 417.45,401.50 419.80,401.34 422.15,401.17 424.50,401.00 426.85,400.83 429.20,400.67 431.55,400.50 433.90,400.34 436.25,400.18 438.60,400.02 440.95,399.86 443.30,399.70 445.65,399.54 448.01,399.39 450.36,399.23 452.71,399.08 455.06,398.93 457.41,398.77 459.76,398.62 462.11,398.47 464.46,398.32 466.81,398.17 469.16,398.03 471.51,397.88 473.86,397.73 476.21,397.59 478.56,397.44 480.92,397.30 483.27,397.16 485.62,397.02 487.97,396.88 490.32,396.74 492.67,396.60 495.02,396.46 497.37,396.32 499.72,396.18 502.07,396.05 504.42,395.91 506.77,395.78 509.12,395.65 511.47,395.51 513.82,395.38 516.18,395.25 518.53,395.12 520.88,394.99 523.23,394.86 525.58,394.73 527.93,394.60 530.28,394.47 532.63,394.35 534.98,394.22 537.33,394.10 539.68,393.97 542.03,393.85 544.38,393.72 546.73,393.60 549.08,393.48 551.44,393.36 553.79,393.24 556.14,393.12 558.49,393.00 560.84,392.88 563.19,392.76 565.54,392.64 567.89,392.52 570.24,392.41 572.59,392.29 574.94,392.18 577.29,392.06 579.64,391.95 581.99,391.83 584.35,391.72 586.70,391.61 589.05,391.49 591.40,391.38 593.75,391.27 596.10,391.16 598.45,391.05 600.80,390.94 603.15,390.83 605.50,390.72 607.85,390.61 610.20,390.51 612.55,390.40 614.90,390.29 617.25,390.18 619.61,390.08 621.96,389.97 624.31,389.87 626.66,389.76 629.01,389.66 631.36,389.56 633.71,389.45 636.06,389.35 638.41,389.25 640.76,389.15 643.11,389.04 645.46,388.94 647.81,388.84 650.16,388.74 652.52,388.64 654.87,388.54 657.22,388.44 659.57,388.35 661.92,388.25 664.27,388.15 666.62,388.05 668.97,387.96 671.32,387.86 673.67,387.76 676.02,387.67 678.37,387.57 680.72,387.48 683.07,387.38 685.42,387.29 687.78,387.19 690.13,387.10 692.48,387.01 694.83,386.91 697.18,386.82 699.53,386.73 701.88,386.64 704.23,386.55 706.58,386.46 708.93,386.36 711.28,386.27 713.63,386.18 715.98,386.09 718.33,386.01 720.68,385.92 723.04,385.83 725.39,385.74 727.74,385.65 730.09,385.56 732.44,385.48 734.79,385.39 737.14,385.30 739.49,385.22 741.84,385.13 744.19,385.04 746.54,384.96 748.89,384.87 751.24,384.79 753.59,384.70 755.95,384.62 758.30,384.53 760.65,384.45 763.00,384.37 765.35,384.28 767.70,384.20 770.05,384.12 772.40,384.04 774.75,383.95 777.10,383.87 779.45,383.79 781.80,383.71 784.15,383.63 786.50,383.55 788.85,383.47 791.21,383.39 793.56,383.31 795.91,383.23 798.26,383.15 800.61,383.07 802.96,382.99 805.31,382.91 807.66,382.83 810.01,382.76 812.36,382.68 814.71,382.60 817.06,382.52 819.41,382.45 821.76,382.37 824.12,382.29 826.47,382.22 828.82,382.14 831.17,382.07 833.52,381.99 835.87,381.91 838.22,381.84 840.57,381.76 842.92,381.69 845.27,381.62 847.62,381.54 849.97,381.47 852.32,381.39 854.67,381.32 857.02,381.25 859.38,381.17 861.73,381.10 864.08,381.03 866.43,380.96 868.78,380.88 871.13,380.81 873.48,380.74 875.83,380.67 878.18,380.60 880.53,380.53 882.88,380.46 885.23,380.39 887.58,380.31 889.93,380.24 892.28,380.17 894.64,380.10 896.99,380.03 899.34,379.97 901.69,379.90 904.04,379.83 906.39,379.76 908.74,379.69 911.09,379.62 913.44,379.55 915.79,379.48 918.14,379.42 920.49,379.35 922.84,379.28 925.19,379.21 927.55,379.15 929.90,379.08 932.25,379.01 934.60,378.95 936.95,378.88 939.30,378.81 941.65,378.75 944.00,378.68"/>
<line class="marker" x1="944.00" y1="96" x2="944.00" y2="538"/>
<text class="note" x="759" y="270.90">d=30 at 365d: 4.89e-4</text>
<rect x="718" y="102" width="210" height="128" rx="4" fill="#ffffff" stroke="#cbd5e1"/>
<line x1="734" y1="124" x2="762" y2="124" stroke="#c2410c" stroke-width="3"/>
<text class="legend" x="772" y="128">d = 12</text>
<line x1="734" y1="146" x2="762" y2="146" stroke="#d97706" stroke-width="3"/>
<text class="legend" x="772" y="150">d = 18</text>
<line x1="734" y1="168" x2="762" y2="168" stroke="#16a34a" stroke-width="3"/>
<text class="legend" x="772" y="172">d = 24</text>
<line x1="734" y1="190" x2="762" y2="190" stroke="#2563eb" stroke-width="3"/>
<text class="legend" x="772" y="194">d = 30 (current)</text>
<line x1="734" y1="212" x2="762" y2="212" stroke="#7c3aed" stroke-width="3"/>
<text class="legend" x="772" y="216">d = 36</text>
<text class="note" x="86" y="612">For d=30, p50 is about 516848 days and p90 is about 1716932 days under this one-key-per-minute model.</text>
</svg>
