<svg xmlns="http://www.w3.org/2000/svg" width="1040" height="620" viewBox="0 0 1040 620">
<style>
  text { font-family: -apple-system, BlinkMacSystemFont, "Segoe UI", sans-serif; fill: #0f172a; }
  .title { font-size: 28px; font-weight: 700; }
  .subtitle { font-size: 14px; fill: #475569; }
  .formula { font-size: 13px; fill: #334155; }
  .tick { font-size: 12px; fill: #475569; }
  .label { font-size: 13px; fill: #334155; }
  .legend { font-size: 13px; fill: #0f172a; }
  .grid { stroke: #e2e8f0; stroke-width: 1; }
  .axis { stroke: #64748b; stroke-width: 1.4; }
  .curve { fill: none; stroke-width: 2.5; }
</style>
<rect width="100%" height="100%" fill="#ffffff"/>
<text class="title" x="86" y="38">Future nullifier collision probability by holding period</text>
<text class="subtitle" x="86" y="60">Single fixed future nullifier leaf exposed to unrelated future leaf arrivals; y-axis is logarithmic.</text>
<text class="formula" x="86" y="612">P(fixed future nullifier collision by t) = 1 - exp(-mu(t) / 2^d), where mu(t) = 1440t for t in days.</text>

<line class="grid" x1="86.00" y1="76" x2="86.00" y2="538"/><text class="tick" x="86.00" y="564" text-anchor="middle">0</text>
<line class="grid" x1="156.52" y1="76" x2="156.52" y2="538"/><text class="tick" x="156.52" y="564" text-anchor="middle">30</text>
<line class="grid" x1="227.04" y1="76" x2="227.04" y2="538"/><text class="tick" x="227.04" y="564" text-anchor="middle">60</text>
<line class="grid" x1="368.08" y1="76" x2="368.08" y2="538"/><text class="tick" x="368.08" y="564" text-anchor="middle">120</text>
<line class="grid" x1="509.12" y1="76" x2="509.12" y2="538"/><text class="tick" x="509.12" y="564" text-anchor="middle">180</text>
<line class="grid" x1="650.16" y1="76" x2="650.16" y2="538"/><text class="tick" x="650.16" y="564" text-anchor="middle">240</text>
<line class="grid" x1="791.21" y1="76" x2="791.21" y2="538"/><text class="tick" x="791.21" y="564" text-anchor="middle">300</text>
<line class="grid" x1="944.00" y1="76" x2="944.00" y2="538"/><text class="tick" x="944.00" y="564" text-anchor="middle">365</text>
<line class="grid" x1="86" y1="76.00" x2="944" y2="76.00"/><text class="tick" x="74" y="81.00" text-anchor="end">1</text>
<line class="grid" x1="86" y1="168.40" x2="944" y2="168.40"/><text class="tick" x="74" y="173.40" text-anchor="end">1e-2</text>
<line class="grid" x1="86" y1="260.80" x2="944" y2="260.80"/><text class="tick" x="74" y="265.80" text-anchor="end">1e-4</text>
<line class="grid" x1="86" y1="353.20" x2="944" y2="353.20"/><text class="tick" x="74" y="358.20" text-anchor="end">1e-6</text>
<line class="grid" x1="86" y1="445.60" x2="944" y2="445.60"/><text class="tick" x="74" y="450.60" text-anchor="end">1e-8</text>
<line class="grid" x1="86" y1="538.00" x2="944" y2="538.00"/><text class="tick" x="74" y="543.00" text-anchor="end">1e-10</text>
<line class="axis" x1="86" y1="538" x2="944" y2="538"/>
<line class="axis" x1="86" y1="76" x2="86" y2="538"/>
<text class="label" x="515" y="596" text-anchor="middle">channel operating period (days), lambda = 1 new leaf/minute</text>
<text class="label" transform="translate(24 307) rotate(-90)" text-anchor="middle">probability, log scale</text>
<polyline class="curve" stroke="#c2410c" points="86.00,538.00 88.35,100.40 90.70,89.71 93.05,84.59 95.40,81.64 97.75,79.80 100.10,78.59 102.45,77.79 104.81,77.24 107.16,76.87 109.51,76.61 111.86,76.42 114.21,76.30 116.56,76.21 118.91,76.15 121.26,76.10 123.61,76.07 125.96,76.05 128.31,76.04 130.66,76.03 133.01,76.02 135.36,76.01 137.72,76.01 140.07,76.01 142.42,76.00 144.77,76.00 147.12,76.00 149.47,76.00 151.82,76.00 154.17,76.00 156.52,76.00 158.87,76.00 161.22,76.00 163.57,76.00 165.92,76.00 168.27,76.00 170.62,76.00 172.98,76.00 175.33,76.00 177.68,76.00 180.03,76.00 182.38,76.00 184.73,76.00 187.08,76.00 189.43,76.00 191.78,76.00 194.13,76.00 196.48,76.00 198.83,76.00 201.18,76.00 203.53,76.00 205.88,76.00 208.24,76.00 210.59,76.00 212.94,76.00 215.29,76.00 217.64,76.00 219.99,76.00 222.34,76.00 224.69,76.00 227.04,76.00 229.39,76.00 231.74,76.00 234.09,76.00 236.44,76.00 238.79,76.00 241.15,76.00 243.50,76.00 245.85,76.00 248.20,76.00 250.55,76.00 252.90,76.00 255.25,76.00 257.60,76.00 259.95,76.00 262.30,76.00 264.65,76.00 267.00,76.00 269.35,76.00 271.70,76.00 274.05,76.00 276.41,76.00 278.76,76.00 281.11,76.00 283.46,76.00 285.81,76.00 288.16,76.00 290.51,76.00 292.86,76.00 295.21,76.00 297.56,76.00 299.91,76.00 302.26,76.00 304.61,76.00 306.96,76.00 309.32,76.00 311.67,76.00 314.02,76.00 316.37,76.00 318.72,76.00 321.07,76.00 323.42,76.00 325.77,76.00 328.12,76.00 330.47,76.00 332.82,76.00 335.17,76.00 337.52,76.00 339.87,76.00 342.22,76.00 344.58,76.00 346.93,76.00 349.28,76.00 351.63,76.00 353.98,76.00 356.33,76.00 358.68,76.00 361.03,76.00 363.38,76.00 365.73,76.00 368.08,76.00 370.43,76.00 372.78,76.00 375.13,76.00 377.48,76.00 379.84,76.00 382.19,76.00 384.54,76.00 386.89,76.00 389.24,76.00 391.59,76.00 393.94,76.00 396.29,76.00 398.64,76.00 400.99,76.00 403.34,76.00 405.69,76.00 408.04,76.00 410.39,76.00 412.75,76.00 415.10,76.00 417.45,76.00 419.80,76.00 422.15,76.00 424.50,76.00 426.85,76.00 429.20,76.00 431.55,76.00 433.90,76.00 436.25,76.00 438.60,76.00 440.95,76.00 443.30,76.00 445.65,76.00 448.01,76.00 450.36,76.00 452.71,76.00 455.06,76.00 457.41,76.00 459.76,76.00 462.11,76.00 464.46,76.00 466.81,76.00 469.16,76.00 471.51,76.00 473.86,76.00 476.21,76.00 478.56,76.00 480.92,76.00 483.27,76.00 485.62,76.00 487.97,76.00 490.32,76.00 492.67,76.00 495.02,76.00 497.37,76.00 499.72,76.00 502.07,76.00 504.42,76.00 506.77,76.00 509.12,76.00 511.47,76.00 513.82,76.00 516.18,76.00 518.53,76.00 520.88,76.00 523.23,76.00 525.58,76.00 527.93,76.00 530.28,76.00 532.63,76.00 534.98,76.00 537.33,76.00 539.68,76.00 542.03,76.00 544.38,76.00 546.73,76.00 549.08,76.00 551.44,76.00 553.79,76.00 556.14,76.00 558.49,76.00 560.84,76.00 563.19,76.00 565.54,76.00 567.89,76.00 570.24,76.00 572.59,76.00 574.94,76.00 577.29,76.00 579.64,76.00 581.99,76.00 584.35,76.00 586.70,76.00 589.05,76.00 591.40,76.00 593.75,76.00 596.10,76.00 598.45,76.00 600.80,76.00 603.15,76.00 605.50,76.00 607.85,76.00 610.20,76.00 612.55,76.00 614.90,76.00 617.25,76.00 619.61,76.00 621.96,76.00 624.31,76.00 626.66,76.00 629.01,76.00 631.36,76.00 633.71,76.00 636.06,76.00 638.41,76.00 640.76,76.00 643.11,76.00 645.46,76.00 647.81,76.00 650.16,76.00 652.52,76.00 654.87,76.00 657.22,76.00 659.57,76.00 661.92,76.00 664.27,76.00 666.62,76.00 668.97,76.00 671.32,76.00 673.67,76.00 676.02,76.00 678.37,76.00 680.72,76.00 683.07,76.00 685.42,76.00 687.78,76.00 690.13,76.00 692.48,76.00 694.83,76.00 697.18,76.00 699.53,76.00 701.88,76.00 704.23,76.00 706.58,76.00 708.93,76.00 711.28,76.00 713.63,76.00 715.98,76.00 718.33,76.00 720.68,76.00 723.04,76.00 725.39,76.00 727.74,76.00 730.09,76.00 732.44,76.00 734.79,76.00 737.14,76.00 739.49,76.00 741.84,76.00 744.19,76.00 746.54,76.00 748.89,76.00 751.24,76.00 753.59,76.00 755.95,76.00 758.30,76.00 760.65,76.00 763.00,76.00 765.35,76.00 767.70,76.00 770.05,76.00 772.40,76.00 774.75,76.00 777.10,76.00 779.45,76.00 781.80,76.00 784.15,76.00 786.50,76.00 788.85,76.00 791.21,76.00 793.56,76.00 795.91,76.00 798.26,76.00 800.61,76.00 802.96,76.00 805.31,76.00 807.66,76.00 810.01,76.00 812.36,76.00 814.71,76.00 817.06,76.00 819.41,76.00 821.76,76.00 824.12,76.00 826.47,76.00 828.82,76.00 831.17,76.00 833.52,76.00 835.87,76.00 838.22,76.00 840.57,76.00 842.92,76.00 845.27,76.00 847.62,76.00 849.97,76.00 852.32,76.00 854.67,76.00 857.02,76.00 859.38,76.00 861.73,76.00 864.08,76.00 866.43,76.00 868.78,76.00 871.13,76.00 873.48,76.00 875.83,76.00 878.18,76.00 880.53,76.00 882.88,76.00 885.23,76.00 887.58,76.00 889.93,76.00 892.28,76.00 894.64,76.00 896.99,76.00 899.34,76.00 901.69,76.00 904.04,76.00 906.39,76.00 908.74,76.00 911.09,76.00 913.44,76.00 915.79,76.00 918.14,76.00 920.49,76.00 922.84,76.00 925.19,76.00 927.55,76.00 929.90,76.00 932.25,76.00 934.60,76.00 936.95,76.00 939.30,76.00 941.65,76.00 944.00,76.00"/>
<polyline class="curve" stroke="#d97706" points="86.00,538.00 88.35,180.48 90.70,166.62 93.05,158.54 95.40,152.83 97.75,148.40 100.10,144.80 102.45,141.76 104.81,139.14 107.16,136.83 109.51,134.77 111.86,132.91 114.21,131.22 116.56,129.67 118.91,128.24 121.26,126.91 123.61,125.67 125.96,124.50 128.31,123.41 130.66,122.38 133.01,121.40 135.36,120.48 137.72,119.60 140.07,118.76 142.42,117.96 144.77,117.20 147.12,116.46 149.47,115.76 151.82,115.08 154.17,114.43 156.52,113.81 158.87,113.20 161.22,112.62 163.57,112.06 165.92,111.51 168.27,110.98 170.62,110.47 172.98,109.97 175.33,109.49 177.68,109.02 180.03,108.57 182.38,108.13 184.73,107.70 187.08,107.28 189.43,106.87 191.78,106.47 194.13,106.08 196.48,105.70 198.83,105.33 201.18,104.97 203.53,104.62 205.88,104.28 208.24,103.94 210.59,103.61 212.94,103.29 215.29,102.97 217.64,102.66 219.99,102.36 222.34,102.06 224.69,101.77 227.04,101.49 229.39,101.21 231.74,100.93 234.09,100.66 236.44,100.40 238.79,100.14 241.15,99.88 243.50,99.63 245.85,99.39 248.20,99.15 250.55,98.91 252.90,98.68 255.25,98.45 257.60,98.22 259.95,98.00 262.30,97.78 264.65,97.57 267.00,97.36 269.35,97.15 271.70,96.95 274.05,96.74 276.41,96.55 278.76,96.35 281.11,96.16 283.46,95.97 285.81,95.78 288.16,95.60 290.51,95.42 292.86,95.24 295.21,95.06 297.56,94.89 299.91,94.72 302.26,94.55 304.61,94.38 306.96,94.22 309.32,94.06 311.67,93.90 314.02,93.74 316.37,93.58 318.72,93.43 321.07,93.28 323.42,93.13 325.77,92.98 328.12,92.84 330.47,92.69 332.82,92.55 335.17,92.41 337.52,92.27 339.87,92.13 342.22,92.00 344.58,91.87 346.93,91.73 349.28,91.60 351.63,91.47 353.98,91.35 356.33,91.22 358.68,91.10 361.03,90.97 363.38,90.85 365.73,90.73 368.08,90.61 370.43,90.50 372.78,90.38 375.13,90.26 377.48,90.15 379.84,90.04 382.19,89.93 384.54,89.82 386.89,89.71 389.24,89.60 391.59,89.50 393.94,89.39 396.29,89.29 398.64,89.18 400.99,89.08 403.34,88.98 405.69,88.88 408.04,88.78 410.39,88.68 412.75,88.59 415.10,88.49 417.45,88.40 419.80,88.30 422.15,88.21 424.50,88.12 426.85,88.03 429.20,87.94 431.55,87.85 433.90,87.76 436.25,87.67 438.60,87.59 440.95,87.50 443.30,87.42 445.65,87.33 448.01,87.25 450.36,87.17 452.71,87.08 455.06,87.00 457.41,86.92 459.76,86.84 462.11,86.77 464.46,86.69 466.81,86.61 469.16,86.53 471.51,86.46 473.86,86.38 476.21,86.31 478.56,86.24 480.92,86.16 483.27,86.09 485.62,86.02 487.97,85.95 490.32,85.88 492.67,85.81 495.02,85.74 497.37,85.67 499.72,85.60 502.07,85.53 504.42,85.47 506.77,85.40 509.12,85.34 511.47,85.27 513.82,85.21 516.18,85.14 518.53,85.08 520.88,85.02 523.23,84.95 525.58,84.89 527.93,84.83 530.28,84.77 532.63,84.71 534.98,84.65 537.33,84.59 539.68,84.53 542.03,84.47 544.38,84.42 546.73,84.36 549.08,84.30 551.44,84.25 553.79,84.19 556.14,84.14 558.49,84.08 560.84,84.03 563.19,83.97 565.54,83.92 567.89,83.87 570.24,83.81 572.59,83.76 574.94,83.71 577.29,83.66 579.64,83.61 581.99,83.56 584.35,83.51 586.70,83.46 589.05,83.41 591.40,83.36 593.75,83.31 596.10,83.26 598.45,83.21 600.80,83.16 603.15,83.12 605.50,83.07 607.85,83.02 610.20,82.98 612.55,82.93 614.90,82.89 617.25,82.84 619.61,82.80 621.96,82.75 624.31,82.71 626.66,82.67 629.01,82.62 631.36,82.58 633.71,82.54 636.06,82.50 638.41,82.45 640.76,82.41 643.11,82.37 645.46,82.33 647.81,82.29 650.16,82.25 652.52,82.21 654.87,82.17 657.22,82.13 659.57,82.09 661.92,82.05 664.27,82.01 666.62,81.97 668.97,81.94 671.32,81.90 673.67,81.86 676.02,81.82 678.37,81.79 680.72,81.75 683.07,81.71 685.42,81.68 687.78,81.64 690.13,81.60 692.48,81.57 694.83,81.53 697.18,81.50 699.53,81.46 701.88,81.43 704.23,81.40 706.58,81.36 708.93,81.33 711.28,81.30 713.63,81.26 715.98,81.23 718.33,81.20 720.68,81.16 723.04,81.13 725.39,81.10 727.74,81.07 730.09,81.04 732.44,81.01 734.79,80.97 737.14,80.94 739.49,80.91 741.84,80.88 744.19,80.85 746.54,80.82 748.89,80.79 751.24,80.76 753.59,80.73 755.95,80.70 758.30,80.67 760.65,80.65 763.00,80.62 765.35,80.59 767.70,80.56 770.05,80.53 772.40,80.50 774.75,80.48 777.10,80.45 779.45,80.42 781.80,80.40 784.15,80.37 786.50,80.34 788.85,80.31 791.21,80.29 793.56,80.26 795.91,80.24 798.26,80.21 800.61,80.18 802.96,80.16 805.31,80.13 807.66,80.11 810.01,80.08 812.36,80.06 814.71,80.03 817.06,80.01 819.41,79.99 821.76,79.96 824.12,79.94 826.47,79.91 828.82,79.89 831.17,79.87 833.52,79.84 835.87,79.82 838.22,79.80 840.57,79.77 842.92,79.75 845.27,79.73 847.62,79.71 849.97,79.68 852.32,79.66 854.67,79.64 857.02,79.62 859.38,79.60 861.73,79.58 864.08,79.55 866.43,79.53 868.78,79.51 871.13,79.49 873.48,79.47 875.83,79.45 878.18,79.43 880.53,79.41 882.88,79.39 885.23,79.37 887.58,79.35 889.93,79.33 892.28,79.31 894.64,79.29 896.99,79.27 899.34,79.25 901.69,79.23 904.04,79.21 906.39,79.19 908.74,79.17 911.09,79.15 913.44,79.13 915.79,79.12 918.14,79.10 920.49,79.08 922.84,79.06 925.19,79.04 927.55,79.02 929.90,79.01 932.25,78.99 934.60,78.97 936.95,78.95 939.30,78.94 941.65,78.92 944.00,78.90"/>
<polyline class="curve" stroke="#16a34a" points="86.00,538.00 88.35,263.87 90.70,249.96 93.05,241.83 95.40,236.05 97.75,231.58 100.10,227.92 102.45,224.83 104.81,222.15 107.16,219.79 109.51,217.67 111.86,215.76 114.21,214.02 116.56,212.41 118.91,210.93 121.26,209.54 123.61,208.25 125.96,207.03 128.31,205.89 130.66,204.80 133.01,203.78 135.36,202.80 137.72,201.86 140.07,200.97 142.42,200.12 144.77,199.30 147.12,198.52 149.47,197.76 151.82,197.03 154.17,196.33 156.52,195.65 158.87,194.99 161.22,194.36 163.57,193.74 165.92,193.14 168.27,192.56 170.62,192.00 172.98,191.45 175.33,190.91 177.68,190.39 180.03,189.88 182.38,189.39 184.73,188.91 187.08,188.44 189.43,187.98 191.78,187.53 194.13,187.09 196.48,186.66 198.83,186.23 201.18,185.82 203.53,185.42 205.88,185.02 208.24,184.63 210.59,184.25 212.94,183.88 215.29,183.51 217.64,183.15 219.99,182.79 222.34,182.45 224.69,182.10 227.04,181.77 229.39,181.44 231.74,181.11 234.09,180.79 236.44,180.48 238.79,180.17 241.15,179.86 243.50,179.56 245.85,179.26 248.20,178.97 250.55,178.68 252.90,178.40 255.25,178.12 257.60,177.84 259.95,177.57 262.30,177.30 264.65,177.04 267.00,176.78 269.35,176.52 271.70,176.26 274.05,176.01 276.41,175.76 278.76,175.52 281.11,175.28 283.46,175.04 285.81,174.80 288.16,174.57 290.51,174.33 292.86,174.11 295.21,173.88 297.56,173.66 299.91,173.44 302.26,173.22 304.61,173.00 306.96,172.79 309.32,172.58 311.67,172.37 314.02,172.16 316.37,171.96 318.72,171.75 321.07,171.55 323.42,171.35 325.77,171.16 328.12,170.96 330.47,170.77 332.82,170.58 335.17,170.39 337.52,170.20 339.87,170.01 342.22,169.83 344.58,169.65 346.93,169.47 349.28,169.29 351.63,169.11 353.98,168.93 356.33,168.76 358.68,168.59 361.03,168.42 363.38,168.25 365.73,168.08 368.08,167.91 370.43,167.75 372.78,167.58 375.13,167.42 377.48,167.26 379.84,167.10 382.19,166.94 384.54,166.78 386.89,166.62 389.24,166.47 391.59,166.31 393.94,166.16 396.29,166.01 398.64,165.86 400.99,165.71 403.34,165.56 405.69,165.41 408.04,165.27 410.39,165.12 412.75,164.98 415.10,164.84 417.45,164.69 419.80,164.55 422.15,164.41 424.50,164.27 426.85,164.14 429.20,164.00 431.55,163.86 433.90,163.73 436.25,163.59 438.60,163.46 440.95,163.33 443.30,163.20 445.65,163.06 448.01,162.93 450.36,162.81 452.71,162.68 455.06,162.55 457.41,162.42 459.76,162.30 462.11,162.17 464.46,162.05 466.81,161.93 469.16,161.80 471.51,161.68 473.86,161.56 476.21,161.44 478.56,161.32 480.92,161.20 483.27,161.08 485.62,160.97 487.97,160.85 490.32,160.73 492.67,160.62 495.02,160.50 497.37,160.39 499.72,160.27 502.07,160.16 504.42,160.05 506.77,159.94 509.12,159.83 511.47,159.72 513.82,159.61 516.18,159.50 518.53,159.39 520.88,159.28 523.23,159.17 525.58,159.07 527.93,158.96 530.28,158.86 532.63,158.75 534.98,158.65 537.33,158.54 539.68,158.44 542.03,158.34 544.38,158.23 546.73,158.13 549.08,158.03 551.44,157.93 553.79,157.83 556.14,157.73 558.49,157.63 560.84,157.53 563.19,157.43 565.54,157.34 567.89,157.24 570.24,157.14 572.59,157.05 574.94,156.95 577.29,156.85 579.64,156.76 581.99,156.67 584.35,156.57 586.70,156.48 589.05,156.38 591.40,156.29 593.75,156.20 596.10,156.11 598.45,156.02 600.80,155.93 603.15,155.83 605.50,155.74 607.85,155.66 610.20,155.57 612.55,155.48 614.90,155.39 617.25,155.30 619.61,155.21 621.96,155.13 624.31,155.04 626.66,154.95 629.01,154.87 631.36,154.78 633.71,154.69 636.06,154.61 638.41,154.52 640.76,154.44 643.11,154.36 645.46,154.27 647.81,154.19 650.16,154.11 652.52,154.02 654.87,153.94 657.22,153.86 659.57,153.78 661.92,153.70 664.27,153.62 666.62,153.54 668.97,153.46 671.32,153.38 673.67,153.30 676.02,153.22 678.37,153.14 680.72,153.06 683.07,152.98 685.42,152.90 687.78,152.83 690.13,152.75 692.48,152.67 694.83,152.59 697.18,152.52 699.53,152.44 701.88,152.37 704.23,152.29 706.58,152.21 708.93,152.14 711.28,152.06 713.63,151.99 715.98,151.92 718.33,151.84 720.68,151.77 723.04,151.70 725.39,151.62 727.74,151.55 730.09,151.48 732.44,151.40 734.79,151.33 737.14,151.26 739.49,151.19 741.84,151.12 744.19,151.05 746.54,150.98 748.89,150.91 751.24,150.84 753.59,150.77 755.95,150.70 758.30,150.63 760.65,150.56 763.00,150.49 765.35,150.42 767.70,150.35 770.05,150.28 772.40,150.22 774.75,150.15 777.10,150.08 779.45,150.01 781.80,149.95 784.15,149.88 786.50,149.81 788.85,149.75 791.21,149.68 793.56,149.61 795.91,149.55 798.26,149.48 800.61,149.42 802.96,149.35 805.31,149.29 807.66,149.22 810.01,149.16 812.36,149.10 814.71,149.03 817.06,148.97 819.41,148.90 821.76,148.84 824.12,148.78 826.47,148.71 828.82,148.65 831.17,148.59 833.52,148.53 835.87,148.46 838.22,148.40 840.57,148.34 842.92,148.28 845.27,148.22 847.62,148.16 849.97,148.10 852.32,148.04 854.67,147.97 857.02,147.91 859.38,147.85 861.73,147.79 864.08,147.73 866.43,147.67 868.78,147.61 871.13,147.56 873.48,147.50 875.83,147.44 878.18,147.38 880.53,147.32 882.88,147.26 885.23,147.20 887.58,147.15 889.93,147.09 892.28,147.03 894.64,146.97 896.99,146.91 899.34,146.86 901.69,146.80 904.04,146.74 906.39,146.69 908.74,146.63 911.09,146.57 913.44,146.52 915.79,146.46 918.14,146.41 920.49,146.35 922.84,146.29 925.19,146.24 927.55,146.18 929.90,146.13 932.25,146.07 934.60,146.02 936.95,145.96 939.30,145.91 941.65,145.86 944.00,145.80"/>
<polyline class="curve" stroke="#2563eb" points="86.00,538.00 88.35,347.31 90.70,333.40 93.05,325.27 95.40,319.50 97.75,315.02 100.10,311.36 102.45,308.27 104.81,305.59 107.16,303.23 109.51,301.11 111.86,299.20 114.21,297.45 116.56,295.85 118.91,294.36 121.26,292.98 123.61,291.68 125.96,290.46 128.31,289.32 130.66,288.23 133.01,287.20 135.36,286.22 137.72,285.29 140.07,284.40 142.42,283.55 144.77,282.73 147.12,281.94 149.47,281.18 151.82,280.45 154.17,279.75 156.52,279.07 158.87,278.41 161.22,277.77 163.57,277.16 165.92,276.56 168.27,275.98 170.62,275.41 172.98,274.86 175.33,274.33 177.68,273.80 180.03,273.30 182.38,272.80 184.73,272.32 187.08,271.85 189.43,271.38 191.78,270.93 194.13,270.49 196.48,270.06 198.83,269.64 201.18,269.22 203.53,268.82 205.88,268.42 208.24,268.03 210.59,267.65 212.94,267.28 215.29,266.91 217.64,266.55 219.99,266.19 222.34,265.84 224.69,265.50 227.04,265.16 229.39,264.83 231.74,264.50 234.09,264.18 236.44,263.87 238.79,263.56 241.15,263.25 243.50,262.95 245.85,262.65 248.20,262.36 250.55,262.07 252.90,261.78 255.25,261.50 257.60,261.23 259.95,260.95 262.30,260.68 264.65,260.42 267.00,260.16 269.35,259.90 271.70,259.64 274.05,259.39 276.41,259.14 278.76,258.89 281.11,258.65 283.46,258.41 285.81,258.17 288.16,257.94 290.51,257.71 292.86,257.48 295.21,257.25 297.56,257.03 299.91,256.80 302.26,256.59 304.61,256.37 306.96,256.15 309.32,255.94 311.67,255.73 314.02,255.52 316.37,255.32 318.72,255.11 321.07,254.91 323.42,254.71 325.77,254.52 328.12,254.32 330.47,254.13 332.82,253.93 335.17,253.74 337.52,253.56 339.87,253.37 342.22,253.18 344.58,253.00 346.93,252.82 349.28,252.64 351.63,252.46 353.98,252.28 356.33,252.11 358.68,251.93 361.03,251.76 363.38,251.59 365.73,251.42 368.08,251.25 370.43,251.09 372.78,250.92 375.13,250.76 377.48,250.60 379.84,250.44 382.19,250.28 384.54,250.12 386.89,249.96 389.24,249.80 391.59,249.65 393.94,249.50 396.29,249.34 398.64,249.19 400.99,249.04 403.34,248.89 405.69,248.74 408.04,248.60 410.39,248.45 412.75,248.31 415.10,248.16 417.45,248.02 419.80,247.88 422.15,247.74 424.50,247.60 426.85,247.46 429.20,247.32 431.55,247.18 433.90,247.05 436.25,246.91 438.60,246.78 440.95,246.64 443.30,246.51 445.65,246.38 448.01,246.25 450.36,246.12 452.71,245.99 455.06,245.86 457.41,245.74 459.76,245.61 462.11,245.48 464.46,245.36 466.81,245.23 469.16,245.11 471.51,244.99 473.86,244.87 476.21,244.74 478.56,244.62 480.92,244.50 483.27,244.39 485.62,244.27 487.97,244.15 490.32,244.03 492.67,243.92 495.02,243.80 497.37,243.69 499.72,243.57 502.07,243.46 504.42,243.34 506.77,243.23 509.12,243.12 511.47,243.01 513.82,242.90 516.18,242.79 518.53,242.68 520.88,242.57 523.23,242.46 525.58,242.35 527.93,242.25 530.28,242.14 532.63,242.04 534.98,241.93 537.33,241.83 539.68,241.72 542.03,241.62 544.38,241.51 546.73,241.41 549.08,241.31 551.44,241.21 553.79,241.11 556.14,241.01 558.49,240.91 560.84,240.81 563.19,240.71 565.54,240.61 567.89,240.51 570.24,240.41 572.59,240.32 574.94,240.22 577.29,240.12 579.64,240.03 581.99,239.93 584.35,239.84 586.70,239.74 589.05,239.65 591.40,239.56 593.75,239.46 596.10,239.37 598.45,239.28 600.80,239.19 603.15,239.09 605.50,239.00 607.85,238.91 610.20,238.82 612.55,238.73 614.90,238.64 617.25,238.55 619.61,238.47 621.96,238.38 624.31,238.29 626.66,238.20 629.01,238.12 631.36,238.03 633.71,237.94 636.06,237.86 638.41,237.77 640.76,237.69 643.11,237.60 645.46,237.52 647.81,237.43 650.16,237.35 652.52,237.27 654.87,237.18 657.22,237.10 659.57,237.02 661.92,236.94 664.27,236.85 666.62,236.77 668.97,236.69 671.32,236.61 673.67,236.53 676.02,236.45 678.37,236.37 680.72,236.29 683.07,236.21 685.42,236.13 687.78,236.05 690.13,235.98 692.48,235.90 694.83,235.82 697.18,235.74 699.53,235.67 701.88,235.59 704.23,235.51 706.58,235.44 708.93,235.36 711.28,235.29 713.63,235.21 715.98,235.14 718.33,235.06 720.68,234.99 723.04,234.91 725.39,234.84 727.74,234.76 730.09,234.69 732.44,234.62 734.79,234.54 737.14,234.47 739.49,234.40 741.84,234.33 744.19,234.26 746.54,234.18 748.89,234.11 751.24,234.04 753.59,233.97 755.95,233.90 758.30,233.83 760.65,233.76 763.00,233.69 765.35,233.62 767.70,233.55 770.05,233.48 772.40,233.41 774.75,233.35 777.10,233.28 779.45,233.21 781.80,233.14 784.15,233.07 786.50,233.01 788.85,232.94 791.21,232.87 793.56,232.81 795.91,232.74 798.26,232.67 800.61,232.61 802.96,232.54 805.31,232.48 807.66,232.41 810.01,232.34 812.36,232.28 814.71,232.21 817.06,232.15 819.41,232.09 821.76,232.02 824.12,231.96 826.47,231.89 828.82,231.83 831.17,231.77 833.52,231.70 835.87,231.64 838.22,231.58 840.57,231.52 842.92,231.45 845.27,231.39 847.62,231.33 849.97,231.27 852.32,231.20 854.67,231.14 857.02,231.08 859.38,231.02 861.73,230.96 864.08,230.90 866.43,230.84 868.78,230.78 871.13,230.72 873.48,230.66 875.83,230.60 878.18,230.54 880.53,230.48 882.88,230.42 885.23,230.36 887.58,230.30 889.93,230.24 892.28,230.19 894.64,230.13 896.99,230.07 899.34,230.01 901.69,229.95 904.04,229.89 906.39,229.84 908.74,229.78 911.09,229.72 913.44,229.67 915.79,229.61 918.14,229.55 920.49,229.50 922.84,229.44 925.19,229.38 927.55,229.33 929.90,229.27 932.25,229.21 934.60,229.16 936.95,229.10 939.30,229.05 941.65,228.99 944.00,228.94"/>
<polyline class="curve" stroke="#7c3aed" points="86.00,538.00 88.35,430.76 90.70,416.85 93.05,408.71 95.40,402.94 97.75,398.46 100.10,394.81 102.45,391.71 104.81,389.03 107.16,386.67 109.51,384.56 111.86,382.64 114.21,380.90 116.56,379.29 118.91,377.81 121.26,376.42 123.61,375.13 125.96,373.91 128.31,372.76 130.66,371.68 133.01,370.65 135.36,369.67 137.72,368.74 140.07,367.84 142.42,366.99 144.77,366.17 147.12,365.38 149.47,364.63 151.82,363.90 154.17,363.19 156.52,362.51 158.87,361.86 161.22,361.22 163.57,360.60 165.92,360.00 168.27,359.42 170.62,358.86 172.98,358.31 175.33,357.77 177.68,357.25 180.03,356.74 182.38,356.25 184.73,355.76 187.08,355.29 189.43,354.83 191.78,354.38 194.13,353.94 196.48,353.51 198.83,353.08 201.18,352.67 203.53,352.26 205.88,351.87 208.24,351.48 210.59,351.10 212.94,350.72 215.29,350.35 217.64,349.99 219.99,349.64 222.34,349.29 224.69,348.94 227.04,348.61 229.39,348.27 231.74,347.95 234.09,347.63 236.44,347.31 238.79,347.00 241.15,346.69 243.50,346.39 245.85,346.09 248.20,345.80 250.55,345.51 252.90,345.23 255.25,344.95 257.60,344.67 259.95,344.40 262.30,344.13 264.65,343.86 267.00,343.60 269.35,343.34 271.70,343.09 274.05,342.83 276.41,342.58 278.76,342.34 281.11,342.10 283.46,341.86 285.81,341.62 288.16,341.38 290.51,341.15 292.86,340.92 295.21,340.69 297.56,340.47 299.91,340.25 302.26,340.03 304.61,339.81 306.96,339.60 309.32,339.39 311.67,339.18 314.02,338.97 316.37,338.76 318.72,338.56 321.07,338.36 323.42,338.16 325.77,337.96 328.12,337.76 330.47,337.57 332.82,337.38 335.17,337.19 337.52,337.00 339.87,336.81 342.22,336.63 344.58,336.44 346.93,336.26 349.28,336.08 351.63,335.90 353.98,335.73 356.33,335.55 358.68,335.38 361.03,335.21 363.38,335.04 365.73,334.87 368.08,334.70 370.43,334.53 372.78,334.37 375.13,334.20 377.48,334.04 379.84,333.88 382.19,333.72 384.54,333.56 386.89,333.40 389.24,333.25 391.59,333.09 393.94,332.94 396.29,332.79 398.64,332.63 400.99,332.48 403.34,332.34 405.69,332.19 408.04,332.04 410.39,331.89 412.75,331.75 415.10,331.61 417.45,331.46 419.80,331.32 422.15,331.18 424.50,331.04 426.85,330.90 429.20,330.76 431.55,330.63 433.90,330.49 436.25,330.36 438.60,330.22 440.95,330.09 443.30,329.96 445.65,329.82 448.01,329.69 450.36,329.56 452.71,329.43 455.06,329.31 457.41,329.18 459.76,329.05 462.11,328.93 464.46,328.80 466.81,328.68 469.16,328.55 471.51,328.43 473.86,328.31 476.21,328.19 478.56,328.07 480.92,327.95 483.27,327.83 485.62,327.71 487.97,327.59 490.32,327.48 492.67,327.36 495.02,327.24 497.37,327.13 499.72,327.01 502.07,326.90 504.42,326.79 506.77,326.67 509.12,326.56 511.47,326.45 513.82,326.34 516.18,326.23 518.53,326.12 520.88,326.01 523.23,325.91 525.58,325.80 527.93,325.69 530.28,325.58 532.63,325.48 534.98,325.37 537.33,325.27 539.68,325.16 542.03,325.06 544.38,324.96 546.73,324.85 549.08,324.75 551.44,324.65 553.79,324.55 556.14,324.45 558.49,324.35 560.84,324.25 563.19,324.15 565.54,324.05 567.89,323.95 570.24,323.86 572.59,323.76 574.94,323.66 577.29,323.57 579.64,323.47 581.99,323.37 584.35,323.28 586.70,323.19 589.05,323.09 591.40,323.00 593.75,322.91 596.10,322.81 598.45,322.72 600.80,322.63 603.15,322.54 605.50,322.45 607.85,322.36 610.20,322.27 612.55,322.18 614.90,322.09 617.25,322.00 619.61,321.91 621.96,321.82 624.31,321.73 626.66,321.64 629.01,321.56 631.36,321.47 633.71,321.38 636.06,321.30 638.41,321.21 640.76,321.13 643.11,321.04 645.46,320.96 647.81,320.87 650.16,320.79 652.52,320.71 654.87,320.62 657.22,320.54 659.57,320.46 661.92,320.38 664.27,320.30 666.62,320.21 668.97,320.13 671.32,320.05 673.67,319.97 676.02,319.89 678.37,319.81 680.72,319.73 683.07,319.65 685.42,319.57 687.78,319.50 690.13,319.42 692.48,319.34 694.83,319.26 697.18,319.19 699.53,319.11 701.88,319.03 704.23,318.95 706.58,318.88 708.93,318.80 711.28,318.73 713.63,318.65 715.98,318.58 718.33,318.50 720.68,318.43 723.04,318.35 725.39,318.28 727.74,318.21 730.09,318.13 732.44,318.06 734.79,317.99 737.14,317.91 739.49,317.84 741.84,317.77 744.19,317.70 746.54,317.63 748.89,317.56 751.24,317.48 753.59,317.41 755.95,317.34 758.30,317.27 760.65,317.20 763.00,317.13 765.35,317.06 767.70,316.99 770.05,316.92 772.40,316.86 774.75,316.79 777.10,316.72 779.45,316.65 781.80,316.58 784.15,316.52 786.50,316.45 788.85,316.38 791.21,316.31 793.56,316.25 795.91,316.18 798.26,316.11 800.61,316.05 802.96,315.98 805.31,315.92 807.66,315.85 810.01,315.79 812.36,315.72 814.71,315.66 817.06,315.59 819.41,315.53 821.76,315.46 824.12,315.40 826.47,315.33 828.82,315.27 831.17,315.21 833.52,315.14 835.87,315.08 838.22,315.02 840.57,314.96 842.92,314.89 845.27,314.83 847.62,314.77 849.97,314.71 852.32,314.65 854.67,314.58 857.02,314.52 859.38,314.46 861.73,314.40 864.08,314.34 866.43,314.28 868.78,314.22 871.13,314.16 873.48,314.10 875.83,314.04 878.18,313.98 880.53,313.92 882.88,313.86 885.23,313.80 887.58,313.74 889.93,313.68 892.28,313.63 894.64,313.57 896.99,313.51 899.34,313.45 901.69,313.39 904.04,313.34 906.39,313.28 908.74,313.22 911.09,313.16 913.44,313.11 915.79,313.05 918.14,312.99 920.49,312.94 922.84,312.88 925.19,312.82 927.55,312.77 929.90,312.71 932.25,312.66 934.60,312.60 936.95,312.54 939.30,312.49 941.65,312.43 944.00,312.38"/>
<line x1="778" y1="98" x2="810" y2="98" stroke="#c2410c" stroke-width="3"/><text class="legend" x="820" y="103">d = 12</text>
<line x1="778" y1="122" x2="810" y2="122" stroke="#d97706" stroke-width="3"/><text class="legend" x="820" y="127">d = 18</text>
<line x1="778" y1="146" x2="810" y2="146" stroke="#16a34a" stroke-width="3"/><text class="legend" x="820" y="151">d = 24</text>
<line x1="778" y1="170" x2="810" y2="170" stroke="#2563eb" stroke-width="3"/><text class="legend" x="820" y="175">d = 30</text>
<line x1="778" y1="194" x2="810" y2="194" stroke="#7c3aed" stroke-width="3"/><text class="legend" x="820" y="199">d = 36</text>
</svg>
