<?xml version="1.0" encoding="UTF-8"?>
<svg xmlns="http://www.w3.org/2000/svg" width="1200" height="760" viewBox="0 0 1200 760" role="img" aria-label="Ethereum mainnet gas fee distribution from 2025-11-01 to 2026-05-01, x axis focused on 0 to 3 gwei">
<rect width="100%" height="100%" fill="#ffffff"/>
<text x="64" y="44" font-family="Inter, Arial, sans-serif" font-size="26" font-weight="700" fill="#0f172a">Ethereum mainnet gas fee distribution</text>
<text x="64" y="72" font-family="Inter, Arial, sans-serif" font-size="14" fill="#475569">2025-11-01 to 2026-05-01; 1,295,600 blocks measured by eth_feeHistory. Values are gwei.</text>
<text x="64" y="100" font-family="Inter, Arial, sans-serif" font-size="17" font-weight="700" fill="#0f172a">Histogram, block-level effective fee</text>
<rect x="64" y="118" width="500" height="250" fill="#f8fafc" stroke="#cbd5e1"/>
<line x1="64" y1="118" x2="564" y2="118" stroke="#e5e7eb"/>
<line x1="64" y1="180.5" x2="564" y2="180.5" stroke="#e5e7eb"/>
<line x1="64" y1="243" x2="564" y2="243" stroke="#e5e7eb"/>
<line x1="64" y1="305.5" x2="564" y2="305.5" stroke="#e5e7eb"/>
<line x1="64" y1="368" x2="564" y2="368" stroke="#e5e7eb"/>
<rect x="64.0" y="358.6" width="7.3" height="9.4" fill="#d97706" opacity="0.42"/>
<rect x="64.0" y="118.0" width="7.3" height="250.0" fill="#2563eb" opacity="0.58"/>
<rect x="72.3" y="349.6" width="7.3" height="18.4" fill="#d97706" opacity="0.42"/>
<rect x="72.3" y="148.5" width="7.3" height="219.5" fill="#2563eb" opacity="0.58"/>
<rect x="80.7" y="329.0" width="7.3" height="39.0" fill="#d97706" opacity="0.42"/>
<rect x="80.7" y="234.8" width="7.3" height="133.2" fill="#2563eb" opacity="0.58"/>
<rect x="89.0" y="349.8" width="7.3" height="18.2" fill="#d97706" opacity="0.42"/>
<rect x="89.0" y="290.3" width="7.3" height="77.7" fill="#2563eb" opacity="0.58"/>
<rect x="97.3" y="350.3" width="7.3" height="17.7" fill="#d97706" opacity="0.42"/>
<rect x="97.3" y="322.3" width="7.3" height="45.7" fill="#2563eb" opacity="0.58"/>
<rect x="105.7" y="357.3" width="7.3" height="10.7" fill="#d97706" opacity="0.42"/>
<rect x="105.7" y="337.6" width="7.3" height="30.4" fill="#2563eb" opacity="0.58"/>
<rect x="114.0" y="358.6" width="7.3" height="9.4" fill="#d97706" opacity="0.42"/>
<rect x="114.0" y="344.4" width="7.3" height="23.6" fill="#2563eb" opacity="0.58"/>
<rect x="122.3" y="361.8" width="7.3" height="6.2" fill="#d97706" opacity="0.42"/>
<rect x="122.3" y="349.1" width="7.3" height="18.9" fill="#2563eb" opacity="0.58"/>
<rect x="130.7" y="362.5" width="7.3" height="5.5" fill="#d97706" opacity="0.42"/>
<rect x="130.7" y="353.0" width="7.3" height="15.0" fill="#2563eb" opacity="0.58"/>
<rect x="139.0" y="364.2" width="7.3" height="3.8" fill="#d97706" opacity="0.42"/>
<rect x="139.0" y="356.2" width="7.3" height="11.8" fill="#2563eb" opacity="0.58"/>
<rect x="147.3" y="334.8" width="7.3" height="33.2" fill="#d97706" opacity="0.42"/>
<rect x="147.3" y="356.9" width="7.3" height="11.1" fill="#2563eb" opacity="0.58"/>
<rect x="155.7" y="351.3" width="7.3" height="16.7" fill="#d97706" opacity="0.42"/>
<rect x="155.7" y="358.6" width="7.3" height="9.4" fill="#2563eb" opacity="0.58"/>
<rect x="164.0" y="358.4" width="7.3" height="9.6" fill="#d97706" opacity="0.42"/>
<rect x="164.0" y="360.3" width="7.3" height="7.7" fill="#2563eb" opacity="0.58"/>
<rect x="172.3" y="361.3" width="7.3" height="6.7" fill="#d97706" opacity="0.42"/>
<rect x="172.3" y="361.5" width="7.3" height="6.5" fill="#2563eb" opacity="0.58"/>
<rect x="180.7" y="363.8" width="7.3" height="4.2" fill="#d97706" opacity="0.42"/>
<rect x="180.7" y="362.3" width="7.3" height="5.7" fill="#2563eb" opacity="0.58"/>
<rect x="189.0" y="364.8" width="7.3" height="3.2" fill="#d97706" opacity="0.42"/>
<rect x="189.0" y="363.0" width="7.3" height="5.0" fill="#2563eb" opacity="0.58"/>
<rect x="197.3" y="364.8" width="7.3" height="3.2" fill="#d97706" opacity="0.42"/>
<rect x="197.3" y="363.2" width="7.3" height="4.8" fill="#2563eb" opacity="0.58"/>
<rect x="205.7" y="365.5" width="7.3" height="2.5" fill="#d97706" opacity="0.42"/>
<rect x="205.7" y="363.7" width="7.3" height="4.3" fill="#2563eb" opacity="0.58"/>
<rect x="214.0" y="363.8" width="7.3" height="4.2" fill="#d97706" opacity="0.42"/>
<rect x="214.0" y="364.1" width="7.3" height="3.9" fill="#2563eb" opacity="0.58"/>
<rect x="222.3" y="364.0" width="7.3" height="4.0" fill="#d97706" opacity="0.42"/>
<rect x="222.3" y="364.3" width="7.3" height="3.7" fill="#2563eb" opacity="0.58"/>
<rect x="230.7" y="255.9" width="7.3" height="112.1" fill="#d97706" opacity="0.42"/>
<rect x="230.7" y="360.6" width="7.3" height="7.4" fill="#2563eb" opacity="0.58"/>
<rect x="239.0" y="305.5" width="7.3" height="62.5" fill="#d97706" opacity="0.42"/>
<rect x="239.0" y="363.6" width="7.3" height="4.4" fill="#2563eb" opacity="0.58"/>
<rect x="247.3" y="333.3" width="7.3" height="34.7" fill="#d97706" opacity="0.42"/>
<rect x="247.3" y="364.1" width="7.3" height="3.9" fill="#2563eb" opacity="0.58"/>
<rect x="255.7" y="348.8" width="7.3" height="19.2" fill="#d97706" opacity="0.42"/>
<rect x="255.7" y="364.8" width="7.3" height="3.2" fill="#2563eb" opacity="0.58"/>
<rect x="264.0" y="356.8" width="7.3" height="11.2" fill="#d97706" opacity="0.42"/>
<rect x="264.0" y="365.1" width="7.3" height="2.9" fill="#2563eb" opacity="0.58"/>
<rect x="272.3" y="359.8" width="7.3" height="8.2" fill="#d97706" opacity="0.42"/>
<rect x="272.3" y="365.5" width="7.3" height="2.5" fill="#2563eb" opacity="0.58"/>
<rect x="280.7" y="360.7" width="7.3" height="7.3" fill="#d97706" opacity="0.42"/>
<rect x="280.7" y="365.6" width="7.3" height="2.4" fill="#2563eb" opacity="0.58"/>
<rect x="289.0" y="362.8" width="7.3" height="5.2" fill="#d97706" opacity="0.42"/>
<rect x="289.0" y="365.8" width="7.3" height="2.2" fill="#2563eb" opacity="0.58"/>
<rect x="297.3" y="362.0" width="7.3" height="6.0" fill="#d97706" opacity="0.42"/>
<rect x="297.3" y="365.9" width="7.3" height="2.1" fill="#2563eb" opacity="0.58"/>
<rect x="305.7" y="363.0" width="7.3" height="5.0" fill="#d97706" opacity="0.42"/>
<rect x="305.7" y="366.1" width="7.3" height="1.9" fill="#2563eb" opacity="0.58"/>
<rect x="314.0" y="354.6" width="7.3" height="13.4" fill="#d97706" opacity="0.42"/>
<rect x="314.0" y="366.0" width="7.3" height="2.0" fill="#2563eb" opacity="0.58"/>
<rect x="322.3" y="357.6" width="7.3" height="10.4" fill="#d97706" opacity="0.42"/>
<rect x="322.3" y="366.3" width="7.3" height="1.7" fill="#2563eb" opacity="0.58"/>
<rect x="330.7" y="359.8" width="7.3" height="8.2" fill="#d97706" opacity="0.42"/>
<rect x="330.7" y="366.3" width="7.3" height="1.7" fill="#2563eb" opacity="0.58"/>
<rect x="339.0" y="362.0" width="7.3" height="6.0" fill="#d97706" opacity="0.42"/>
<rect x="339.0" y="366.5" width="7.3" height="1.5" fill="#2563eb" opacity="0.58"/>
<rect x="347.3" y="363.7" width="7.3" height="4.3" fill="#d97706" opacity="0.42"/>
<rect x="347.3" y="366.6" width="7.3" height="1.4" fill="#2563eb" opacity="0.58"/>
<rect x="355.7" y="361.8" width="7.3" height="6.2" fill="#d97706" opacity="0.42"/>
<rect x="355.7" y="366.7" width="7.3" height="1.3" fill="#2563eb" opacity="0.58"/>
<rect x="364.0" y="363.7" width="7.3" height="4.3" fill="#d97706" opacity="0.42"/>
<rect x="364.0" y="366.8" width="7.3" height="1.2" fill="#2563eb" opacity="0.58"/>
<rect x="372.3" y="364.4" width="7.3" height="3.6" fill="#d97706" opacity="0.42"/>
<rect x="372.3" y="366.8" width="7.3" height="1.2" fill="#2563eb" opacity="0.58"/>
<rect x="380.7" y="364.8" width="7.3" height="3.2" fill="#d97706" opacity="0.42"/>
<rect x="380.7" y="366.9" width="7.3" height="1.1" fill="#2563eb" opacity="0.58"/>
<rect x="389.0" y="364.0" width="7.3" height="4.0" fill="#d97706" opacity="0.42"/>
<rect x="389.0" y="366.8" width="7.3" height="1.2" fill="#2563eb" opacity="0.58"/>
<rect x="397.3" y="281.6" width="7.3" height="86.4" fill="#d97706" opacity="0.42"/>
<rect x="397.3" y="365.5" width="7.3" height="2.5" fill="#2563eb" opacity="0.58"/>
<rect x="405.7" y="305.8" width="7.3" height="62.2" fill="#d97706" opacity="0.42"/>
<rect x="405.7" y="366.4" width="7.3" height="1.6" fill="#2563eb" opacity="0.58"/>
<rect x="414.0" y="327.3" width="7.3" height="40.7" fill="#d97706" opacity="0.42"/>
<rect x="414.0" y="366.5" width="7.3" height="1.5" fill="#2563eb" opacity="0.58"/>
<rect x="422.3" y="343.1" width="7.3" height="24.9" fill="#d97706" opacity="0.42"/>
<rect x="422.3" y="366.8" width="7.3" height="1.2" fill="#2563eb" opacity="0.58"/>
<rect x="430.7" y="349.9" width="7.3" height="18.1" fill="#d97706" opacity="0.42"/>
<rect x="430.7" y="366.9" width="7.3" height="1.1" fill="#2563eb" opacity="0.58"/>
<rect x="439.0" y="354.2" width="7.3" height="13.8" fill="#d97706" opacity="0.42"/>
<rect x="439.0" y="367.0" width="7.3" height="1.0" fill="#2563eb" opacity="0.58"/>
<rect x="447.3" y="355.4" width="7.3" height="12.6" fill="#d97706" opacity="0.42"/>
<rect x="447.3" y="367.0" width="7.3" height="1.0" fill="#2563eb" opacity="0.58"/>
<rect x="455.7" y="358.6" width="7.3" height="9.4" fill="#d97706" opacity="0.42"/>
<rect x="455.7" y="367.1" width="7.3" height="0.9" fill="#2563eb" opacity="0.58"/>
<rect x="464.0" y="360.9" width="7.3" height="7.1" fill="#d97706" opacity="0.42"/>
<rect x="464.0" y="367.2" width="7.3" height="0.8" fill="#2563eb" opacity="0.58"/>
<rect x="472.3" y="362.4" width="7.3" height="5.6" fill="#d97706" opacity="0.42"/>
<rect x="472.3" y="367.2" width="7.3" height="0.8" fill="#2563eb" opacity="0.58"/>
<rect x="480.7" y="363.0" width="7.3" height="5.0" fill="#d97706" opacity="0.42"/>
<rect x="480.7" y="367.2" width="7.3" height="0.8" fill="#2563eb" opacity="0.58"/>
<rect x="489.0" y="363.5" width="7.3" height="4.5" fill="#d97706" opacity="0.42"/>
<rect x="489.0" y="367.2" width="7.3" height="0.8" fill="#2563eb" opacity="0.58"/>
<rect x="497.3" y="364.0" width="7.3" height="4.0" fill="#d97706" opacity="0.42"/>
<rect x="497.3" y="367.3" width="7.3" height="0.7" fill="#2563eb" opacity="0.58"/>
<rect x="505.7" y="364.4" width="7.3" height="3.6" fill="#d97706" opacity="0.42"/>
<rect x="505.7" y="367.3" width="7.3" height="0.7" fill="#2563eb" opacity="0.58"/>
<rect x="514.0" y="364.8" width="7.3" height="3.2" fill="#d97706" opacity="0.42"/>
<rect x="514.0" y="367.3" width="7.3" height="0.7" fill="#2563eb" opacity="0.58"/>
<rect x="522.3" y="364.9" width="7.3" height="3.1" fill="#d97706" opacity="0.42"/>
<rect x="522.3" y="367.3" width="7.3" height="0.7" fill="#2563eb" opacity="0.58"/>
<rect x="530.7" y="365.3" width="7.3" height="2.7" fill="#d97706" opacity="0.42"/>
<rect x="530.7" y="367.4" width="7.3" height="0.6" fill="#2563eb" opacity="0.58"/>
<rect x="539.0" y="365.4" width="7.3" height="2.6" fill="#d97706" opacity="0.42"/>
<rect x="539.0" y="367.4" width="7.3" height="0.6" fill="#2563eb" opacity="0.58"/>
<rect x="547.3" y="365.5" width="7.3" height="2.5" fill="#d97706" opacity="0.42"/>
<rect x="547.3" y="367.4" width="7.3" height="0.6" fill="#2563eb" opacity="0.58"/>
<rect x="555.7" y="363.7" width="7.3" height="4.3" fill="#d97706" opacity="0.42"/>
<rect x="555.7" y="367.2" width="7.3" height="0.8" fill="#2563eb" opacity="0.58"/>
<text x="64" y="392" font-family="Inter, Arial, sans-serif" font-size="13" fill="#475569">0</text>
<text x="230.66666666666666" y="392" font-family="Inter, Arial, sans-serif" font-size="13" fill="#475569" text-anchor="middle">1</text>
<text x="397.3333333333333" y="392" font-family="Inter, Arial, sans-serif" font-size="13" fill="#475569" text-anchor="middle">2</text>
<text x="564" y="392" font-family="Inter, Arial, sans-serif" font-size="13" fill="#475569" text-anchor="end">3 gwei</text>
<text x="650" y="100" font-family="Inter, Arial, sans-serif" font-size="17" font-weight="700" fill="#0f172a">CDF, block-level effective fee</text>
<rect x="650" y="118" width="500" height="250" fill="#f8fafc" stroke="#cbd5e1"/>
<line x1="650" y1="118" x2="1150" y2="118" stroke="#e5e7eb"/>
<line x1="650" y1="180.5" x2="1150" y2="180.5" stroke="#e5e7eb"/>
<line x1="650" y1="243" x2="1150" y2="243" stroke="#e5e7eb"/>
<line x1="650" y1="305.5" x2="1150" y2="305.5" stroke="#e5e7eb"/>
<line x1="650" y1="368" x2="1150" y2="368" stroke="#e5e7eb"/>
<polyline points="651.7,368.0 657.1,366.4 659.3,364.9 662.4,363.3 664.8,361.8 667.5,360.2 669.2,358.6 670.8,357.1 671.7,355.5 672.5,353.9 673.6,352.4 675.1,350.8 677.4,349.3 680.3,347.7 683.3,346.1 687.0,344.6 689.5,343.0 692.2,341.4 697.0,339.9 702.4,338.3 707.7,336.8 715.5,335.2 724.7,333.6 734.2,332.1 738.0,330.5 738.7,328.9 739.3,327.4 740.3,325.8 741.5,324.3 743.5,322.7 746.8,321.1 750.8,319.6 756.0,318.0 761.9,316.4 772.5,314.9 787.7,313.3 805.4,311.8 816.7,310.2 816.7,308.6 816.7,307.1 816.7,305.5 819.1,303.9 821.2,302.4 821.6,300.8 821.9,299.3 822.1,297.7 822.3,296.1 822.5,294.6 822.7,293.0 823.0,291.4 823.3,289.9 823.6,288.3 823.8,286.8 824.1,285.2 824.5,283.6 824.8,282.1 825.3,280.5 825.8,278.9 826.3,277.4 827.0,275.8 827.8,274.3 828.7,272.7 829.6,271.1 830.6,269.6 831.6,268.0 832.7,266.4 833.7,264.9 834.9,263.3 836.3,261.8 837.8,260.2 839.4,258.6 841.2,257.1 843.2,255.5 845.6,253.9 848.7,252.4 852.2,250.8 857.0,249.3 862.9,247.7 869.0,246.1 876.9,244.6 887.5,243.0 895.4,241.4 904.5,239.9 906.7,238.3 909.7,236.8 914.8,235.2 920.2,233.6 927.3,232.1 937.1,230.5 946.8,228.9 956.9,227.4 971.4,225.8 983.3,224.3 983.3,222.7 983.3,221.1 983.3,219.6 987.6,218.0 988.2,216.4 988.6,214.9 988.9,213.3 989.2,211.8 989.5,210.2 990.0,208.6 990.3,207.1 990.7,205.5 991.1,203.9 991.7,202.4 992.2,200.8 992.9,199.3 993.7,197.7 994.6,196.1 995.4,194.6 996.2,193.0 997.1,191.4 997.9,189.9 998.8,188.3 999.8,186.8 1000.8,185.2 1001.9,183.6 1003.2,182.1 1004.5,180.5 1005.7,178.9 1007.1,177.4 1008.5,175.8 1010.1,174.3 1012.0,172.7 1014.3,171.1 1016.7,169.6 1019.2,168.0 1022.0,166.4 1025.2,164.9 1028.8,163.3 1032.6,161.8 1036.3,160.2 1040.5,158.6 1045.4,157.1 1051.3,155.5 1058.7,153.9 1067.9,152.4 1078.3,150.8 1090.4,149.3 1104.8,147.7 1122.0,146.1 1141.7,144.6 1150.0,143.0 1150.0,141.4 1150.0,139.9 1150.0,138.3 1150.0,136.8 1150.0,135.2 1150.0,133.6 1150.0,132.1 1150.0,130.5 1150.0,128.9 1150.0,127.4 1150.0,125.8 1150.0,124.3 1150.0,122.7 1150.0,121.1 1150.0,119.6 1150.0,118.0" fill="none" stroke="#d97706" stroke-width="2.2"/>
<polyline points="651.7,368.0 654.2,366.4 654.5,364.9 654.7,363.3 654.8,361.8 655.0,360.2 655.0,358.6 655.1,357.1 655.2,355.5 655.3,353.9 655.4,352.4 655.5,350.8 655.6,349.3 655.6,347.7 655.7,346.1 655.8,344.6 655.9,343.0 656.0,341.4 656.1,339.9 656.2,338.3 656.3,336.8 656.3,335.2 656.4,333.6 656.5,332.1 656.6,330.5 656.7,328.9 656.8,327.4 656.8,325.8 656.9,324.3 657.0,322.7 657.1,321.1 657.2,319.6 657.3,318.0 657.4,316.4 657.5,314.9 657.6,313.3 657.8,311.8 657.9,310.2 658.0,308.6 658.1,307.1 658.2,305.5 658.3,303.9 658.4,302.4 658.5,300.8 658.6,299.3 658.8,297.7 658.9,296.1 659.0,294.6 659.2,293.0 659.3,291.4 659.5,289.9 659.7,288.3 659.8,286.8 660.0,285.2 660.2,283.6 660.4,282.1 660.6,280.5 660.8,278.9 661.0,277.4 661.3,275.8 661.5,274.3 661.8,272.7 662.0,271.1 662.3,269.6 662.6,268.0 662.9,266.4 663.2,264.9 663.4,263.3 663.7,261.8 664.1,260.2 664.4,258.6 664.7,257.1 665.0,255.5 665.4,253.9 665.7,252.4 666.0,250.8 666.4,249.3 666.7,247.7 666.9,246.1 667.3,244.6 667.6,243.0 667.9,241.4 668.3,239.9 668.6,238.3 669.0,236.8 669.3,235.2 669.7,233.6 670.0,232.1 670.4,230.5 670.7,228.9 671.1,227.4 671.5,225.8 671.9,224.3 672.4,222.7 672.8,221.1 673.2,219.6 673.7,218.0 674.2,216.4 674.7,214.9 675.1,213.3 675.6,211.8 676.2,210.2 676.7,208.6 677.3,207.1 677.9,205.5 678.5,203.9 679.1,202.4 679.8,200.8 680.5,199.3 681.2,197.7 682.0,196.1 682.9,194.6 683.7,193.0 684.7,191.4 685.8,189.9 686.8,188.3 688.0,186.8 689.2,185.2 690.4,183.6 691.7,182.1 693.2,180.5 694.8,178.9 696.5,177.4 698.3,175.8 700.1,174.3 702.1,172.7 704.2,171.1 706.5,169.6 708.8,168.0 711.3,166.4 714.0,164.9 716.9,163.3 720.1,161.8 723.6,160.2 727.7,158.6 732.0,157.1 736.6,155.5 741.1,153.9 746.4,152.4 752.3,150.8 759.1,149.3 766.9,147.7 776.0,146.1 786.3,144.6 797.6,143.0 810.6,141.4 819.3,139.9 828.9,138.3 841.6,136.8 858.3,135.2 879.3,133.6 904.1,132.1 934.9,130.5 976.8,128.9 1005.7,127.4 1054.8,125.8 1124.3,124.3 1150.0,122.7 1150.0,121.1 1150.0,119.6 1150.0,118.0" fill="none" stroke="#2563eb" stroke-width="2.2"/>
<text x="650" y="392" font-family="Inter, Arial, sans-serif" font-size="13" fill="#475569">0</text>
<text x="816.6666666666666" y="392" font-family="Inter, Arial, sans-serif" font-size="13" fill="#475569" text-anchor="middle">1</text>
<text x="983.3333333333333" y="392" font-family="Inter, Arial, sans-serif" font-size="13" fill="#475569" text-anchor="middle">2</text>
<text x="1150" y="392" font-family="Inter, Arial, sans-serif" font-size="13" fill="#475569" text-anchor="end">3 gwei</text>
<circle cx="76" cy="405" r="5" fill="#2563eb"/><text x="88" y="410" font-family="Inter, Arial, sans-serif" font-size="13" fill="#334155">effective fee using in-block p50 reward</text><circle cx="352" cy="405" r="5" fill="#d97706"/><text x="364" y="410" font-family="Inter, Arial, sans-serif" font-size="13" fill="#334155">effective fee using in-block p90 reward</text>
<text x="64" y="455" font-family="Inter, Arial, sans-serif" font-size="17" font-weight="700" fill="#0f172a">Six-month block-distribution percentiles</text><text x="355" y="455" text-anchor="end" font-size="13" fill="#475569">Block p10</text><text x="465" y="455" text-anchor="end" font-size="13" fill="#475569">Block p50</text><text x="575" y="455" text-anchor="end" font-size="13" fill="#475569">Block p90</text><text x="685" y="455" text-anchor="end" font-size="13" fill="#475569">Block p99</text><text x="795" y="455" text-anchor="end" font-size="13" fill="#475569">max</text><line x1="64" y1="469" x2="820" y2="469" stroke="#cbd5e1"/><text x="64" y="497" font-size="15" fill="#111827">Base fee</text><text x="355" y="497" text-anchor="end" font-size="15">0.032</text><text x="465" y="497" text-anchor="end" font-size="15">0.08</text><text x="575" y="497" text-anchor="end" font-size="15">0.51</text><text x="685" y="497" text-anchor="end" font-size="15">3.445</text><text x="795" y="497" text-anchor="end" font-size="15">97.679</text>
<text x="64" y="531" font-size="15" fill="#111827">Fee using in-block p50 reward</text><text x="355" y="531" text-anchor="end" font-size="15">0.035</text><text x="465" y="531" text-anchor="end" font-size="15">0.106</text><text x="575" y="531" text-anchor="end" font-size="15">0.886</text><text x="685" y="531" text-anchor="end" font-size="15">5.19</text><text x="795" y="531" text-anchor="end" font-size="15">13492.028</text>
<text x="64" y="565" font-size="15" fill="#111827">Fee using in-block p90 reward</text><text x="355" y="565" text-anchor="end" font-size="15">0.237</text><text x="465" y="565" text-anchor="end" font-size="15">1.425</text><text x="575" y="565" text-anchor="end" font-size="15">3.03</text><text x="685" y="565" text-anchor="end" font-size="15">21.873</text><text x="795" y="565" text-anchor="end" font-size="15">13492.028</text>
<text x="64" y="610" font-family="Inter, Arial, sans-serif" font-size="13" fill="#475569">Display window: 0-3 gwei. Within this window: 97.72% of in-block p50 reward values and 89.82% of in-block p90 reward values.</text>
<text x="64" y="680" font-family="Inter, Arial, sans-serif" font-size="13" fill="#475569">Effective fee = block base fee + eth_feeHistory priority reward percentile. This is block-level historical data, not a MetaMask API backfill.</text>
<text x="64" y="704" font-family="Inter, Arial, sans-serif" font-size="13" fill="#475569">Generated at 2026-05-01T02:48:26Z; source: Ethereum JSON-RPC eth_feeHistory. Raw RPC chunks are stored next to this SVG.</text>
</svg>
