<?xml version="1.0" encoding="UTF-8"?>
<svg xmlns="http://www.w3.org/2000/svg" width="1200" height="760" viewBox="0 0 1200 760" role="img" aria-label="Ethereum mainnet gas fee distribution from 2025-11-01 to 2026-05-01">
<rect width="100%" height="100%" fill="#ffffff"/>
<text x="64" y="44" font-family="Inter, Arial, sans-serif" font-size="26" font-weight="700" fill="#0f172a">Ethereum mainnet gas fee distribution</text>
<text x="64" y="72" font-family="Inter, Arial, sans-serif" font-size="14" fill="#475569">2025-11-01 to 2026-05-01; 1,295,600 blocks measured by eth_feeHistory. Values are gwei.</text>
<text x="64" y="100" font-family="Inter, Arial, sans-serif" font-size="17" font-weight="700" fill="#0f172a">Histogram, block-level effective fee</text>
<rect x="64" y="118" width="500" height="250" fill="#f8fafc" stroke="#cbd5e1"/><line x1="64" y1="118" x2="564" y2="118" stroke="#e5e7eb"/>
<line x1="64" y1="180.5" x2="564" y2="180.5" stroke="#e5e7eb"/>
<line x1="64" y1="243" x2="564" y2="243" stroke="#e5e7eb"/>
<line x1="64" y1="305.5" x2="564" y2="305.5" stroke="#e5e7eb"/>
<line x1="64" y1="368" x2="564" y2="368" stroke="#e5e7eb"/><rect x="64.0" y="298.0" width="11.5" height="70.0" fill="#d97706" opacity="0.42"/>
<rect x="64.0" y="118.0" width="11.5" height="250.0" fill="#2563eb" opacity="0.58"/>
<rect x="76.5" y="274.5" width="11.5" height="93.5" fill="#d97706" opacity="0.42"/>
<rect x="76.5" y="355.2" width="11.5" height="12.8" fill="#2563eb" opacity="0.58"/>
<rect x="89.0" y="285.0" width="11.5" height="83.0" fill="#d97706" opacity="0.42"/>
<rect x="89.0" y="362.7" width="11.5" height="5.3" fill="#2563eb" opacity="0.58"/>
<rect x="101.5" y="359.0" width="11.5" height="9.0" fill="#d97706" opacity="0.42"/>
<rect x="101.5" y="365.7" width="11.5" height="2.3" fill="#2563eb" opacity="0.58"/>
<rect x="114.0" y="363.9" width="11.5" height="4.1" fill="#d97706" opacity="0.42"/>
<rect x="114.0" y="367.0" width="11.5" height="1.0" fill="#2563eb" opacity="0.58"/>
<rect x="126.5" y="365.0" width="11.5" height="3.0" fill="#d97706" opacity="0.42"/>
<rect x="126.5" y="367.4" width="11.5" height="0.6" fill="#2563eb" opacity="0.58"/>
<rect x="139.0" y="366.1" width="11.5" height="1.9" fill="#d97706" opacity="0.42"/>
<rect x="139.0" y="367.6" width="11.5" height="0.4" fill="#2563eb" opacity="0.58"/>
<rect x="151.5" y="366.7" width="11.5" height="1.3" fill="#d97706" opacity="0.42"/>
<rect x="151.5" y="367.7" width="11.5" height="0.3" fill="#2563eb" opacity="0.58"/>
<rect x="164.0" y="367.1" width="11.5" height="0.9" fill="#d97706" opacity="0.42"/>
<rect x="164.0" y="367.8" width="11.5" height="0.2" fill="#2563eb" opacity="0.58"/>
<rect x="176.5" y="367.2" width="11.5" height="0.8" fill="#d97706" opacity="0.42"/>
<rect x="176.5" y="367.8" width="11.5" height="0.2" fill="#2563eb" opacity="0.58"/>
<rect x="189.0" y="367.3" width="11.5" height="0.7" fill="#d97706" opacity="0.42"/>
<rect x="189.0" y="367.8" width="11.5" height="0.2" fill="#2563eb" opacity="0.58"/>
<rect x="201.5" y="367.4" width="11.5" height="0.6" fill="#d97706" opacity="0.42"/>
<rect x="201.5" y="367.9" width="11.5" height="0.1" fill="#2563eb" opacity="0.58"/>
<rect x="214.0" y="367.6" width="11.5" height="0.4" fill="#d97706" opacity="0.42"/>
<rect x="214.0" y="367.9" width="11.5" height="0.1" fill="#2563eb" opacity="0.58"/>
<rect x="226.5" y="367.6" width="11.5" height="0.4" fill="#d97706" opacity="0.42"/>
<rect x="226.5" y="367.9" width="11.5" height="0.1" fill="#2563eb" opacity="0.58"/>
<rect x="239.0" y="367.6" width="11.5" height="0.4" fill="#d97706" opacity="0.42"/>
<rect x="239.0" y="367.9" width="11.5" height="0.1" fill="#2563eb" opacity="0.58"/>
<rect x="251.5" y="367.7" width="11.5" height="0.3" fill="#d97706" opacity="0.42"/>
<rect x="251.5" y="367.9" width="11.5" height="0.1" fill="#2563eb" opacity="0.58"/>
<rect x="264.0" y="367.7" width="11.5" height="0.3" fill="#d97706" opacity="0.42"/>
<rect x="264.0" y="368.0" width="11.5" height="0.0" fill="#2563eb" opacity="0.58"/>
<rect x="276.5" y="367.8" width="11.5" height="0.2" fill="#d97706" opacity="0.42"/>
<rect x="276.5" y="368.0" width="11.5" height="0.0" fill="#2563eb" opacity="0.58"/>
<rect x="289.0" y="367.8" width="11.5" height="0.2" fill="#d97706" opacity="0.42"/>
<rect x="289.0" y="368.0" width="11.5" height="0.0" fill="#2563eb" opacity="0.58"/>
<rect x="301.5" y="367.8" width="11.5" height="0.2" fill="#d97706" opacity="0.42"/>
<rect x="301.5" y="368.0" width="11.5" height="0.0" fill="#2563eb" opacity="0.58"/>
<rect x="314.0" y="367.8" width="11.5" height="0.2" fill="#d97706" opacity="0.42"/>
<rect x="314.0" y="368.0" width="11.5" height="0.0" fill="#2563eb" opacity="0.58"/>
<rect x="326.5" y="367.9" width="11.5" height="0.1" fill="#d97706" opacity="0.42"/>
<rect x="326.5" y="368.0" width="11.5" height="0.0" fill="#2563eb" opacity="0.58"/>
<rect x="339.0" y="367.9" width="11.5" height="0.1" fill="#d97706" opacity="0.42"/>
<rect x="339.0" y="368.0" width="11.5" height="0.0" fill="#2563eb" opacity="0.58"/>
<rect x="351.5" y="367.9" width="11.5" height="0.1" fill="#d97706" opacity="0.42"/>
<rect x="351.5" y="368.0" width="11.5" height="0.0" fill="#2563eb" opacity="0.58"/>
<rect x="364.0" y="367.9" width="11.5" height="0.1" fill="#d97706" opacity="0.42"/>
<rect x="364.0" y="368.0" width="11.5" height="0.0" fill="#2563eb" opacity="0.58"/>
<rect x="376.5" y="367.9" width="11.5" height="0.1" fill="#d97706" opacity="0.42"/>
<rect x="376.5" y="368.0" width="11.5" height="0.0" fill="#2563eb" opacity="0.58"/>
<rect x="389.0" y="367.9" width="11.5" height="0.1" fill="#d97706" opacity="0.42"/>
<rect x="389.0" y="368.0" width="11.5" height="0.0" fill="#2563eb" opacity="0.58"/>
<rect x="401.5" y="367.9" width="11.5" height="0.1" fill="#d97706" opacity="0.42"/>
<rect x="401.5" y="368.0" width="11.5" height="0.0" fill="#2563eb" opacity="0.58"/>
<rect x="414.0" y="367.9" width="11.5" height="0.1" fill="#d97706" opacity="0.42"/>
<rect x="414.0" y="368.0" width="11.5" height="0.0" fill="#2563eb" opacity="0.58"/>
<rect x="426.5" y="367.9" width="11.5" height="0.1" fill="#d97706" opacity="0.42"/>
<rect x="426.5" y="368.0" width="11.5" height="0.0" fill="#2563eb" opacity="0.58"/>
<rect x="439.0" y="367.9" width="11.5" height="0.1" fill="#d97706" opacity="0.42"/>
<rect x="439.0" y="368.0" width="11.5" height="0.0" fill="#2563eb" opacity="0.58"/>
<rect x="451.5" y="367.9" width="11.5" height="0.1" fill="#d97706" opacity="0.42"/>
<rect x="451.5" y="368.0" width="11.5" height="0.0" fill="#2563eb" opacity="0.58"/>
<rect x="464.0" y="367.9" width="11.5" height="0.1" fill="#d97706" opacity="0.42"/>
<rect x="464.0" y="368.0" width="11.5" height="0.0" fill="#2563eb" opacity="0.58"/>
<rect x="476.5" y="367.9" width="11.5" height="0.1" fill="#d97706" opacity="0.42"/>
<rect x="476.5" y="368.0" width="11.5" height="0.0" fill="#2563eb" opacity="0.58"/>
<rect x="489.0" y="367.9" width="11.5" height="0.1" fill="#d97706" opacity="0.42"/>
<rect x="489.0" y="368.0" width="11.5" height="0.0" fill="#2563eb" opacity="0.58"/>
<rect x="501.5" y="368.0" width="11.5" height="0.0" fill="#d97706" opacity="0.42"/>
<rect x="501.5" y="368.0" width="11.5" height="0.0" fill="#2563eb" opacity="0.58"/>
<rect x="514.0" y="368.0" width="11.5" height="0.0" fill="#d97706" opacity="0.42"/>
<rect x="514.0" y="368.0" width="11.5" height="0.0" fill="#2563eb" opacity="0.58"/>
<rect x="526.5" y="368.0" width="11.5" height="0.0" fill="#d97706" opacity="0.42"/>
<rect x="526.5" y="368.0" width="11.5" height="0.0" fill="#2563eb" opacity="0.58"/>
<rect x="539.0" y="368.0" width="11.5" height="0.0" fill="#d97706" opacity="0.42"/>
<rect x="539.0" y="368.0" width="11.5" height="0.0" fill="#2563eb" opacity="0.58"/>
<rect x="551.5" y="366.6" width="11.5" height="1.4" fill="#d97706" opacity="0.42"/>
<rect x="551.5" y="367.8" width="11.5" height="0.2" fill="#2563eb" opacity="0.58"/>
<text x="64" y="392" font-family="Inter, Arial, sans-serif" font-size="13" fill="#475569">0</text><text x="564" y="392" font-family="Inter, Arial, sans-serif" font-size="13" fill="#475569" text-anchor="end">40.19 gwei, 99.5% cap</text>
<text x="650" y="100" font-family="Inter, Arial, sans-serif" font-size="17" font-weight="700" fill="#0f172a">CDF, block-level effective fee</text>
<rect x="650" y="118" width="500" height="250" fill="#f8fafc" stroke="#cbd5e1"/><line x1="650" y1="118" x2="1150" y2="118" stroke="#e5e7eb"/>
<line x1="650" y1="180.5" x2="1150" y2="180.5" stroke="#e5e7eb"/>
<line x1="650" y1="243" x2="1150" y2="243" stroke="#e5e7eb"/>
<line x1="650" y1="305.5" x2="1150" y2="305.5" stroke="#e5e7eb"/>
<line x1="650" y1="368" x2="1150" y2="368" stroke="#e5e7eb"/>
<polyline points="650.1,368.0 650.6,365.5 651.0,363.0 651.3,360.5 651.5,358.0 651.6,355.5 651.7,353.0 651.9,350.5 652.2,348.0 652.6,345.5 652.9,343.0 653.4,340.5 654.0,338.0 654.8,335.5 655.9,333.0 656.6,330.5 656.6,328.0 656.8,325.5 656.9,323.0 657.3,320.5 657.9,318.0 658.8,315.5 660.5,313.0 662.3,310.5 662.4,308.0 662.4,305.5 662.8,303.0 662.8,300.5 662.8,298.0 662.9,295.5 662.9,293.0 662.9,290.5 663.0,288.0 663.0,285.5 663.0,283.0 663.1,280.5 663.1,278.0 663.2,275.5 663.3,273.0 663.4,270.5 663.6,268.0 663.7,265.5 663.8,263.0 664.0,260.5 664.2,258.0 664.4,255.5 664.7,253.0 665.2,250.5 665.8,248.0 666.6,245.5 667.7,243.0 668.7,240.5 669.2,238.0 669.7,235.5 670.4,233.0 671.4,230.5 672.5,228.0 674.2,225.5 674.9,223.0 674.9,220.5 675.2,218.0 675.3,215.5 675.3,213.0 675.3,210.5 675.4,208.0 675.4,205.5 675.5,203.0 675.6,200.5 675.6,198.0 675.7,195.5 675.8,193.0 675.9,190.5 676.0,188.0 676.2,185.5 676.3,183.0 676.5,180.5 676.6,178.0 676.8,175.5 677.0,173.0 677.3,170.5 677.6,168.0 677.9,165.5 678.3,163.0 678.8,160.5 679.3,158.0 680.0,155.5 680.9,153.0 682.1,150.5 683.7,148.0 685.8,145.5 687.7,143.0 689.8,140.5 693.4,138.0 699.0,135.5 706.9,133.0 715.2,130.5 728.5,128.0 751.8,125.5 799.3,123.0 922.1,120.5 1150.0,118.0" fill="none" stroke="#d97706" stroke-width="2.2"/>
<polyline points="650.1,368.0 650.3,365.5 650.3,363.0 650.4,360.5 650.4,358.0 650.4,355.5 650.4,353.0 650.4,350.5 650.4,348.0 650.4,345.5 650.4,343.0 650.5,340.5 650.5,338.0 650.5,335.5 650.5,333.0 650.5,330.5 650.5,328.0 650.5,325.5 650.5,323.0 650.5,320.5 650.5,318.0 650.6,315.5 650.6,313.0 650.6,310.5 650.6,308.0 650.6,305.5 650.6,303.0 650.6,300.5 650.7,298.0 650.7,295.5 650.7,293.0 650.7,290.5 650.7,288.0 650.7,285.5 650.8,283.0 650.8,280.5 650.8,278.0 650.8,275.5 650.9,273.0 650.9,270.5 650.9,268.0 651.0,265.5 651.0,263.0 651.0,260.5 651.1,258.0 651.1,255.5 651.2,253.0 651.2,250.5 651.2,248.0 651.3,245.5 651.3,243.0 651.4,240.5 651.4,238.0 651.4,235.5 651.5,233.0 651.5,230.5 651.6,228.0 651.6,225.5 651.7,223.0 651.7,220.5 651.8,218.0 651.8,215.5 651.9,213.0 651.9,210.5 652.0,208.0 652.1,205.5 652.2,203.0 652.2,200.5 652.3,198.0 652.4,195.5 652.5,193.0 652.6,190.5 652.8,188.0 652.9,185.5 653.1,183.0 653.2,180.5 653.4,178.0 653.6,175.5 653.9,173.0 654.1,170.5 654.4,168.0 654.7,165.5 655.0,163.0 655.4,160.5 655.9,158.0 656.5,155.5 657.0,153.0 657.7,150.5 658.6,148.0 659.7,145.5 661.0,143.0 662.4,140.5 663.5,138.0 665.3,135.5 667.8,133.0 671.3,130.5 675.6,128.0 681.2,125.5 690.4,123.0 714.6,120.5 1150.0,118.0" fill="none" stroke="#2563eb" stroke-width="2.2"/>
<text x="650" y="392" font-family="Inter, Arial, sans-serif" font-size="13" fill="#475569">0</text><text x="1150" y="392" font-family="Inter, Arial, sans-serif" font-size="13" fill="#475569" text-anchor="end">40.19 gwei</text>
<circle cx="76" cy="405" r="5" fill="#2563eb"/><text x="88" y="410" font-family="Inter, Arial, sans-serif" font-size="13" fill="#334155">p50 transaction effective fee</text><circle cx="314" cy="405" r="5" fill="#d97706"/><text x="326" y="410" font-family="Inter, Arial, sans-serif" font-size="13" fill="#334155">p90 transaction effective fee</text>
<text x="64" y="455" font-family="Inter, Arial, sans-serif" font-size="17" font-weight="700" fill="#0f172a">Six-month quantiles</text><text x="355" y="455" text-anchor="end" font-size="13" fill="#475569">p10</text><text x="465" y="455" text-anchor="end" font-size="13" fill="#475569">p50</text><text x="575" y="455" text-anchor="end" font-size="13" fill="#475569">p90</text><text x="685" y="455" text-anchor="end" font-size="13" fill="#475569">p99</text><text x="795" y="455" text-anchor="end" font-size="13" fill="#475569">max</text><line x1="64" y1="469" x2="820" y2="469" stroke="#cbd5e1"/><text x="64" y="497" font-size="15" fill="#111827">Base fee</text><text x="355" y="497" text-anchor="end" font-size="15">0.032</text><text x="465" y="497" text-anchor="end" font-size="15">0.08</text><text x="575" y="497" text-anchor="end" font-size="15">0.51</text><text x="685" y="497" text-anchor="end" font-size="15">3.445</text><text x="795" y="497" text-anchor="end" font-size="15">97.679</text>
<text x="64" y="531" font-size="15" fill="#111827">Effective fee, p50 tx</text><text x="355" y="531" text-anchor="end" font-size="15">0.035</text><text x="465" y="531" text-anchor="end" font-size="15">0.106</text><text x="575" y="531" text-anchor="end" font-size="15">0.886</text><text x="685" y="531" text-anchor="end" font-size="15">5.19</text><text x="795" y="531" text-anchor="end" font-size="15">13492.028</text>
<text x="64" y="565" font-size="15" fill="#111827">Effective fee, p90 tx</text><text x="355" y="565" text-anchor="end" font-size="15">0.237</text><text x="465" y="565" text-anchor="end" font-size="15">1.425</text><text x="575" y="565" text-anchor="end" font-size="15">3.03</text><text x="685" y="565" text-anchor="end" font-size="15">21.873</text><text x="795" y="565" text-anchor="end" font-size="15">13492.028</text>
<text x="64" y="680" font-family="Inter, Arial, sans-serif" font-size="13" fill="#475569">Effective fee = block base fee + eth_feeHistory priority reward percentile. This is block-level historical data, not a MetaMask API backfill.</text>
<text x="64" y="704" font-family="Inter, Arial, sans-serif" font-size="13" fill="#475569">Generated at 2026-05-01T02:48:26Z; source: Ethereum JSON-RPC eth_feeHistory.</text>
</svg>
