<svg xmlns="http://www.w3.org/2000/svg" width="900" height="560" viewBox="0 0 900 560">
<rect width="100%" height="100%" fill="white"/>
<style>text{font-family:Arial,sans-serif;fill:#222} .small{font-size:12px} .axis{font-size:14px} .title{font-size:20px;font-weight:bold} .legend{font-size:13px}</style>
<text x="450.0" y="28" text-anchor="middle" class="title">Future Nullifier Collision Probability vs Time</text>
<line x1="90" y1="50.00" x2="870" y2="50.00" stroke="#d0d0d0" stroke-dasharray="4 4"/>
<text x="80" y="54.00" text-anchor="end" class="small">1</text>
<line x1="90" y1="105.00" x2="870" y2="105.00" stroke="#d0d0d0" stroke-dasharray="4 4"/>
<text x="80" y="109.00" text-anchor="end" class="small">1e-1</text>
<line x1="90" y1="160.00" x2="870" y2="160.00" stroke="#d0d0d0" stroke-dasharray="4 4"/>
<text x="80" y="164.00" text-anchor="end" class="small">1e-2</text>
<line x1="90" y1="215.00" x2="870" y2="215.00" stroke="#d0d0d0" stroke-dasharray="4 4"/>
<text x="80" y="219.00" text-anchor="end" class="small">1e-3</text>
<line x1="90" y1="270.00" x2="870" y2="270.00" stroke="#d0d0d0" stroke-dasharray="4 4"/>
<text x="80" y="274.00" text-anchor="end" class="small">1e-4</text>
<line x1="90" y1="325.00" x2="870" y2="325.00" stroke="#d0d0d0" stroke-dasharray="4 4"/>
<text x="80" y="329.00" text-anchor="end" class="small">1e-5</text>
<line x1="90" y1="380.00" x2="870" y2="380.00" stroke="#d0d0d0" stroke-dasharray="4 4"/>
<text x="80" y="384.00" text-anchor="end" class="small">1e-6</text>
<line x1="90" y1="435.00" x2="870" y2="435.00" stroke="#d0d0d0" stroke-dasharray="4 4"/>
<text x="80" y="439.00" text-anchor="end" class="small">1e-7</text>
<line x1="90" y1="490.00" x2="870" y2="490.00" stroke="#d0d0d0" stroke-dasharray="4 4"/>
<text x="80" y="494.00" text-anchor="end" class="small">1e-8</text>
<line x1="90.00" y1="50" x2="90.00" y2="490" stroke="#e0e0e0" stroke-dasharray="4 4"/>
<text x="90.00" y="512" text-anchor="middle" class="small">0</text>
<line x1="220.00" y1="50" x2="220.00" y2="490" stroke="#e0e0e0" stroke-dasharray="4 4"/>
<text x="220.00" y="512" text-anchor="middle" class="small">5</text>
<line x1="350.00" y1="50" x2="350.00" y2="490" stroke="#e0e0e0" stroke-dasharray="4 4"/>
<text x="350.00" y="512" text-anchor="middle" class="small">10</text>
<line x1="480.00" y1="50" x2="480.00" y2="490" stroke="#e0e0e0" stroke-dasharray="4 4"/>
<text x="480.00" y="512" text-anchor="middle" class="small">15</text>
<line x1="610.00" y1="50" x2="610.00" y2="490" stroke="#e0e0e0" stroke-dasharray="4 4"/>
<text x="610.00" y="512" text-anchor="middle" class="small">20</text>
<line x1="740.00" y1="50" x2="740.00" y2="490" stroke="#e0e0e0" stroke-dasharray="4 4"/>
<text x="740.00" y="512" text-anchor="middle" class="small">25</text>
<line x1="870.00" y1="50" x2="870.00" y2="490" stroke="#e0e0e0" stroke-dasharray="4 4"/>
<text x="870.00" y="512" text-anchor="middle" class="small">30</text>
<line x1="90" y1="490" x2="870" y2="490" stroke="#222" stroke-width="1.5"/>
<line x1="90" y1="50" x2="90" y2="490" stroke="#222" stroke-width="1.5"/>
<text x="450.0" y="540" text-anchor="middle" class="axis">t (days)</text>
<text x="20" y="280.0" transform="rotate(-90 20 280.0)" text-anchor="middle" class="axis">Future nullifier collision probability</text>
<polyline fill="none" stroke="#c0392b" stroke-width="2.5" points="90.00,490.00 91.30,156.35 92.60,139.93 93.90,130.39 95.20,123.66 96.50,118.46 97.80,114.25 99.10,110.70 100.40,107.65 101.70,104.98 103.00,102.60 104.30,100.46 105.60,98.52 106.90,96.74 108.20,95.11 109.50,93.60 110.80,92.19 112.10,90.88 113.40,89.65 114.70,88.49 116.00,87.40 117.30,86.37 118.60,85.39 119.90,84.46 121.20,83.58 122.50,82.74 123.80,81.93 125.10,81.17 126.40,80.43 127.70,79.72 129.00,79.05 130.30,78.39 131.60,77.77 132.90,77.16 134.20,76.58 135.50,76.02 136.80,75.48 138.10,74.95 139.40,74.44 140.70,73.95 142.00,73.48 143.30,73.02 144.60,72.57 145.90,72.14 147.20,71.72 148.50,71.31 149.80,70.91 151.10,70.52 152.40,70.15 153.70,69.78 155.00,69.43 156.30,69.08 157.60,68.74 158.90,68.41 160.20,68.09 161.50,67.78 162.80,67.47 164.10,67.17 165.40,66.88 166.70,66.60 168.00,66.32 169.30,66.05 170.60,65.78 171.90,65.53 173.20,65.27 174.50,65.02 175.80,64.78 177.10,64.54 178.40,64.31 179.70,64.08 181.00,63.86 182.30,63.64 183.60,63.43 184.90,63.22 186.20,63.02 187.50,62.82 188.80,62.62 190.10,62.43 191.40,62.24 192.70,62.05 194.00,61.87 195.30,61.69 196.60,61.52 197.90,61.34 199.20,61.18 200.50,61.01 201.80,60.85 203.10,60.69 204.40,60.53 205.70,60.38 207.00,60.23 208.30,60.08 209.60,59.93 210.90,59.79 212.20,59.65 213.50,59.51 214.80,59.38 216.10,59.24 217.40,59.11 218.70,58.98 220.00,58.86 221.30,58.73 222.60,58.61 223.90,58.49 225.20,58.37 226.50,58.25 227.80,58.14 229.10,58.03 230.40,57.92 231.70,57.81 233.00,57.70 234.30,57.59 235.60,57.49 236.90,57.39 238.20,57.29 239.50,57.19 240.80,57.09 242.10,56.99 243.40,56.90 244.70,56.81 246.00,56.71 247.30,56.62 248.60,56.54 249.90,56.45 251.20,56.36 252.50,56.28 253.80,56.19 255.10,56.11 256.40,56.03 257.70,55.95 259.00,55.87 260.30,55.80 261.60,55.72 262.90,55.64 264.20,55.57 265.50,55.50 266.80,55.42 268.10,55.35 269.40,55.28 270.70,55.22 272.00,55.15 273.30,55.08 274.60,55.01 275.90,54.95 277.20,54.89 278.50,54.82 279.80,54.76 281.10,54.70 282.40,54.64 283.70,54.58 285.00,54.52 286.30,54.46 287.60,54.41 288.90,54.35 290.20,54.29 291.50,54.24 292.80,54.18 294.10,54.13 295.40,54.08 296.70,54.03 298.00,53.98 299.30,53.93 300.60,53.88 301.90,53.83 303.20,53.78 304.50,53.73 305.80,53.68 307.10,53.64 308.40,53.59 309.70,53.55 311.00,53.50 312.30,53.46 313.60,53.42 314.90,53.37 316.20,53.33 317.50,53.29 318.80,53.25 320.10,53.21 321.40,53.17 322.70,53.13 324.00,53.09 325.30,53.05 326.60,53.01 327.90,52.98 329.20,52.94 330.50,52.90 331.80,52.87 333.10,52.83 334.40,52.80 335.70,52.76 337.00,52.73 338.30,52.69 339.60,52.66 340.90,52.63 342.20,52.60 343.50,52.56 344.80,52.53 346.10,52.50 347.40,52.47 348.70,52.44 350.00,52.41 351.30,52.38 352.60,52.35 353.90,52.32 355.20,52.29 356.50,52.27 357.80,52.24 359.10,52.21 360.40,52.18 361.70,52.16 363.00,52.13 364.30,52.11 365.60,52.08 366.90,52.05 368.20,52.03 369.50,52.00 370.80,51.98 372.10,51.96 373.40,51.93 374.70,51.91 376.00,51.89 377.30,51.86 378.60,51.84 379.90,51.82 381.20,51.80 382.50,51.77 383.80,51.75 385.10,51.73 386.40,51.71 387.70,51.69 389.00,51.67 390.30,51.65 391.60,51.63 392.90,51.61 394.20,51.59 395.50,51.57 396.80,51.55 398.10,51.53 399.40,51.52 400.70,51.50 402.00,51.48 403.30,51.46 404.60,51.44 405.90,51.43 407.20,51.41 408.50,51.39 409.80,51.38 411.10,51.36 412.40,51.34 413.70,51.33 415.00,51.31 416.30,51.30 417.60,51.28 418.90,51.26 420.20,51.25 421.50,51.23 422.80,51.22 424.10,51.21 425.40,51.19 426.70,51.18 428.00,51.16 429.30,51.15 430.60,51.14 431.90,51.12 433.20,51.11 434.50,51.09 435.80,51.08 437.10,51.07 438.40,51.06 439.70,51.04 441.00,51.03 442.30,51.02 443.60,51.01 444.90,50.99 446.20,50.98 447.50,50.97 448.80,50.96 450.10,50.95 451.40,50.94 452.70,50.93 454.00,50.91 455.30,50.90 456.60,50.89 457.90,50.88 459.20,50.87 460.50,50.86 461.80,50.85 463.10,50.84 464.40,50.83 465.70,50.82 467.00,50.81 468.30,50.80 469.60,50.79 470.90,50.78 472.20,50.77 473.50,50.77 474.80,50.76 476.10,50.75 477.40,50.74 478.70,50.73 480.00,50.72 481.30,50.71 482.60,50.70 483.90,50.70 485.20,50.69 486.50,50.68 487.80,50.67 489.10,50.66 490.40,50.66 491.70,50.65 493.00,50.64 494.30,50.63 495.60,50.63 496.90,50.62 498.20,50.61 499.50,50.60 500.80,50.60 502.10,50.59 503.40,50.58 504.70,50.58 506.00,50.57 507.30,50.56 508.60,50.56 509.90,50.55 511.20,50.54 512.50,50.54 513.80,50.53 515.10,50.52 516.40,50.52 517.70,50.51 519.00,50.50 520.30,50.50 521.60,50.49 522.90,50.49 524.20,50.48 525.50,50.48 526.80,50.47 528.10,50.46 529.40,50.46 530.70,50.45 532.00,50.45 533.30,50.44 534.60,50.44 535.90,50.43 537.20,50.43 538.50,50.42 539.80,50.42 541.10,50.41 542.40,50.41 543.70,50.40 545.00,50.40 546.30,50.39 547.60,50.39 548.90,50.38 550.20,50.38 551.50,50.38 552.80,50.37 554.10,50.37 555.40,50.36 556.70,50.36 558.00,50.35 559.30,50.35 560.60,50.35 561.90,50.34 563.20,50.34 564.50,50.33 565.80,50.33 567.10,50.33 568.40,50.32 569.70,50.32 571.00,50.31 572.30,50.31 573.60,50.31 574.90,50.30 576.20,50.30 577.50,50.30 578.80,50.29 580.10,50.29 581.40,50.29 582.70,50.28 584.00,50.28 585.30,50.28 586.60,50.27 587.90,50.27 589.20,50.27 590.50,50.26 591.80,50.26 593.10,50.26 594.40,50.25 595.70,50.25 597.00,50.25 598.30,50.25 599.60,50.24 600.90,50.24 602.20,50.24 603.50,50.23 604.80,50.23 606.10,50.23 607.40,50.23 608.70,50.22 610.00,50.22 611.30,50.22 612.60,50.22 613.90,50.21 615.20,50.21 616.50,50.21 617.80,50.21 619.10,50.20 620.40,50.20 621.70,50.20 623.00,50.20 624.30,50.19 625.60,50.19 626.90,50.19 628.20,50.19 629.50,50.19 630.80,50.18 632.10,50.18 633.40,50.18 634.70,50.18 636.00,50.17 637.30,50.17 638.60,50.17 639.90,50.17 641.20,50.17 642.50,50.16 643.80,50.16 645.10,50.16 646.40,50.16 647.70,50.16 649.00,50.16 650.30,50.15 651.60,50.15 652.90,50.15 654.20,50.15 655.50,50.15 656.80,50.14 658.10,50.14 659.40,50.14 660.70,50.14 662.00,50.14 663.30,50.14 664.60,50.13 665.90,50.13 667.20,50.13 668.50,50.13 669.80,50.13 671.10,50.13 672.40,50.13 673.70,50.12 675.00,50.12 676.30,50.12 677.60,50.12 678.90,50.12 680.20,50.12 681.50,50.12 682.80,50.11 684.10,50.11 685.40,50.11 686.70,50.11 688.00,50.11 689.30,50.11 690.60,50.11 691.90,50.11 693.20,50.10 694.50,50.10 695.80,50.10 697.10,50.10 698.40,50.10 699.70,50.10 701.00,50.10 702.30,50.10 703.60,50.09 704.90,50.09 706.20,50.09 707.50,50.09 708.80,50.09 710.10,50.09 711.40,50.09 712.70,50.09 714.00,50.09 715.30,50.09 716.60,50.08 717.90,50.08 719.20,50.08 720.50,50.08 721.80,50.08 723.10,50.08 724.40,50.08 725.70,50.08 727.00,50.08 728.30,50.08 729.60,50.07 730.90,50.07 732.20,50.07 733.50,50.07 734.80,50.07 736.10,50.07 737.40,50.07 738.70,50.07 740.00,50.07 741.30,50.07 742.60,50.07 743.90,50.07 745.20,50.07 746.50,50.06 747.80,50.06 749.10,50.06 750.40,50.06 751.70,50.06 753.00,50.06 754.30,50.06 755.60,50.06 756.90,50.06 758.20,50.06 759.50,50.06 760.80,50.06 762.10,50.06 763.40,50.06 764.70,50.05 766.00,50.05 767.30,50.05 768.60,50.05 769.90,50.05 771.20,50.05 772.50,50.05 773.80,50.05 775.10,50.05 776.40,50.05 777.70,50.05 779.00,50.05 780.30,50.05 781.60,50.05 782.90,50.05 784.20,50.05 785.50,50.05 786.80,50.04 788.10,50.04 789.40,50.04 790.70,50.04 792.00,50.04 793.30,50.04 794.60,50.04 795.90,50.04 797.20,50.04 798.50,50.04 799.80,50.04 801.10,50.04 802.40,50.04 803.70,50.04 805.00,50.04 806.30,50.04 807.60,50.04 808.90,50.04 810.20,50.04 811.50,50.04 812.80,50.04 814.10,50.03 815.40,50.03 816.70,50.03 818.00,50.03 819.30,50.03 820.60,50.03 821.90,50.03 823.20,50.03 824.50,50.03 825.80,50.03 827.10,50.03 828.40,50.03 829.70,50.03 831.00,50.03 832.30,50.03 833.60,50.03 834.90,50.03 836.20,50.03 837.50,50.03 838.80,50.03 840.10,50.03 841.40,50.03 842.70,50.03 844.00,50.03 845.30,50.03 846.60,50.03 847.90,50.03 849.20,50.03 850.50,50.03 851.80,50.02 853.10,50.02 854.40,50.02 855.70,50.02 857.00,50.02 858.30,50.02 859.60,50.02 860.90,50.02 862.20,50.02 863.50,50.02 864.80,50.02 866.10,50.02 867.40,50.02 868.70,50.02 870.00,50.02"/>
<polyline fill="none" stroke="#d68910" stroke-width="2.5" points="90.00,490.00 91.30,255.55 92.60,239.00 93.90,229.32 95.20,222.45 96.50,217.12 97.80,212.77 99.10,209.09 100.40,205.90 101.70,203.09 103.00,200.57 104.30,198.30 105.60,196.22 106.90,194.31 108.20,192.54 109.50,190.90 110.80,189.36 112.10,187.91 113.40,186.55 114.70,185.26 116.00,184.04 117.30,182.88 118.60,181.77 119.90,180.71 121.20,179.69 122.50,178.72 123.80,177.78 125.10,176.89 126.40,176.02 127.70,175.18 129.00,174.38 130.30,173.59 131.60,172.84 132.90,172.11 134.20,171.39 135.50,170.70 136.80,170.03 138.10,169.38 139.40,168.75 140.70,168.13 142.00,167.53 143.30,166.94 144.60,166.36 145.90,165.80 147.20,165.26 148.50,164.72 149.80,164.20 151.10,163.69 152.40,163.19 153.70,162.70 155.00,162.22 156.30,161.75 157.60,161.28 158.90,160.83 160.20,160.39 161.50,159.95 162.80,159.52 164.10,159.10 165.40,158.69 166.70,158.28 168.00,157.88 169.30,157.49 170.60,157.11 171.90,156.73 173.20,156.35 174.50,155.98 175.80,155.62 177.10,155.26 178.40,154.91 179.70,154.57 181.00,154.22 182.30,153.89 183.60,153.56 184.90,153.23 186.20,152.91 187.50,152.59 188.80,152.27 190.10,151.96 191.40,151.66 192.70,151.35 194.00,151.06 195.30,150.76 196.60,150.47 197.90,150.18 199.20,149.90 200.50,149.62 201.80,149.34 203.10,149.07 204.40,148.80 205.70,148.53 207.00,148.26 208.30,148.00 209.60,147.74 210.90,147.49 212.20,147.23 213.50,146.98 214.80,146.74 216.10,146.49 217.40,146.25 218.70,146.01 220.00,145.77 221.30,145.53 222.60,145.30 223.90,145.07 225.20,144.84 226.50,144.62 227.80,144.39 229.10,144.17 230.40,143.95 231.70,143.73 233.00,143.51 234.30,143.30 235.60,143.09 236.90,142.88 238.20,142.67 239.50,142.46 240.80,142.26 242.10,142.06 243.40,141.86 244.70,141.66 246.00,141.46 247.30,141.26 248.60,141.07 249.90,140.88 251.20,140.68 252.50,140.49 253.80,140.31 255.10,140.12 256.40,139.93 257.70,139.75 259.00,139.57 260.30,139.39 261.60,139.21 262.90,139.03 264.20,138.85 265.50,138.68 266.80,138.50 268.10,138.33 269.40,138.16 270.70,137.99 272.00,137.82 273.30,137.65 274.60,137.49 275.90,137.32 277.20,137.16 278.50,136.99 279.80,136.83 281.10,136.67 282.40,136.51 283.70,136.35 285.00,136.19 286.30,136.04 287.60,135.88 288.90,135.73 290.20,135.57 291.50,135.42 292.80,135.27 294.10,135.12 295.40,134.97 296.70,134.82 298.00,134.67 299.30,134.53 300.60,134.38 301.90,134.24 303.20,134.09 304.50,133.95 305.80,133.81 307.10,133.67 308.40,133.53 309.70,133.39 311.00,133.25 312.30,133.11 313.60,132.97 314.90,132.84 316.20,132.70 317.50,132.57 318.80,132.43 320.10,132.30 321.40,132.17 322.70,132.03 324.00,131.90 325.30,131.77 326.60,131.64 327.90,131.52 329.20,131.39 330.50,131.26 331.80,131.13 333.10,131.01 334.40,130.88 335.70,130.76 337.00,130.63 338.30,130.51 339.60,130.39 340.90,130.27 342.20,130.15 343.50,130.02 344.80,129.90 346.10,129.79 347.40,129.67 348.70,129.55 350.00,129.43 351.30,129.31 352.60,129.20 353.90,129.08 355.20,128.97 356.50,128.85 357.80,128.74 359.10,128.62 360.40,128.51 361.70,128.40 363.00,128.29 364.30,128.18 365.60,128.07 366.90,127.95 368.20,127.85 369.50,127.74 370.80,127.63 372.10,127.52 373.40,127.41 374.70,127.30 376.00,127.20 377.30,127.09 378.60,126.99 379.90,126.88 381.20,126.78 382.50,126.67 383.80,126.57 385.10,126.46 386.40,126.36 387.70,126.26 389.00,126.16 390.30,126.06 391.60,125.96 392.90,125.85 394.20,125.75 395.50,125.65 396.80,125.56 398.10,125.46 399.40,125.36 400.70,125.26 402.00,125.16 403.30,125.07 404.60,124.97 405.90,124.87 407.20,124.78 408.50,124.68 409.80,124.59 411.10,124.49 412.40,124.40 413.70,124.30 415.00,124.21 416.30,124.12 417.60,124.02 418.90,123.93 420.20,123.84 421.50,123.75 422.80,123.66 424.10,123.56 425.40,123.47 426.70,123.38 428.00,123.29 429.30,123.20 430.60,123.12 431.90,123.03 433.20,122.94 434.50,122.85 435.80,122.76 437.10,122.67 438.40,122.59 439.70,122.50 441.00,122.41 442.30,122.33 443.60,122.24 444.90,122.16 446.20,122.07 447.50,121.99 448.80,121.90 450.10,121.82 451.40,121.73 452.70,121.65 454.00,121.57 455.30,121.48 456.60,121.40 457.90,121.32 459.20,121.24 460.50,121.16 461.80,121.07 463.10,120.99 464.40,120.91 465.70,120.83 467.00,120.75 468.30,120.67 469.60,120.59 470.90,120.51 472.20,120.43 473.50,120.35 474.80,120.27 476.10,120.20 477.40,120.12 478.70,120.04 480.00,119.96 481.30,119.89 482.60,119.81 483.90,119.73 485.20,119.66 486.50,119.58 487.80,119.50 489.10,119.43 490.40,119.35 491.70,119.28 493.00,119.20 494.30,119.13 495.60,119.05 496.90,118.98 498.20,118.90 499.50,118.83 500.80,118.76 502.10,118.68 503.40,118.61 504.70,118.54 506.00,118.46 507.30,118.39 508.60,118.32 509.90,118.25 511.20,118.18 512.50,118.11 513.80,118.03 515.10,117.96 516.40,117.89 517.70,117.82 519.00,117.75 520.30,117.68 521.60,117.61 522.90,117.54 524.20,117.47 525.50,117.40 526.80,117.33 528.10,117.26 529.40,117.20 530.70,117.13 532.00,117.06 533.30,116.99 534.60,116.92 535.90,116.86 537.20,116.79 538.50,116.72 539.80,116.65 541.10,116.59 542.40,116.52 543.70,116.46 545.00,116.39 546.30,116.32 547.60,116.26 548.90,116.19 550.20,116.13 551.50,116.06 552.80,116.00 554.10,115.93 555.40,115.87 556.70,115.80 558.00,115.74 559.30,115.67 560.60,115.61 561.90,115.55 563.20,115.48 564.50,115.42 565.80,115.36 567.10,115.29 568.40,115.23 569.70,115.17 571.00,115.10 572.30,115.04 573.60,114.98 574.90,114.92 576.20,114.86 577.50,114.80 578.80,114.73 580.10,114.67 581.40,114.61 582.70,114.55 584.00,114.49 585.30,114.43 586.60,114.37 587.90,114.31 589.20,114.25 590.50,114.19 591.80,114.13 593.10,114.07 594.40,114.01 595.70,113.95 597.00,113.89 598.30,113.83 599.60,113.77 600.90,113.71 602.20,113.66 603.50,113.60 604.80,113.54 606.10,113.48 607.40,113.42 608.70,113.37 610.00,113.31 611.30,113.25 612.60,113.19 613.90,113.14 615.20,113.08 616.50,113.02 617.80,112.96 619.10,112.91 620.40,112.85 621.70,112.80 623.00,112.74 624.30,112.68 625.60,112.63 626.90,112.57 628.20,112.52 629.50,112.46 630.80,112.41 632.10,112.35 633.40,112.30 634.70,112.24 636.00,112.19 637.30,112.13 638.60,112.08 639.90,112.02 641.20,111.97 642.50,111.91 643.80,111.86 645.10,111.81 646.40,111.75 647.70,111.70 649.00,111.64 650.30,111.59 651.60,111.54 652.90,111.49 654.20,111.43 655.50,111.38 656.80,111.33 658.10,111.27 659.40,111.22 660.70,111.17 662.00,111.12 663.30,111.07 664.60,111.01 665.90,110.96 667.20,110.91 668.50,110.86 669.80,110.81 671.10,110.76 672.40,110.70 673.70,110.65 675.00,110.60 676.30,110.55 677.60,110.50 678.90,110.45 680.20,110.40 681.50,110.35 682.80,110.30 684.10,110.25 685.40,110.20 686.70,110.15 688.00,110.10 689.30,110.05 690.60,110.00 691.90,109.95 693.20,109.90 694.50,109.85 695.80,109.80 697.10,109.75 698.40,109.70 699.70,109.66 701.00,109.61 702.30,109.56 703.60,109.51 704.90,109.46 706.20,109.41 707.50,109.36 708.80,109.32 710.10,109.27 711.40,109.22 712.70,109.17 714.00,109.13 715.30,109.08 716.60,109.03 717.90,108.98 719.20,108.94 720.50,108.89 721.80,108.84 723.10,108.79 724.40,108.75 725.70,108.70 727.00,108.65 728.30,108.61 729.60,108.56 730.90,108.51 732.20,108.47 733.50,108.42 734.80,108.38 736.10,108.33 737.40,108.28 738.70,108.24 740.00,108.19 741.30,108.15 742.60,108.10 743.90,108.06 745.20,108.01 746.50,107.97 747.80,107.92 749.10,107.88 750.40,107.83 751.70,107.79 753.00,107.74 754.30,107.70 755.60,107.65 756.90,107.61 758.20,107.56 759.50,107.52 760.80,107.48 762.10,107.43 763.40,107.39 764.70,107.34 766.00,107.30 767.30,107.26 768.60,107.21 769.90,107.17 771.20,107.12 772.50,107.08 773.80,107.04 775.10,107.00 776.40,106.95 777.70,106.91 779.00,106.87 780.30,106.82 781.60,106.78 782.90,106.74 784.20,106.69 785.50,106.65 786.80,106.61 788.10,106.57 789.40,106.53 790.70,106.48 792.00,106.44 793.30,106.40 794.60,106.36 795.90,106.32 797.20,106.27 798.50,106.23 799.80,106.19 801.10,106.15 802.40,106.11 803.70,106.07 805.00,106.02 806.30,105.98 807.60,105.94 808.90,105.90 810.20,105.86 811.50,105.82 812.80,105.78 814.10,105.74 815.40,105.70 816.70,105.66 818.00,105.62 819.30,105.57 820.60,105.53 821.90,105.49 823.20,105.45 824.50,105.41 825.80,105.37 827.10,105.33 828.40,105.29 829.70,105.25 831.00,105.21 832.30,105.17 833.60,105.13 834.90,105.10 836.20,105.06 837.50,105.02 838.80,104.98 840.10,104.94 841.40,104.90 842.70,104.86 844.00,104.82 845.30,104.78 846.60,104.74 847.90,104.70 849.20,104.66 850.50,104.63 851.80,104.59 853.10,104.55 854.40,104.51 855.70,104.47 857.00,104.43 858.30,104.39 859.60,104.36 860.90,104.32 862.20,104.28 863.50,104.24 864.80,104.20 866.10,104.17 867.40,104.13 868.70,104.09 870.00,104.05"/>
<polyline fill="none" stroke="#1e8449" stroke-width="2.5" points="90.00,490.00 91.30,354.89 92.60,338.33 93.90,328.65 95.20,321.78 96.50,316.45 97.80,312.09 99.10,308.41 100.40,305.22 101.70,302.41 103.00,299.89 104.30,297.62 105.60,295.54 106.90,293.62 108.20,291.85 109.50,290.21 110.80,288.67 112.10,287.22 113.40,285.85 114.70,284.56 116.00,283.34 117.30,282.17 118.60,281.06 119.90,280.00 121.20,278.98 122.50,278.01 123.80,277.07 125.10,276.17 126.40,275.30 127.70,274.46 129.00,273.65 130.30,272.87 131.60,272.11 132.90,271.37 134.20,270.66 135.50,269.97 136.80,269.30 138.10,268.64 139.40,268.00 140.70,267.38 142.00,266.78 143.30,266.19 144.60,265.61 145.90,265.05 147.20,264.50 148.50,263.97 149.80,263.44 151.10,262.93 152.40,262.42 153.70,261.93 155.00,261.45 156.30,260.98 157.60,260.51 158.90,260.06 160.20,259.61 161.50,259.17 162.80,258.74 164.10,258.32 165.40,257.90 166.70,257.50 168.00,257.10 169.30,256.70 170.60,256.31 171.90,255.93 173.20,255.55 174.50,255.18 175.80,254.82 177.10,254.46 178.40,254.11 179.70,253.76 181.00,253.41 182.30,253.07 183.60,252.74 184.90,252.41 186.20,252.09 187.50,251.77 188.80,251.45 190.10,251.14 191.40,250.83 192.70,250.52 194.00,250.22 195.30,249.93 196.60,249.63 197.90,249.34 199.20,249.06 200.50,248.78 201.80,248.50 203.10,248.22 204.40,247.95 205.70,247.68 207.00,247.41 208.30,247.15 209.60,246.89 210.90,246.63 212.20,246.37 213.50,246.12 214.80,245.87 216.10,245.62 217.40,245.38 218.70,245.13 220.00,244.89 221.30,244.66 222.60,244.42 223.90,244.19 225.20,243.96 226.50,243.73 227.80,243.50 229.10,243.28 230.40,243.06 231.70,242.84 233.00,242.62 234.30,242.40 235.60,242.19 236.90,241.98 238.20,241.77 239.50,241.56 240.80,241.35 242.10,241.15 243.40,240.94 244.70,240.74 246.00,240.54 247.30,240.34 248.60,240.15 249.90,239.95 251.20,239.76 252.50,239.57 253.80,239.38 255.10,239.19 256.40,239.00 257.70,238.81 259.00,238.63 260.30,238.45 261.60,238.26 262.90,238.08 264.20,237.91 265.50,237.73 266.80,237.55 268.10,237.38 269.40,237.20 270.70,237.03 272.00,236.86 273.30,236.69 274.60,236.52 275.90,236.35 277.20,236.19 278.50,236.02 279.80,235.86 281.10,235.69 282.40,235.53 283.70,235.37 285.00,235.21 286.30,235.05 287.60,234.90 288.90,234.74 290.20,234.58 291.50,234.43 292.80,234.27 294.10,234.12 295.40,233.97 296.70,233.82 298.00,233.67 299.30,233.52 300.60,233.37 301.90,233.23 303.20,233.08 304.50,232.94 305.80,232.79 307.10,232.65 308.40,232.51 309.70,232.36 311.00,232.22 312.30,232.08 313.60,231.94 314.90,231.80 316.20,231.67 317.50,231.53 318.80,231.39 320.10,231.26 321.40,231.12 322.70,230.99 324.00,230.86 325.30,230.73 326.60,230.59 327.90,230.46 329.20,230.33 330.50,230.20 331.80,230.07 333.10,229.95 334.40,229.82 335.70,229.69 337.00,229.57 338.30,229.44 339.60,229.32 340.90,229.19 342.20,229.07 343.50,228.95 344.80,228.82 346.10,228.70 347.40,228.58 348.70,228.46 350.00,228.34 351.30,228.22 352.60,228.10 353.90,227.99 355.20,227.87 356.50,227.75 357.80,227.64 359.10,227.52 360.40,227.40 361.70,227.29 363.00,227.18 364.30,227.06 365.60,226.95 366.90,226.84 368.20,226.73 369.50,226.61 370.80,226.50 372.10,226.39 373.40,226.28 374.70,226.17 376.00,226.07 377.30,225.96 378.60,225.85 379.90,225.74 381.20,225.64 382.50,225.53 383.80,225.42 385.10,225.32 386.40,225.21 387.70,225.11 389.00,225.00 390.30,224.90 391.60,224.80 392.90,224.69 394.20,224.59 395.50,224.49 396.80,224.39 398.10,224.29 399.40,224.19 400.70,224.09 402.00,223.99 403.30,223.89 404.60,223.79 405.90,223.69 407.20,223.59 408.50,223.50 409.80,223.40 411.10,223.30 412.40,223.20 413.70,223.11 415.00,223.01 416.30,222.92 417.60,222.82 418.90,222.73 420.20,222.63 421.50,222.54 422.80,222.45 424.10,222.35 425.40,222.26 426.70,222.17 428.00,222.08 429.30,221.99 430.60,221.89 431.90,221.80 433.20,221.71 434.50,221.62 435.80,221.53 437.10,221.44 438.40,221.35 439.70,221.26 441.00,221.18 442.30,221.09 443.60,221.00 444.90,220.91 446.20,220.82 447.50,220.74 448.80,220.65 450.10,220.56 451.40,220.48 452.70,220.39 454.00,220.31 455.30,220.22 456.60,220.14 457.90,220.05 459.20,219.97 460.50,219.88 461.80,219.80 463.10,219.72 464.40,219.63 465.70,219.55 467.00,219.47 468.30,219.39 469.60,219.31 470.90,219.22 472.20,219.14 473.50,219.06 474.80,218.98 476.10,218.90 477.40,218.82 478.70,218.74 480.00,218.66 481.30,218.58 482.60,218.50 483.90,218.42 485.20,218.34 486.50,218.27 487.80,218.19 489.10,218.11 490.40,218.03 491.70,217.95 493.00,217.88 494.30,217.80 495.60,217.72 496.90,217.65 498.20,217.57 499.50,217.50 500.80,217.42 502.10,217.34 503.40,217.27 504.70,217.19 506.00,217.12 507.30,217.04 508.60,216.97 509.90,216.90 511.20,216.82 512.50,216.75 513.80,216.68 515.10,216.60 516.40,216.53 517.70,216.46 519.00,216.38 520.30,216.31 521.60,216.24 522.90,216.17 524.20,216.10 525.50,216.03 526.80,215.95 528.10,215.88 529.40,215.81 530.70,215.74 532.00,215.67 533.30,215.60 534.60,215.53 535.90,215.46 537.20,215.39 538.50,215.32 539.80,215.25 541.10,215.19 542.40,215.12 543.70,215.05 545.00,214.98 546.30,214.91 547.60,214.84 548.90,214.78 550.20,214.71 551.50,214.64 552.80,214.57 554.10,214.51 555.40,214.44 556.70,214.37 558.00,214.31 559.30,214.24 560.60,214.17 561.90,214.11 563.20,214.04 564.50,213.98 565.80,213.91 567.10,213.85 568.40,213.78 569.70,213.72 571.00,213.65 572.30,213.59 573.60,213.52 574.90,213.46 576.20,213.40 577.50,213.33 578.80,213.27 580.10,213.21 581.40,213.14 582.70,213.08 584.00,213.02 585.30,212.95 586.60,212.89 587.90,212.83 589.20,212.77 590.50,212.70 591.80,212.64 593.10,212.58 594.40,212.52 595.70,212.46 597.00,212.40 598.30,212.33 599.60,212.27 600.90,212.21 602.20,212.15 603.50,212.09 604.80,212.03 606.10,211.97 607.40,211.91 608.70,211.85 610.00,211.79 611.30,211.73 612.60,211.67 613.90,211.61 615.20,211.55 616.50,211.50 617.80,211.44 619.10,211.38 620.40,211.32 621.70,211.26 623.00,211.20 624.30,211.14 625.60,211.09 626.90,211.03 628.20,210.97 629.50,210.91 630.80,210.86 632.10,210.80 633.40,210.74 634.70,210.68 636.00,210.63 637.30,210.57 638.60,210.51 639.90,210.46 641.20,210.40 642.50,210.34 643.80,210.29 645.10,210.23 646.40,210.18 647.70,210.12 649.00,210.07 650.30,210.01 651.60,209.95 652.90,209.90 654.20,209.84 655.50,209.79 656.80,209.73 658.10,209.68 659.40,209.63 660.70,209.57 662.00,209.52 663.30,209.46 664.60,209.41 665.90,209.35 667.20,209.30 668.50,209.25 669.80,209.19 671.10,209.14 672.40,209.09 673.70,209.03 675.00,208.98 676.30,208.93 677.60,208.87 678.90,208.82 680.20,208.77 681.50,208.72 682.80,208.66 684.10,208.61 685.40,208.56 686.70,208.51 688.00,208.46 689.30,208.40 690.60,208.35 691.90,208.30 693.20,208.25 694.50,208.20 695.80,208.15 697.10,208.09 698.40,208.04 699.70,207.99 701.00,207.94 702.30,207.89 703.60,207.84 704.90,207.79 706.20,207.74 707.50,207.69 708.80,207.64 710.10,207.59 711.40,207.54 712.70,207.49 714.00,207.44 715.30,207.39 716.60,207.34 717.90,207.29 719.20,207.24 720.50,207.19 721.80,207.14 723.10,207.09 724.40,207.04 725.70,207.00 727.00,206.95 728.30,206.90 729.60,206.85 730.90,206.80 732.20,206.75 733.50,206.70 734.80,206.66 736.10,206.61 737.40,206.56 738.70,206.51 740.00,206.47 741.30,206.42 742.60,206.37 743.90,206.32 745.20,206.27 746.50,206.23 747.80,206.18 749.10,206.13 750.40,206.09 751.70,206.04 753.00,205.99 754.30,205.95 755.60,205.90 756.90,205.85 758.20,205.81 759.50,205.76 760.80,205.71 762.10,205.67 763.40,205.62 764.70,205.57 766.00,205.53 767.30,205.48 768.60,205.44 769.90,205.39 771.20,205.35 772.50,205.30 773.80,205.26 775.10,205.21 776.40,205.16 777.70,205.12 779.00,205.07 780.30,205.03 781.60,204.98 782.90,204.94 784.20,204.89 785.50,204.85 786.80,204.81 788.10,204.76 789.40,204.72 790.70,204.67 792.00,204.63 793.30,204.58 794.60,204.54 795.90,204.50 797.20,204.45 798.50,204.41 799.80,204.36 801.10,204.32 802.40,204.28 803.70,204.23 805.00,204.19 806.30,204.15 807.60,204.10 808.90,204.06 810.20,204.02 811.50,203.97 812.80,203.93 814.10,203.89 815.40,203.85 816.70,203.80 818.00,203.76 819.30,203.72 820.60,203.68 821.90,203.63 823.20,203.59 824.50,203.55 825.80,203.51 827.10,203.46 828.40,203.42 829.70,203.38 831.00,203.34 832.30,203.30 833.60,203.25 834.90,203.21 836.20,203.17 837.50,203.13 838.80,203.09 840.10,203.05 841.40,203.01 842.70,202.96 844.00,202.92 845.30,202.88 846.60,202.84 847.90,202.80 849.20,202.76 850.50,202.72 851.80,202.68 853.10,202.64 854.40,202.60 855.70,202.56 857.00,202.51 858.30,202.47 859.60,202.43 860.90,202.39 862.20,202.35 863.50,202.31 864.80,202.27 866.10,202.23 867.40,202.19 868.70,202.15 870.00,202.11"/>
<polyline fill="none" stroke="#2471a3" stroke-width="2.5" points="90.00,490.00 91.30,454.23 92.60,437.67 93.90,427.99 95.20,421.12 96.50,415.79 97.80,411.43 99.10,407.75 100.40,404.56 101.70,401.75 103.00,399.23 104.30,396.95 105.60,394.88 106.90,392.96 108.20,391.19 109.50,389.55 110.80,388.00 112.10,386.56 113.40,385.19 114.70,383.90 116.00,382.67 117.30,381.51 118.60,380.40 119.90,379.34 121.20,378.32 122.50,377.34 123.80,376.41 125.10,375.51 126.40,374.64 127.70,373.80 129.00,372.99 130.30,372.21 131.60,371.45 132.90,370.71 134.20,370.00 135.50,369.31 136.80,368.63 138.10,367.98 139.40,367.34 140.70,366.72 142.00,366.12 143.30,365.53 144.60,364.95 145.90,364.39 147.20,363.84 148.50,363.30 149.80,362.78 151.10,362.27 152.40,361.76 153.70,361.27 155.00,360.79 156.30,360.31 157.60,359.85 158.90,359.40 160.20,358.95 161.50,358.51 162.80,358.08 164.10,357.66 165.40,357.24 166.70,356.83 168.00,356.43 169.30,356.04 170.60,355.65 171.90,355.27 173.20,354.89 174.50,354.52 175.80,354.16 177.10,353.80 178.40,353.44 179.70,353.09 181.00,352.75 182.30,352.41 183.60,352.08 184.90,351.75 186.20,351.42 187.50,351.10 188.80,350.79 190.10,350.47 191.40,350.17 192.70,349.86 194.00,349.56 195.30,349.26 196.60,348.97 197.90,348.68 199.20,348.40 200.50,348.11 201.80,347.83 203.10,347.56 204.40,347.28 205.70,347.01 207.00,346.75 208.30,346.48 209.60,346.22 210.90,345.96 212.20,345.71 213.50,345.46 214.80,345.21 216.10,344.96 217.40,344.71 218.70,344.47 220.00,344.23 221.30,343.99 222.60,343.76 223.90,343.53 225.20,343.29 226.50,343.07 227.80,342.84 229.10,342.62 230.40,342.39 231.70,342.17 233.00,341.95 234.30,341.74 235.60,341.52 236.90,341.31 238.20,341.10 239.50,340.89 240.80,340.69 242.10,340.48 243.40,340.28 244.70,340.08 246.00,339.88 247.30,339.68 248.60,339.48 249.90,339.29 251.20,339.09 252.50,338.90 253.80,338.71 255.10,338.52 256.40,338.33 257.70,338.15 259.00,337.96 260.30,337.78 261.60,337.60 262.90,337.42 264.20,337.24 265.50,337.06 266.80,336.89 268.10,336.71 269.40,336.54 270.70,336.37 272.00,336.19 273.30,336.02 274.60,335.86 275.90,335.69 277.20,335.52 278.50,335.36 279.80,335.19 281.10,335.03 282.40,334.87 283.70,334.71 285.00,334.55 286.30,334.39 287.60,334.23 288.90,334.07 290.20,333.92 291.50,333.76 292.80,333.61 294.10,333.46 295.40,333.31 296.70,333.15 298.00,333.00 299.30,332.86 300.60,332.71 301.90,332.56 303.20,332.41 304.50,332.27 305.80,332.13 307.10,331.98 308.40,331.84 309.70,331.70 311.00,331.56 312.30,331.42 313.60,331.28 314.90,331.14 316.20,331.00 317.50,330.86 318.80,330.73 320.10,330.59 321.40,330.46 322.70,330.32 324.00,330.19 325.30,330.06 326.60,329.93 327.90,329.80 329.20,329.67 330.50,329.54 331.80,329.41 333.10,329.28 334.40,329.15 335.70,329.03 337.00,328.90 338.30,328.77 339.60,328.65 340.90,328.53 342.20,328.40 343.50,328.28 344.80,328.16 346.10,328.04 347.40,327.91 348.70,327.79 350.00,327.67 351.30,327.56 352.60,327.44 353.90,327.32 355.20,327.20 356.50,327.08 357.80,326.97 359.10,326.85 360.40,326.74 361.70,326.62 363.00,326.51 364.30,326.40 365.60,326.28 366.90,326.17 368.20,326.06 369.50,325.95 370.80,325.84 372.10,325.73 373.40,325.62 374.70,325.51 376.00,325.40 377.30,325.29 378.60,325.18 379.90,325.07 381.20,324.97 382.50,324.86 383.80,324.76 385.10,324.65 386.40,324.54 387.70,324.44 389.00,324.34 390.30,324.23 391.60,324.13 392.90,324.03 394.20,323.92 395.50,323.82 396.80,323.72 398.10,323.62 399.40,323.52 400.70,323.42 402.00,323.32 403.30,323.22 404.60,323.12 405.90,323.02 407.20,322.92 408.50,322.83 409.80,322.73 411.10,322.63 412.40,322.54 413.70,322.44 415.00,322.34 416.30,322.25 417.60,322.15 418.90,322.06 420.20,321.97 421.50,321.87 422.80,321.78 424.10,321.69 425.40,321.59 426.70,321.50 428.00,321.41 429.30,321.32 430.60,321.22 431.90,321.13 433.20,321.04 434.50,320.95 435.80,320.86 437.10,320.77 438.40,320.68 439.70,320.59 441.00,320.51 442.30,320.42 443.60,320.33 444.90,320.24 446.20,320.16 447.50,320.07 448.80,319.98 450.10,319.89 451.40,319.81 452.70,319.72 454.00,319.64 455.30,319.55 456.60,319.47 457.90,319.38 459.20,319.30 460.50,319.21 461.80,319.13 463.10,319.05 464.40,318.96 465.70,318.88 467.00,318.80 468.30,318.72 469.60,318.64 470.90,318.55 472.20,318.47 473.50,318.39 474.80,318.31 476.10,318.23 477.40,318.15 478.70,318.07 480.00,317.99 481.30,317.91 482.60,317.83 483.90,317.75 485.20,317.67 486.50,317.59 487.80,317.52 489.10,317.44 490.40,317.36 491.70,317.28 493.00,317.21 494.30,317.13 495.60,317.05 496.90,316.98 498.20,316.90 499.50,316.82 500.80,316.75 502.10,316.67 503.40,316.60 504.70,316.52 506.00,316.45 507.30,316.37 508.60,316.30 509.90,316.23 511.20,316.15 512.50,316.08 513.80,316.00 515.10,315.93 516.40,315.86 517.70,315.79 519.00,315.71 520.30,315.64 521.60,315.57 522.90,315.50 524.20,315.43 525.50,315.35 526.80,315.28 528.10,315.21 529.40,315.14 530.70,315.07 532.00,315.00 533.30,314.93 534.60,314.86 535.90,314.79 537.20,314.72 538.50,314.65 539.80,314.58 541.10,314.51 542.40,314.44 543.70,314.38 545.00,314.31 546.30,314.24 547.60,314.17 548.90,314.10 550.20,314.04 551.50,313.97 552.80,313.90 554.10,313.83 555.40,313.77 556.70,313.70 558.00,313.63 559.30,313.57 560.60,313.50 561.90,313.44 563.20,313.37 564.50,313.31 565.80,313.24 567.10,313.17 568.40,313.11 569.70,313.04 571.00,312.98 572.30,312.92 573.60,312.85 574.90,312.79 576.20,312.72 577.50,312.66 578.80,312.60 580.10,312.53 581.40,312.47 582.70,312.41 584.00,312.34 585.30,312.28 586.60,312.22 587.90,312.16 589.20,312.09 590.50,312.03 591.80,311.97 593.10,311.91 594.40,311.85 595.70,311.78 597.00,311.72 598.30,311.66 599.60,311.60 600.90,311.54 602.20,311.48 603.50,311.42 604.80,311.36 606.10,311.30 607.40,311.24 608.70,311.18 610.00,311.12 611.30,311.06 612.60,311.00 613.90,310.94 615.20,310.88 616.50,310.82 617.80,310.76 619.10,310.70 620.40,310.65 621.70,310.59 623.00,310.53 624.30,310.47 625.60,310.41 626.90,310.35 628.20,310.30 629.50,310.24 630.80,310.18 632.10,310.12 633.40,310.07 634.70,310.01 636.00,309.95 637.30,309.90 638.60,309.84 639.90,309.78 641.20,309.73 642.50,309.67 643.80,309.61 645.10,309.56 646.40,309.50 647.70,309.45 649.00,309.39 650.30,309.34 651.60,309.28 652.90,309.22 654.20,309.17 655.50,309.11 656.80,309.06 658.10,309.00 659.40,308.95 660.70,308.90 662.00,308.84 663.30,308.79 664.60,308.73 665.90,308.68 667.20,308.63 668.50,308.57 669.80,308.52 671.10,308.46 672.40,308.41 673.70,308.36 675.00,308.30 676.30,308.25 677.60,308.20 678.90,308.15 680.20,308.09 681.50,308.04 682.80,307.99 684.10,307.94 685.40,307.88 686.70,307.83 688.00,307.78 689.30,307.73 690.60,307.68 691.90,307.62 693.20,307.57 694.50,307.52 695.80,307.47 697.10,307.42 698.40,307.37 699.70,307.32 701.00,307.27 702.30,307.22 703.60,307.16 704.90,307.11 706.20,307.06 707.50,307.01 708.80,306.96 710.10,306.91 711.40,306.86 712.70,306.81 714.00,306.76 715.30,306.71 716.60,306.66 717.90,306.61 719.20,306.56 720.50,306.52 721.80,306.47 723.10,306.42 724.40,306.37 725.70,306.32 727.00,306.27 728.30,306.22 729.60,306.17 730.90,306.12 732.20,306.08 733.50,306.03 734.80,305.98 736.10,305.93 737.40,305.88 738.70,305.84 740.00,305.79 741.30,305.74 742.60,305.69 743.90,305.65 745.20,305.60 746.50,305.55 747.80,305.50 749.10,305.46 750.40,305.41 751.70,305.36 753.00,305.32 754.30,305.27 755.60,305.22 756.90,305.18 758.20,305.13 759.50,305.08 760.80,305.04 762.10,304.99 763.40,304.94 764.70,304.90 766.00,304.85 767.30,304.81 768.60,304.76 769.90,304.71 771.20,304.67 772.50,304.62 773.80,304.58 775.10,304.53 776.40,304.49 777.70,304.44 779.00,304.40 780.30,304.35 781.60,304.31 782.90,304.26 784.20,304.22 785.50,304.17 786.80,304.13 788.10,304.08 789.40,304.04 790.70,303.99 792.00,303.95 793.30,303.91 794.60,303.86 795.90,303.82 797.20,303.77 798.50,303.73 799.80,303.69 801.10,303.64 802.40,303.60 803.70,303.56 805.00,303.51 806.30,303.47 807.60,303.42 808.90,303.38 810.20,303.34 811.50,303.30 812.80,303.25 814.10,303.21 815.40,303.17 816.70,303.12 818.00,303.08 819.30,303.04 820.60,303.00 821.90,302.95 823.20,302.91 824.50,302.87 825.80,302.83 827.10,302.78 828.40,302.74 829.70,302.70 831.00,302.66 832.30,302.62 833.60,302.57 834.90,302.53 836.20,302.49 837.50,302.45 838.80,302.41 840.10,302.37 841.40,302.33 842.70,302.28 844.00,302.24 845.30,302.20 846.60,302.16 847.90,302.12 849.20,302.08 850.50,302.04 851.80,302.00 853.10,301.96 854.40,301.92 855.70,301.88 857.00,301.83 858.30,301.79 859.60,301.75 860.90,301.71 862.20,301.67 863.50,301.63 864.80,301.59 866.10,301.55 867.40,301.51 868.70,301.47 870.00,301.43"/>
<polyline fill="none" stroke="#6c3483" stroke-width="2.5" points="90.00,490.00 91.30,490.00 92.60,490.00 93.90,490.00 95.20,490.00 96.50,490.00 97.80,490.00 99.10,490.00 100.40,490.00 101.70,490.00 103.00,490.00 104.30,490.00 105.60,490.00 106.90,490.00 108.20,490.00 109.50,488.89 110.80,487.34 112.10,485.90 113.40,484.53 114.70,483.24 116.00,482.01 117.30,480.85 118.60,479.74 119.90,478.68 121.20,477.66 122.50,476.68 123.80,475.75 125.10,474.85 126.40,473.98 127.70,473.14 129.00,472.33 130.30,471.55 131.60,470.79 132.90,470.05 134.20,469.34 135.50,468.65 136.80,467.97 138.10,467.32 139.40,466.68 140.70,466.06 142.00,465.46 143.30,464.87 144.60,464.29 145.90,463.73 147.20,463.18 148.50,462.64 149.80,462.12 151.10,461.61 152.40,461.10 153.70,460.61 155.00,460.13 156.30,459.65 157.60,459.19 158.90,458.74 160.20,458.29 161.50,457.85 162.80,457.42 164.10,457.00 165.40,456.58 166.70,456.17 168.00,455.77 169.30,455.38 170.60,454.99 171.90,454.61 173.20,454.23 174.50,453.86 175.80,453.50 177.10,453.14 178.40,452.78 179.70,452.43 181.00,452.09 182.30,451.75 183.60,451.42 184.90,451.09 186.20,450.76 187.50,450.44 188.80,450.13 190.10,449.81 191.40,449.51 192.70,449.20 194.00,448.90 195.30,448.60 196.60,448.31 197.90,448.02 199.20,447.74 200.50,447.45 201.80,447.17 203.10,446.90 204.40,446.62 205.70,446.35 207.00,446.09 208.30,445.82 209.60,445.56 210.90,445.30 212.20,445.05 213.50,444.80 214.80,444.55 216.10,444.30 217.40,444.05 218.70,443.81 220.00,443.57 221.30,443.33 222.60,443.10 223.90,442.87 225.20,442.63 226.50,442.41 227.80,442.18 229.10,441.96 230.40,441.73 231.70,441.51 233.00,441.29 234.30,441.08 235.60,440.86 236.90,440.65 238.20,440.44 239.50,440.23 240.80,440.03 242.10,439.82 243.40,439.62 244.70,439.42 246.00,439.22 247.30,439.02 248.60,438.82 249.90,438.63 251.20,438.43 252.50,438.24 253.80,438.05 255.10,437.86 256.40,437.67 257.70,437.49 259.00,437.30 260.30,437.12 261.60,436.94 262.90,436.76 264.20,436.58 265.50,436.40 266.80,436.23 268.10,436.05 269.40,435.88 270.70,435.71 272.00,435.53 273.30,435.36 274.60,435.20 275.90,435.03 277.20,434.86 278.50,434.70 279.80,434.53 281.10,434.37 282.40,434.21 283.70,434.05 285.00,433.89 286.30,433.73 287.60,433.57 288.90,433.41 290.20,433.26 291.50,433.10 292.80,432.95 294.10,432.80 295.40,432.64 296.70,432.49 298.00,432.34 299.30,432.20 300.60,432.05 301.90,431.90 303.20,431.75 304.50,431.61 305.80,431.47 307.10,431.32 308.40,431.18 309.70,431.04 311.00,430.90 312.30,430.76 313.60,430.62 314.90,430.48 316.20,430.34 317.50,430.20 318.80,430.07 320.10,429.93 321.40,429.80 322.70,429.66 324.00,429.53 325.30,429.40 326.60,429.27 327.90,429.14 329.20,429.01 330.50,428.88 331.80,428.75 333.10,428.62 334.40,428.49 335.70,428.37 337.00,428.24 338.30,428.11 339.60,427.99 340.90,427.87 342.20,427.74 343.50,427.62 344.80,427.50 346.10,427.38 347.40,427.25 348.70,427.13 350.00,427.01 351.30,426.90 352.60,426.78 353.90,426.66 355.20,426.54 356.50,426.42 357.80,426.31 359.10,426.19 360.40,426.08 361.70,425.96 363.00,425.85 364.30,425.74 365.60,425.62 366.90,425.51 368.20,425.40 369.50,425.29 370.80,425.18 372.10,425.07 373.40,424.96 374.70,424.85 376.00,424.74 377.30,424.63 378.60,424.52 379.90,424.41 381.20,424.31 382.50,424.20 383.80,424.10 385.10,423.99 386.40,423.88 387.70,423.78 389.00,423.68 390.30,423.57 391.60,423.47 392.90,423.37 394.20,423.26 395.50,423.16 396.80,423.06 398.10,422.96 399.40,422.86 400.70,422.76 402.00,422.66 403.30,422.56 404.60,422.46 405.90,422.36 407.20,422.26 408.50,422.17 409.80,422.07 411.10,421.97 412.40,421.88 413.70,421.78 415.00,421.68 416.30,421.59 417.60,421.49 418.90,421.40 420.20,421.31 421.50,421.21 422.80,421.12 424.10,421.02 425.40,420.93 426.70,420.84 428.00,420.75 429.30,420.66 430.60,420.56 431.90,420.47 433.20,420.38 434.50,420.29 435.80,420.20 437.10,420.11 438.40,420.02 439.70,419.93 441.00,419.85 442.30,419.76 443.60,419.67 444.90,419.58 446.20,419.49 447.50,419.41 448.80,419.32 450.10,419.23 451.40,419.15 452.70,419.06 454.00,418.98 455.30,418.89 456.60,418.81 457.90,418.72 459.20,418.64 460.50,418.55 461.80,418.47 463.10,418.39 464.40,418.30 465.70,418.22 467.00,418.14 468.30,418.06 469.60,417.98 470.90,417.89 472.20,417.81 473.50,417.73 474.80,417.65 476.10,417.57 477.40,417.49 478.70,417.41 480.00,417.33 481.30,417.25 482.60,417.17 483.90,417.09 485.20,417.01 486.50,416.93 487.80,416.86 489.10,416.78 490.40,416.70 491.70,416.62 493.00,416.55 494.30,416.47 495.60,416.39 496.90,416.32 498.20,416.24 499.50,416.16 500.80,416.09 502.10,416.01 503.40,415.94 504.70,415.86 506.00,415.79 507.30,415.71 508.60,415.64 509.90,415.56 511.20,415.49 512.50,415.42 513.80,415.34 515.10,415.27 516.40,415.20 517.70,415.13 519.00,415.05 520.30,414.98 521.60,414.91 522.90,414.84 524.20,414.77 525.50,414.69 526.80,414.62 528.10,414.55 529.40,414.48 530.70,414.41 532.00,414.34 533.30,414.27 534.60,414.20 535.90,414.13 537.20,414.06 538.50,413.99 539.80,413.92 541.10,413.85 542.40,413.78 543.70,413.72 545.00,413.65 546.30,413.58 547.60,413.51 548.90,413.44 550.20,413.38 551.50,413.31 552.80,413.24 554.10,413.17 555.40,413.11 556.70,413.04 558.00,412.97 559.30,412.91 560.60,412.84 561.90,412.78 563.20,412.71 564.50,412.65 565.80,412.58 567.10,412.51 568.40,412.45 569.70,412.38 571.00,412.32 572.30,412.26 573.60,412.19 574.90,412.13 576.20,412.06 577.50,412.00 578.80,411.94 580.10,411.87 581.40,411.81 582.70,411.75 584.00,411.68 585.30,411.62 586.60,411.56 587.90,411.50 589.20,411.43 590.50,411.37 591.80,411.31 593.10,411.25 594.40,411.19 595.70,411.12 597.00,411.06 598.30,411.00 599.60,410.94 600.90,410.88 602.20,410.82 603.50,410.76 604.80,410.70 606.10,410.64 607.40,410.58 608.70,410.52 610.00,410.46 611.30,410.40 612.60,410.34 613.90,410.28 615.20,410.22 616.50,410.16 617.80,410.10 619.10,410.04 620.40,409.98 621.70,409.93 623.00,409.87 624.30,409.81 625.60,409.75 626.90,409.69 628.20,409.64 629.50,409.58 630.80,409.52 632.10,409.46 633.40,409.41 634.70,409.35 636.00,409.29 637.30,409.24 638.60,409.18 639.90,409.12 641.20,409.07 642.50,409.01 643.80,408.95 645.10,408.90 646.40,408.84 647.70,408.79 649.00,408.73 650.30,408.67 651.60,408.62 652.90,408.56 654.20,408.51 655.50,408.45 656.80,408.40 658.10,408.34 659.40,408.29 660.70,408.24 662.00,408.18 663.30,408.13 664.60,408.07 665.90,408.02 667.20,407.97 668.50,407.91 669.80,407.86 671.10,407.80 672.40,407.75 673.70,407.70 675.00,407.64 676.30,407.59 677.60,407.54 678.90,407.49 680.20,407.43 681.50,407.38 682.80,407.33 684.10,407.28 685.40,407.22 686.70,407.17 688.00,407.12 689.30,407.07 690.60,407.02 691.90,406.96 693.20,406.91 694.50,406.86 695.80,406.81 697.10,406.76 698.40,406.71 699.70,406.66 701.00,406.61 702.30,406.55 703.60,406.50 704.90,406.45 706.20,406.40 707.50,406.35 708.80,406.30 710.10,406.25 711.40,406.20 712.70,406.15 714.00,406.10 715.30,406.05 716.60,406.00 717.90,405.95 719.20,405.90 720.50,405.86 721.80,405.81 723.10,405.76 724.40,405.71 725.70,405.66 727.00,405.61 728.30,405.56 729.60,405.51 730.90,405.46 732.20,405.42 733.50,405.37 734.80,405.32 736.10,405.27 737.40,405.22 738.70,405.18 740.00,405.13 741.30,405.08 742.60,405.03 743.90,404.98 745.20,404.94 746.50,404.89 747.80,404.84 749.10,404.80 750.40,404.75 751.70,404.70 753.00,404.65 754.30,404.61 755.60,404.56 756.90,404.51 758.20,404.47 759.50,404.42 760.80,404.38 762.10,404.33 763.40,404.28 764.70,404.24 766.00,404.19 767.30,404.15 768.60,404.10 769.90,404.05 771.20,404.01 772.50,403.96 773.80,403.92 775.10,403.87 776.40,403.83 777.70,403.78 779.00,403.74 780.30,403.69 781.60,403.65 782.90,403.60 784.20,403.56 785.50,403.51 786.80,403.47 788.10,403.42 789.40,403.38 790.70,403.33 792.00,403.29 793.30,403.25 794.60,403.20 795.90,403.16 797.20,403.11 798.50,403.07 799.80,403.03 801.10,402.98 802.40,402.94 803.70,402.89 805.00,402.85 806.30,402.81 807.60,402.76 808.90,402.72 810.20,402.68 811.50,402.64 812.80,402.59 814.10,402.55 815.40,402.51 816.70,402.46 818.00,402.42 819.30,402.38 820.60,402.34 821.90,402.29 823.20,402.25 824.50,402.21 825.80,402.17 827.10,402.12 828.40,402.08 829.70,402.04 831.00,402.00 832.30,401.96 833.60,401.91 834.90,401.87 836.20,401.83 837.50,401.79 838.80,401.75 840.10,401.71 841.40,401.67 842.70,401.62 844.00,401.58 845.30,401.54 846.60,401.50 847.90,401.46 849.20,401.42 850.50,401.38 851.80,401.34 853.10,401.30 854.40,401.26 855.70,401.21 857.00,401.17 858.30,401.13 859.60,401.09 860.90,401.05 862.20,401.01 863.50,400.97 864.80,400.93 866.10,400.89 867.40,400.85 868.70,400.81 870.00,400.77"/>
<rect x="705" y="42" width="160" height="120" fill="white" stroke="#cccccc"/>
<line x1="715" y1="60" x2="740" y2="60" stroke="#c0392b" stroke-width="3"/>
<text x="750" y="64" class="legend">d=12</text>
<line x1="715" y1="80" x2="740" y2="80" stroke="#d68910" stroke-width="3"/>
<text x="750" y="84" class="legend">d=18</text>
<line x1="715" y1="100" x2="740" y2="100" stroke="#1e8449" stroke-width="3"/>
<text x="750" y="104" class="legend">d=24</text>
<line x1="715" y1="120" x2="740" y2="120" stroke="#2471a3" stroke-width="3"/>
<text x="750" y="124" class="legend">d=30</text>
<line x1="715" y1="140" x2="740" y2="140" stroke="#6c3483" stroke-width="3"/>
<text x="750" y="144" class="legend">d=36</text>
<text x="450.0" y="558" text-anchor="middle" class="small">Poisson arrivals, mean interarrival 1.5 minutes, log-scale y-axis</text>
</svg>