<svg xmlns="http://www.w3.org/2000/svg" width="980" height="620" viewBox="0 0 980 620">
<style>
text{font-family:Arial,sans-serif;fill:#172033}.title{font-size:24px;font-weight:bold}.subtitle{font-size:14px;fill:#475569}.axis{font-size:13px;fill:#334155}.tick{font-size:12px;fill:#475569}.legend{font-size:13px;fill:#172033}.grid{stroke:#e2e8f0;stroke-width:1}.axisline{stroke:#334155;stroke-width:1.4}.curve{fill:none;stroke-width:2.8}.note{font-size:12px;fill:#64748b}</style>
<rect x="0" y="0" width="980" height="620" fill="#ffffff"/>
<text class="title" x="86" y="36">General Merkle leaf collision probability</text>
<text class="subtitle" x="86" y="62">Birthday model for k independent storage keys projected uniformly into N = 2^d leaves.</text>
<text class="subtitle" x="86" y="82">P(collision) ~= 1 - exp(-k(k-1)/(2*2^d)). Axes are logarithmic.</text>
<rect x="86" y="92" width="858" height="446" fill="#f8fafc" stroke="#cbd5e1" stroke-width="1"/>
<line class="grid" x1="86.00" y1="92" x2="86.00" y2="538"/>
<text class="tick" x="86.00" y="562" text-anchor="middle">1</text>
<line class="grid" x1="208.57" y1="92" x2="208.57" y2="538"/>
<text class="tick" x="208.57" y="562" text-anchor="middle">10</text>
<line class="grid" x1="331.14" y1="92" x2="331.14" y2="538"/>
<text class="tick" x="331.14" y="562" text-anchor="middle">100</text>
<line class="grid" x1="453.71" y1="92" x2="453.71" y2="538"/>
<text class="tick" x="453.71" y="562" text-anchor="middle">1k</text>
<line class="grid" x1="576.29" y1="92" x2="576.29" y2="538"/>
<text class="tick" x="576.29" y="562" text-anchor="middle">10k</text>
<line class="grid" x1="698.86" y1="92" x2="698.86" y2="538"/>
<text class="tick" x="698.86" y="562" text-anchor="middle">100k</text>
<line class="grid" x1="821.43" y1="92" x2="821.43" y2="538"/>
<text class="tick" x="821.43" y="562" text-anchor="middle">1M</text>
<line class="grid" x1="944.00" y1="92" x2="944.00" y2="538"/>
<text class="tick" x="944.00" y="562" text-anchor="middle">10M</text>
<line class="grid" x1="86" y1="92.00" x2="944" y2="92.00"/>
<text class="tick" x="74" y="96.00" text-anchor="end">1</text>
<line class="grid" x1="86" y1="147.75" x2="944" y2="147.75"/>
<text class="tick" x="74" y="151.75" text-anchor="end">1e-1</text>
<line class="grid" x1="86" y1="203.50" x2="944" y2="203.50"/>
<text class="tick" x="74" y="207.50" text-anchor="end">1e-2</text>
<line class="grid" x1="86" y1="259.25" x2="944" y2="259.25"/>
<text class="tick" x="74" y="263.25" text-anchor="end">1e-3</text>
<line class="grid" x1="86" y1="315.00" x2="944" y2="315.00"/>
<text class="tick" x="74" y="319.00" text-anchor="end">1e-4</text>
<line class="grid" x1="86" y1="370.75" x2="944" y2="370.75"/>
<text class="tick" x="74" y="374.75" text-anchor="end">1e-5</text>
<line class="grid" x1="86" y1="426.50" x2="944" y2="426.50"/>
<text class="tick" x="74" y="430.50" text-anchor="end">1e-6</text>
<line class="grid" x1="86" y1="482.25" x2="944" y2="482.25"/>
<text class="tick" x="74" y="486.25" text-anchor="end">1e-7</text>
<line class="grid" x1="86" y1="538.00" x2="944" y2="538.00"/>
<text class="tick" x="74" y="542.00" text-anchor="end">1e-8</text>
<line class="axisline" x1="86" y1="538" x2="944" y2="538"/>
<line class="axisline" x1="86" y1="92" x2="86" y2="538"/>
<text class="axis" x="515.0" y="592" text-anchor="middle">Random storage keys k</text>
<text class="axis" transform="translate(22 315.0) rotate(-90)" text-anchor="middle">Probability of at least one leaf collision</text>
<polyline class="curve" stroke="#c2410c" points="86.00,538.00 87.65,538.00 89.31,538.00 90.96,538.00 92.61,538.00 94.27,538.00 95.92,538.00 97.57,538.00 99.23,538.00 100.88,538.00 102.53,538.00 104.18,538.00 105.84,538.00 107.49,538.00 109.14,538.00 110.80,538.00 112.45,538.00 114.10,538.00 115.76,538.00 117.41,538.00 119.06,538.00 120.72,538.00 122.37,538.00 124.02,291.87 125.68,289.66 127.33,287.50 128.98,285.37 130.64,283.28 132.29,281.22 133.94,279.19 135.60,277.18 137.25,275.20 138.90,273.25 140.55,271.31 142.21,269.40 143.86,267.50 145.51,265.63 147.17,263.77 148.82,261.92 150.47,260.09 152.13,258.28 153.78,256.48 155.43,254.69 157.09,252.91 158.74,251.15 160.39,249.39 162.05,247.65 163.70,245.91 165.35,244.19 167.01,242.47 168.66,240.76 170.31,239.06 171.97,237.37 173.62,235.69 175.27,234.01 176.92,232.34 178.58,230.67 180.23,229.01 181.88,227.36 183.54,225.72 185.19,224.07 186.84,222.44 188.50,220.81 190.15,219.18 191.80,217.56 193.46,215.94 195.11,214.33 196.76,212.72 198.42,211.12 200.07,209.52 201.72,207.93 203.38,206.33 205.03,204.75 206.68,203.16 208.34,201.58 209.99,200.00 211.64,198.43 213.29,196.86 214.95,195.29 216.60,193.73 218.25,192.17 219.91,190.61 221.56,189.05 223.21,187.50 224.87,185.95 226.52,184.41 228.17,182.86 229.83,181.32 231.48,179.79 233.13,178.25 234.79,176.72 236.44,175.19 238.09,173.67 239.75,172.15 241.40,170.63 243.05,169.12 244.71,167.61 246.36,166.10 248.01,164.59 249.66,163.09 251.32,161.60 252.97,160.10 254.62,158.61 256.28,157.13 257.93,155.65 259.58,154.17 261.24,152.70 262.89,151.24 264.54,149.78 266.20,148.32 267.85,146.87 269.50,145.43 271.16,143.99 272.81,142.56 274.46,141.13 276.12,139.71 277.77,138.30 279.42,136.90 281.08,135.51 282.73,134.12 284.38,132.75 286.03,131.38 287.69,130.02 289.34,128.68 290.99,127.34 292.65,126.02 294.30,124.71 295.95,123.42 297.61,122.13 299.26,120.87 300.91,119.61 302.57,118.38 304.22,117.16 305.87,115.96 307.53,114.78 309.18,113.62 310.83,112.48 312.49,111.36 314.14,110.26 315.79,109.19 317.45,108.14 319.10,107.12 320.75,106.13 322.40,105.17 324.06,104.23 325.71,103.33 327.36,102.46 329.02,101.62 330.67,100.81 332.32,100.04 333.98,99.31 335.63,98.61 337.28,97.95 338.94,97.33 340.59,96.74 342.24,96.20 343.90,95.69 345.55,95.23 347.20,94.80 348.86,94.41 350.51,94.05 352.16,93.74 353.82,93.45 355.47,93.20 357.12,92.99 358.77,92.80 360.43,92.64 362.08,92.50 363.73,92.39 365.39,92.30 367.04,92.23 368.69,92.17 370.35,92.12 372.00,92.09 373.65,92.06 375.31,92.04 376.96,92.03 378.61,92.02 380.27,92.01 381.92,92.01 383.57,92.00 385.23,92.00 386.88,92.00 388.53,92.00 390.18,92.00 391.84,92.00 393.49,92.00 395.14,92.00 396.80,92.00 398.45,92.00 400.10,92.00 401.76,92.00 403.41,92.00 405.06,92.00 406.72,92.00 408.37,92.00 410.02,92.00 411.68,92.00 413.33,92.00 414.98,92.00 416.64,92.00 418.29,92.00 419.94,92.00 421.60,92.00 423.25,92.00 424.90,92.00 426.55,92.00 428.21,92.00 429.86,92.00 431.51,92.00 433.17,92.00 434.82,92.00 436.47,92.00 438.13,92.00 439.78,92.00 441.43,92.00 443.09,92.00 444.74,92.00 446.39,92.00 448.05,92.00 449.70,92.00 451.35,92.00 453.01,92.00 454.66,92.00 456.31,92.00 457.97,92.00 459.62,92.00 461.27,92.00 462.92,92.00 464.58,92.00 466.23,92.00 467.88,92.00 469.54,92.00 471.19,92.00 472.84,92.00 474.50,92.00 476.15,92.00 477.80,92.00 479.46,92.00 481.11,92.00 482.76,92.00 484.42,92.00 486.07,92.00 487.72,92.00 489.38,92.00 491.03,92.00 492.68,92.00 494.34,92.00 495.99,92.00 497.64,92.00 499.29,92.00 500.95,92.00 502.60,92.00 504.25,92.00 505.91,92.00 507.56,92.00 509.21,92.00 510.87,92.00 512.52,92.00 514.17,92.00 515.83,92.00 517.48,92.00 519.13,92.00 520.79,92.00 522.44,92.00 524.09,92.00 525.75,92.00 527.40,92.00 529.05,92.00 530.71,92.00 532.36,92.00 534.01,92.00 535.66,92.00 537.32,92.00 538.97,92.00 540.62,92.00 542.28,92.00 543.93,92.00 545.58,92.00 547.24,92.00 548.89,92.00 550.54,92.00 552.20,92.00 553.85,92.00 555.50,92.00 557.16,92.00 558.81,92.00 560.46,92.00 562.12,92.00 563.77,92.00 565.42,92.00 567.08,92.00 568.73,92.00 570.38,92.00 572.03,92.00 573.69,92.00 575.34,92.00 576.99,92.00 578.65,92.00 580.30,92.00 581.95,92.00 583.61,92.00 585.26,92.00 586.91,92.00 588.57,92.00 590.22,92.00 591.87,92.00 593.53,92.00 595.18,92.00 596.83,92.00 598.49,92.00 600.14,92.00 601.79,92.00 603.45,92.00 605.10,92.00 606.75,92.00 608.40,92.00 610.06,92.00 611.71,92.00 613.36,92.00 615.02,92.00 616.67,92.00 618.32,92.00 619.98,92.00 621.63,92.00 623.28,92.00 624.94,92.00 626.59,92.00 628.24,92.00 629.90,92.00 631.55,92.00 633.20,92.00 634.86,92.00 636.51,92.00 638.16,92.00 639.82,92.00 641.47,92.00 643.12,92.00 644.77,92.00 646.43,92.00 648.08,92.00 649.73,92.00 651.39,92.00 653.04,92.00 654.69,92.00 656.35,92.00 658.00,92.00 659.65,92.00 661.31,92.00 662.96,92.00 664.61,92.00 666.27,92.00 667.92,92.00 669.57,92.00 671.23,92.00 672.88,92.00 674.53,92.00 676.18,92.00 677.84,92.00 679.49,92.00 681.14,92.00 682.80,92.00 684.45,92.00 686.10,92.00 687.76,92.00 689.41,92.00 691.06,92.00 692.72,92.00 694.37,92.00 696.02,92.00 697.68,92.00 699.33,92.00 700.98,92.00 702.64,92.00 704.29,92.00 705.94,92.00 707.60,92.00 709.25,92.00 710.90,92.00 712.55,92.00 714.21,92.00 715.86,92.00 717.51,92.00 719.17,92.00 720.82,92.00 722.47,92.00 724.13,92.00 725.78,92.00 727.43,92.00 729.09,92.00 730.74,92.00 732.39,92.00 734.05,92.00 735.70,92.00 737.35,92.00 739.01,92.00 740.66,92.00 742.31,92.00 743.97,92.00 745.62,92.00 747.27,92.00 748.92,92.00 750.58,92.00 752.23,92.00 753.88,92.00 755.54,92.00 757.19,92.00 758.84,92.00 760.50,92.00 762.15,92.00 763.80,92.00 765.46,92.00 767.11,92.00 768.76,92.00 770.42,92.00 772.07,92.00 773.72,92.00 775.38,92.00 777.03,92.00 778.68,92.00 780.34,92.00 781.99,92.00 783.64,92.00 785.29,92.00 786.95,92.00 788.60,92.00 790.25,92.00 791.91,92.00 793.56,92.00 795.21,92.00 796.87,92.00 798.52,92.00 800.17,92.00 801.83,92.00 803.48,92.00 805.13,92.00 806.79,92.00 808.44,92.00 810.09,92.00 811.75,92.00 813.40,92.00 815.05,92.00 816.71,92.00 818.36,92.00 820.01,92.00 821.66,92.00 823.32,92.00 824.97,92.00 826.62,92.00 828.28,92.00 829.93,92.00 831.58,92.00 833.24,92.00 834.89,92.00 836.54,92.00 838.20,92.00 839.85,92.00 841.50,92.00 843.16,92.00 844.81,92.00 846.46,92.00 848.12,92.00 849.77,92.00 851.42,92.00 853.08,92.00 854.73,92.00 856.38,92.00 858.03,92.00 859.69,92.00 861.34,92.00 862.99,92.00 864.65,92.00 866.30,92.00 867.95,92.00 869.61,92.00 871.26,92.00 872.91,92.00 874.57,92.00 876.22,92.00 877.87,92.00 879.53,92.00 881.18,92.00 882.83,92.00 884.49,92.00 886.14,92.00 887.79,92.00 889.45,92.00 891.10,92.00 892.75,92.00 894.40,92.00 896.06,92.00 897.71,92.00 899.36,92.00 901.02,92.00 902.67,92.00 904.32,92.00 905.98,92.00 907.63,92.00 909.28,92.00 910.94,92.00 912.59,92.00 914.24,92.00 915.90,92.00 917.55,92.00 919.20,92.00 920.86,92.00 922.51,92.00 924.16,92.00 925.82,92.00 927.47,92.00 929.12,92.00 930.77,92.00 932.43,92.00 934.08,92.00 935.73,92.00 937.39,92.00 939.04,92.00 940.69,92.00 942.35,92.00 944.00,92.00"/>
<polyline class="curve" stroke="#d97706" points="86.00,538.00 87.65,538.00 89.31,538.00 90.96,538.00 92.61,538.00 94.27,538.00 95.92,538.00 97.57,538.00 99.23,538.00 100.88,538.00 102.53,538.00 104.18,538.00 105.84,538.00 107.49,538.00 109.14,538.00 110.80,538.00 112.45,538.00 114.10,538.00 115.76,538.00 117.41,538.00 119.06,538.00 120.72,538.00 122.37,538.00 124.02,392.56 125.68,390.35 127.33,388.19 128.98,386.06 130.64,383.97 132.29,381.91 133.94,379.88 135.60,377.87 137.25,375.89 138.90,373.94 140.55,372.00 142.21,370.09 143.86,368.19 145.51,366.31 147.17,364.45 148.82,362.61 150.47,360.78 152.13,358.96 153.78,357.16 155.43,355.37 157.09,353.59 158.74,351.82 160.39,350.07 162.05,348.32 163.70,346.59 165.35,344.86 167.01,343.14 168.66,341.43 170.31,339.73 171.97,338.04 173.62,336.35 175.27,334.67 176.92,333.00 178.58,331.33 180.23,329.67 181.88,328.01 183.54,326.36 185.19,324.72 186.84,323.08 188.50,321.44 190.15,319.81 191.80,318.19 193.46,316.57 195.11,314.95 196.76,313.34 198.42,311.73 200.07,310.12 201.72,308.52 203.38,306.92 205.03,305.33 206.68,303.74 208.34,302.15 209.99,300.56 211.64,298.98 213.29,297.40 214.95,295.82 216.60,294.24 218.25,292.67 219.91,291.10 221.56,289.53 223.21,287.96 224.87,286.40 226.52,284.84 228.17,283.28 229.83,281.72 231.48,280.16 233.13,278.61 234.79,277.05 236.44,275.50 238.09,273.95 239.75,272.40 241.40,270.85 243.05,269.31 244.71,267.76 246.36,266.22 248.01,264.68 249.66,263.14 251.32,261.60 252.97,260.06 254.62,258.53 256.28,256.99 257.93,255.46 259.58,253.92 261.24,252.39 262.89,250.86 264.54,249.33 266.20,247.80 267.85,246.27 269.50,244.74 271.16,243.22 272.81,241.69 274.46,240.17 276.12,238.64 277.77,237.12 279.42,235.60 281.08,234.07 282.73,232.55 284.38,231.03 286.03,229.51 287.69,227.99 289.34,226.48 290.99,224.96 292.65,223.44 294.30,221.93 295.95,220.41 297.61,218.90 299.26,217.38 300.91,215.87 302.57,214.36 304.22,212.84 305.87,211.33 307.53,209.82 309.18,208.31 310.83,206.81 312.49,205.30 314.14,203.79 315.79,202.28 317.45,200.78 319.10,199.27 320.75,197.77 322.40,196.27 324.06,194.76 325.71,193.26 327.36,191.76 329.02,190.26 330.67,188.77 332.32,187.27 333.98,185.77 335.63,184.28 337.28,182.78 338.94,181.29 340.59,179.80 342.24,178.31 343.90,176.83 345.55,175.34 347.20,173.85 348.86,172.37 350.51,170.89 352.16,169.41 353.82,167.94 355.47,166.46 357.12,164.99 358.77,163.52 360.43,162.05 362.08,160.59 363.73,159.13 365.39,157.67 367.04,156.21 368.69,154.76 370.35,153.31 372.00,151.87 373.65,150.43 375.31,149.00 376.96,147.56 378.61,146.14 380.27,144.72 381.92,143.30 383.57,141.89 385.23,140.49 386.88,139.09 388.53,137.70 390.18,136.32 391.84,134.95 393.49,133.58 395.14,132.22 396.80,130.87 398.45,129.54 400.10,128.21 401.76,126.89 403.41,125.58 405.06,124.29 406.72,123.01 408.37,121.74 410.02,120.49 411.68,119.25 413.33,118.03 414.98,116.83 416.64,115.64 418.29,114.47 419.94,113.32 421.60,112.20 423.25,111.09 424.90,110.01 426.55,108.95 428.21,107.91 429.86,106.90 431.51,105.92 433.17,104.97 434.82,104.05 436.47,103.15 438.13,102.29 439.78,101.46 441.43,100.67 443.09,99.91 444.74,99.18 446.39,98.49 448.05,97.84 449.70,97.23 451.35,96.65 453.01,96.12 454.66,95.62 456.31,95.16 457.97,94.74 459.62,94.35 461.27,94.01 462.92,93.70 464.58,93.42 466.23,93.17 467.88,92.96 469.54,92.78 471.19,92.62 472.84,92.49 474.50,92.38 476.15,92.29 477.80,92.22 479.46,92.16 481.11,92.12 482.76,92.08 484.42,92.06 486.07,92.04 487.72,92.03 489.38,92.02 491.03,92.01 492.68,92.01 494.34,92.00 495.99,92.00 497.64,92.00 499.29,92.00 500.95,92.00 502.60,92.00 504.25,92.00 505.91,92.00 507.56,92.00 509.21,92.00 510.87,92.00 512.52,92.00 514.17,92.00 515.83,92.00 517.48,92.00 519.13,92.00 520.79,92.00 522.44,92.00 524.09,92.00 525.75,92.00 527.40,92.00 529.05,92.00 530.71,92.00 532.36,92.00 534.01,92.00 535.66,92.00 537.32,92.00 538.97,92.00 540.62,92.00 542.28,92.00 543.93,92.00 545.58,92.00 547.24,92.00 548.89,92.00 550.54,92.00 552.20,92.00 553.85,92.00 555.50,92.00 557.16,92.00 558.81,92.00 560.46,92.00 562.12,92.00 563.77,92.00 565.42,92.00 567.08,92.00 568.73,92.00 570.38,92.00 572.03,92.00 573.69,92.00 575.34,92.00 576.99,92.00 578.65,92.00 580.30,92.00 581.95,92.00 583.61,92.00 585.26,92.00 586.91,92.00 588.57,92.00 590.22,92.00 591.87,92.00 593.53,92.00 595.18,92.00 596.83,92.00 598.49,92.00 600.14,92.00 601.79,92.00 603.45,92.00 605.10,92.00 606.75,92.00 608.40,92.00 610.06,92.00 611.71,92.00 613.36,92.00 615.02,92.00 616.67,92.00 618.32,92.00 619.98,92.00 621.63,92.00 623.28,92.00 624.94,92.00 626.59,92.00 628.24,92.00 629.90,92.00 631.55,92.00 633.20,92.00 634.86,92.00 636.51,92.00 638.16,92.00 639.82,92.00 641.47,92.00 643.12,92.00 644.77,92.00 646.43,92.00 648.08,92.00 649.73,92.00 651.39,92.00 653.04,92.00 654.69,92.00 656.35,92.00 658.00,92.00 659.65,92.00 661.31,92.00 662.96,92.00 664.61,92.00 666.27,92.00 667.92,92.00 669.57,92.00 671.23,92.00 672.88,92.00 674.53,92.00 676.18,92.00 677.84,92.00 679.49,92.00 681.14,92.00 682.80,92.00 684.45,92.00 686.10,92.00 687.76,92.00 689.41,92.00 691.06,92.00 692.72,92.00 694.37,92.00 696.02,92.00 697.68,92.00 699.33,92.00 700.98,92.00 702.64,92.00 704.29,92.00 705.94,92.00 707.60,92.00 709.25,92.00 710.90,92.00 712.55,92.00 714.21,92.00 715.86,92.00 717.51,92.00 719.17,92.00 720.82,92.00 722.47,92.00 724.13,92.00 725.78,92.00 727.43,92.00 729.09,92.00 730.74,92.00 732.39,92.00 734.05,92.00 735.70,92.00 737.35,92.00 739.01,92.00 740.66,92.00 742.31,92.00 743.97,92.00 745.62,92.00 747.27,92.00 748.92,92.00 750.58,92.00 752.23,92.00 753.88,92.00 755.54,92.00 757.19,92.00 758.84,92.00 760.50,92.00 762.15,92.00 763.80,92.00 765.46,92.00 767.11,92.00 768.76,92.00 770.42,92.00 772.07,92.00 773.72,92.00 775.38,92.00 777.03,92.00 778.68,92.00 780.34,92.00 781.99,92.00 783.64,92.00 785.29,92.00 786.95,92.00 788.60,92.00 790.25,92.00 791.91,92.00 793.56,92.00 795.21,92.00 796.87,92.00 798.52,92.00 800.17,92.00 801.83,92.00 803.48,92.00 805.13,92.00 806.79,92.00 808.44,92.00 810.09,92.00 811.75,92.00 813.40,92.00 815.05,92.00 816.71,92.00 818.36,92.00 820.01,92.00 821.66,92.00 823.32,92.00 824.97,92.00 826.62,92.00 828.28,92.00 829.93,92.00 831.58,92.00 833.24,92.00 834.89,92.00 836.54,92.00 838.20,92.00 839.85,92.00 841.50,92.00 843.16,92.00 844.81,92.00 846.46,92.00 848.12,92.00 849.77,92.00 851.42,92.00 853.08,92.00 854.73,92.00 856.38,92.00 858.03,92.00 859.69,92.00 861.34,92.00 862.99,92.00 864.65,92.00 866.30,92.00 867.95,92.00 869.61,92.00 871.26,92.00 872.91,92.00 874.57,92.00 876.22,92.00 877.87,92.00 879.53,92.00 881.18,92.00 882.83,92.00 884.49,92.00 886.14,92.00 887.79,92.00 889.45,92.00 891.10,92.00 892.75,92.00 894.40,92.00 896.06,92.00 897.71,92.00 899.36,92.00 901.02,92.00 902.67,92.00 904.32,92.00 905.98,92.00 907.63,92.00 909.28,92.00 910.94,92.00 912.59,92.00 914.24,92.00 915.90,92.00 917.55,92.00 919.20,92.00 920.86,92.00 922.51,92.00 924.16,92.00 925.82,92.00 927.47,92.00 929.12,92.00 930.77,92.00 932.43,92.00 934.08,92.00 935.73,92.00 937.39,92.00 939.04,92.00 940.69,92.00 942.35,92.00 944.00,92.00"/>
<polyline class="curve" stroke="#16a34a" points="86.00,538.00 87.65,538.00 89.31,538.00 90.96,538.00 92.61,538.00 94.27,538.00 95.92,538.00 97.57,538.00 99.23,538.00 100.88,538.00 102.53,538.00 104.18,538.00 105.84,538.00 107.49,538.00 109.14,538.00 110.80,538.00 112.45,538.00 114.10,538.00 115.76,538.00 117.41,538.00 119.06,538.00 120.72,538.00 122.37,538.00 124.02,493.25 125.68,491.05 127.33,488.89 128.98,486.76 130.64,484.67 132.29,482.61 133.94,480.57 135.60,478.57 137.25,476.59 138.90,474.63 140.55,472.70 142.21,470.78 143.86,468.89 145.51,467.01 147.17,465.15 148.82,463.30 150.47,461.47 152.13,459.66 153.78,457.85 155.43,456.06 157.09,454.29 158.74,452.52 160.39,450.76 162.05,449.02 163.70,447.28 165.35,445.55 167.01,443.84 168.66,442.13 170.31,440.42 171.97,438.73 173.62,437.04 175.27,435.36 176.92,433.69 178.58,432.02 180.23,430.36 181.88,428.71 183.54,427.06 185.19,425.41 186.84,423.77 188.50,422.14 190.15,420.51 191.80,418.88 193.46,417.26 195.11,415.64 196.76,414.03 198.42,412.42 200.07,410.82 201.72,409.21 203.38,407.62 205.03,406.02 206.68,404.43 208.34,402.84 209.99,401.25 211.64,399.67 213.29,398.09 214.95,396.51 216.60,394.93 218.25,393.36 219.91,391.79 221.56,390.22 223.21,388.65 224.87,387.09 226.52,385.53 228.17,383.97 229.83,382.41 231.48,380.85 233.13,379.29 234.79,377.74 236.44,376.19 238.09,374.64 239.75,373.09 241.40,371.54 243.05,370.00 244.71,368.45 246.36,366.91 248.01,365.37 249.66,363.82 251.32,362.29 252.97,360.75 254.62,359.21 256.28,357.67 257.93,356.14 259.58,354.60 261.24,353.07 262.89,351.54 264.54,350.01 266.20,348.48 267.85,346.95 269.50,345.42 271.16,343.89 272.81,342.36 274.46,340.83 276.12,339.31 277.77,337.78 279.42,336.26 281.08,334.73 282.73,333.21 284.38,331.69 286.03,330.17 287.69,328.65 289.34,327.12 290.99,325.60 292.65,324.08 294.30,322.56 295.95,321.05 297.61,319.53 299.26,318.01 300.91,316.49 302.57,314.97 304.22,313.46 305.87,311.94 307.53,310.43 309.18,308.91 310.83,307.40 312.49,305.88 314.14,304.37 315.79,302.85 317.45,301.34 319.10,299.82 320.75,298.31 322.40,296.80 324.06,295.29 325.71,293.77 327.36,292.26 329.02,290.75 330.67,289.24 332.32,287.73 333.98,286.22 335.63,284.71 337.28,283.20 338.94,281.69 340.59,280.18 342.24,278.67 343.90,277.16 345.55,275.65 347.20,274.14 348.86,272.63 350.51,271.12 352.16,269.61 353.82,268.10 355.47,266.60 357.12,265.09 358.77,263.58 360.43,262.07 362.08,260.56 363.73,259.06 365.39,257.55 367.04,256.04 368.69,254.54 370.35,253.03 372.00,251.52 373.65,250.02 375.31,248.51 376.96,247.01 378.61,245.50 380.27,243.99 381.92,242.49 383.57,240.98 385.23,239.48 386.88,237.97 388.53,236.47 390.18,234.96 391.84,233.46 393.49,231.96 395.14,230.45 396.80,228.95 398.45,227.45 400.10,225.94 401.76,224.44 403.41,222.94 405.06,221.44 406.72,219.93 408.37,218.43 410.02,216.93 411.68,215.43 413.33,213.93 414.98,212.43 416.64,210.93 418.29,209.43 419.94,207.93 421.60,206.43 423.25,204.93 424.90,203.43 426.55,201.94 428.21,200.44 429.86,198.94 431.51,197.45 433.17,195.95 434.82,194.46 436.47,192.97 438.13,191.47 439.78,189.98 441.43,188.49 443.09,187.00 444.74,185.51 446.39,184.02 448.05,182.53 449.70,181.05 451.35,179.56 453.01,178.08 454.66,176.60 456.31,175.12 457.97,173.64 459.62,172.16 461.27,170.68 462.92,169.21 464.58,167.74 466.23,166.27 467.88,164.80 469.54,163.33 471.19,161.87 472.84,160.41 474.50,158.95 476.15,157.50 477.80,156.05 479.46,154.60 481.11,153.16 482.76,151.72 484.42,150.28 486.07,148.85 487.72,147.42 489.38,146.00 491.03,144.58 492.68,143.17 494.34,141.76 495.99,140.36 497.64,138.97 499.29,137.58 500.95,136.20 502.60,134.83 504.25,133.46 505.91,132.11 507.56,130.76 509.21,129.43 510.87,128.10 512.52,126.79 514.17,125.48 515.83,124.19 517.48,122.91 519.13,121.65 520.79,120.40 522.44,119.16 524.09,117.94 525.75,116.74 527.40,115.56 529.05,114.39 530.71,113.25 532.36,112.12 534.01,111.02 535.66,109.94 537.32,108.88 538.97,107.85 540.62,106.84 542.28,105.86 543.93,104.91 545.58,103.99 547.24,103.10 548.89,102.24 550.54,101.41 552.20,100.62 553.85,99.86 555.50,99.14 557.16,98.46 558.81,97.81 560.46,97.20 562.12,96.62 563.77,96.09 565.42,95.59 567.08,95.14 568.73,94.72 570.38,94.33 572.03,93.99 573.69,93.68 575.34,93.40 576.99,93.16 578.65,92.95 580.30,92.77 581.95,92.61 583.61,92.48 585.26,92.38 586.91,92.29 588.57,92.22 590.22,92.16 591.87,92.11 593.53,92.08 595.18,92.06 596.83,92.04 598.49,92.03 600.14,92.02 601.79,92.01 603.45,92.01 605.10,92.00 606.75,92.00 608.40,92.00 610.06,92.00 611.71,92.00 613.36,92.00 615.02,92.00 616.67,92.00 618.32,92.00 619.98,92.00 621.63,92.00 623.28,92.00 624.94,92.00 626.59,92.00 628.24,92.00 629.90,92.00 631.55,92.00 633.20,92.00 634.86,92.00 636.51,92.00 638.16,92.00 639.82,92.00 641.47,92.00 643.12,92.00 644.77,92.00 646.43,92.00 648.08,92.00 649.73,92.00 651.39,92.00 653.04,92.00 654.69,92.00 656.35,92.00 658.00,92.00 659.65,92.00 661.31,92.00 662.96,92.00 664.61,92.00 666.27,92.00 667.92,92.00 669.57,92.00 671.23,92.00 672.88,92.00 674.53,92.00 676.18,92.00 677.84,92.00 679.49,92.00 681.14,92.00 682.80,92.00 684.45,92.00 686.10,92.00 687.76,92.00 689.41,92.00 691.06,92.00 692.72,92.00 694.37,92.00 696.02,92.00 697.68,92.00 699.33,92.00 700.98,92.00 702.64,92.00 704.29,92.00 705.94,92.00 707.60,92.00 709.25,92.00 710.90,92.00 712.55,92.00 714.21,92.00 715.86,92.00 717.51,92.00 719.17,92.00 720.82,92.00 722.47,92.00 724.13,92.00 725.78,92.00 727.43,92.00 729.09,92.00 730.74,92.00 732.39,92.00 734.05,92.00 735.70,92.00 737.35,92.00 739.01,92.00 740.66,92.00 742.31,92.00 743.97,92.00 745.62,92.00 747.27,92.00 748.92,92.00 750.58,92.00 752.23,92.00 753.88,92.00 755.54,92.00 757.19,92.00 758.84,92.00 760.50,92.00 762.15,92.00 763.80,92.00 765.46,92.00 767.11,92.00 768.76,92.00 770.42,92.00 772.07,92.00 773.72,92.00 775.38,92.00 777.03,92.00 778.68,92.00 780.34,92.00 781.99,92.00 783.64,92.00 785.29,92.00 786.95,92.00 788.60,92.00 790.25,92.00 791.91,92.00 793.56,92.00 795.21,92.00 796.87,92.00 798.52,92.00 800.17,92.00 801.83,92.00 803.48,92.00 805.13,92.00 806.79,92.00 808.44,92.00 810.09,92.00 811.75,92.00 813.40,92.00 815.05,92.00 816.71,92.00 818.36,92.00 820.01,92.00 821.66,92.00 823.32,92.00 824.97,92.00 826.62,92.00 828.28,92.00 829.93,92.00 831.58,92.00 833.24,92.00 834.89,92.00 836.54,92.00 838.20,92.00 839.85,92.00 841.50,92.00 843.16,92.00 844.81,92.00 846.46,92.00 848.12,92.00 849.77,92.00 851.42,92.00 853.08,92.00 854.73,92.00 856.38,92.00 858.03,92.00 859.69,92.00 861.34,92.00 862.99,92.00 864.65,92.00 866.30,92.00 867.95,92.00 869.61,92.00 871.26,92.00 872.91,92.00 874.57,92.00 876.22,92.00 877.87,92.00 879.53,92.00 881.18,92.00 882.83,92.00 884.49,92.00 886.14,92.00 887.79,92.00 889.45,92.00 891.10,92.00 892.75,92.00 894.40,92.00 896.06,92.00 897.71,92.00 899.36,92.00 901.02,92.00 902.67,92.00 904.32,92.00 905.98,92.00 907.63,92.00 909.28,92.00 910.94,92.00 912.59,92.00 914.24,92.00 915.90,92.00 917.55,92.00 919.20,92.00 920.86,92.00 922.51,92.00 924.16,92.00 925.82,92.00 927.47,92.00 929.12,92.00 930.77,92.00 932.43,92.00 934.08,92.00 935.73,92.00 937.39,92.00 939.04,92.00 940.69,92.00 942.35,92.00 944.00,92.00"/>
<polyline class="curve" stroke="#2563eb" points="86.00,538.00 87.65,538.00 89.31,538.00 90.96,538.00 92.61,538.00 94.27,538.00 95.92,538.00 97.57,538.00 99.23,538.00 100.88,538.00 102.53,538.00 104.18,538.00 105.84,538.00 107.49,538.00 109.14,538.00 110.80,538.00 112.45,538.00 114.10,538.00 115.76,538.00 117.41,538.00 119.06,538.00 120.72,538.00 122.37,538.00 124.02,538.00 125.68,538.00 127.33,538.00 128.98,538.00 130.64,538.00 132.29,538.00 133.94,538.00 135.60,538.00 137.25,538.00 138.90,538.00 140.55,538.00 142.21,538.00 143.86,538.00 145.51,538.00 147.17,538.00 148.82,538.00 150.47,538.00 152.13,538.00 153.78,538.00 155.43,538.00 157.09,538.00 158.74,538.00 160.39,538.00 162.05,538.00 163.70,538.00 165.35,538.00 167.01,538.00 168.66,538.00 170.31,538.00 171.97,538.00 173.62,537.74 175.27,536.06 176.92,534.38 178.58,532.72 180.23,531.06 181.88,529.40 183.54,527.75 185.19,526.11 186.84,524.47 188.50,522.83 190.15,521.20 191.80,519.58 193.46,517.96 195.11,516.34 196.76,514.73 198.42,513.12 200.07,511.51 201.72,509.91 203.38,508.31 205.03,506.71 206.68,505.12 208.34,503.53 209.99,501.95 211.64,500.36 213.29,498.78 214.95,497.20 216.60,495.63 218.25,494.05 219.91,492.48 221.56,490.91 223.21,489.35 224.87,487.78 226.52,486.22 228.17,484.66 229.83,483.10 231.48,481.54 233.13,479.99 234.79,478.44 236.44,476.88 238.09,475.33 239.75,473.78 241.40,472.24 243.05,470.69 244.71,469.15 246.36,467.60 248.01,466.06 249.66,464.52 251.32,462.98 252.97,461.44 254.62,459.90 256.28,458.37 257.93,456.83 259.58,455.30 261.24,453.76 262.89,452.23 264.54,450.70 266.20,449.17 267.85,447.64 269.50,446.11 271.16,444.58 272.81,443.06 274.46,441.53 276.12,440.00 277.77,438.48 279.42,436.95 281.08,435.43 282.73,433.91 284.38,432.38 286.03,430.86 287.69,429.34 289.34,427.82 290.99,426.30 292.65,424.78 294.30,423.26 295.95,421.74 297.61,420.22 299.26,418.70 300.91,417.19 302.57,415.67 304.22,414.15 305.87,412.63 307.53,411.12 309.18,409.60 310.83,408.09 312.49,406.57 314.14,405.06 315.79,403.54 317.45,402.03 319.10,400.52 320.75,399.00 322.40,397.49 324.06,395.98 325.71,394.47 327.36,392.95 329.02,391.44 330.67,389.93 332.32,388.42 333.98,386.91 335.63,385.40 337.28,383.89 338.94,382.38 340.59,380.87 342.24,379.36 343.90,377.85 345.55,376.34 347.20,374.83 348.86,373.32 350.51,371.81 352.16,370.30 353.82,368.79 355.47,367.28 357.12,365.77 358.77,364.26 360.43,362.76 362.08,361.25 363.73,359.74 365.39,358.23 367.04,356.72 368.69,355.22 370.35,353.71 372.00,352.20 373.65,350.69 375.31,349.19 376.96,347.68 378.61,346.17 380.27,344.67 381.92,343.16 383.57,341.65 385.23,340.15 386.88,338.64 388.53,337.13 390.18,335.63 391.84,334.12 393.49,332.61 395.14,331.11 396.80,329.60 398.45,328.10 400.10,326.59 401.76,325.08 403.41,323.58 405.06,322.07 406.72,320.57 408.37,319.06 410.02,317.56 411.68,316.05 413.33,314.55 414.98,313.04 416.64,311.53 418.29,310.03 419.94,308.52 421.60,307.02 423.25,305.51 424.90,304.01 426.55,302.50 428.21,301.00 429.86,299.49 431.51,297.99 433.17,296.48 434.82,294.98 436.47,293.47 438.13,291.97 439.78,290.47 441.43,288.96 443.09,287.46 444.74,285.95 446.39,284.45 448.05,282.94 449.70,281.44 451.35,279.93 453.01,278.43 454.66,276.93 456.31,275.42 457.97,273.92 459.62,272.41 461.27,270.91 462.92,269.40 464.58,267.90 466.23,266.40 467.88,264.89 469.54,263.39 471.19,261.89 472.84,260.38 474.50,258.88 476.15,257.37 477.80,255.87 479.46,254.37 481.11,252.86 482.76,251.36 484.42,249.86 486.07,248.35 487.72,246.85 489.38,245.35 491.03,243.85 492.68,242.34 494.34,240.84 495.99,239.34 497.64,237.84 499.29,236.33 500.95,234.83 502.60,233.33 504.25,231.83 505.91,230.33 507.56,228.82 509.21,227.32 510.87,225.82 512.52,224.32 514.17,222.82 515.83,221.32 517.48,219.82 519.13,218.32 520.79,216.82 522.44,215.32 524.09,213.82 525.75,212.32 527.40,210.82 529.05,209.32 530.71,207.83 532.36,206.33 534.01,204.83 535.66,203.33 537.32,201.84 538.97,200.34 540.62,198.85 542.28,197.35 543.93,195.86 545.58,194.37 547.24,192.87 548.89,191.38 550.54,189.89 552.20,188.40 553.85,186.91 555.50,185.42 557.16,183.93 558.81,182.45 560.46,180.96 562.12,179.48 563.77,178.00 565.42,176.51 567.08,175.03 568.73,173.56 570.38,172.08 572.03,170.60 573.69,169.13 575.34,167.66 576.99,166.19 578.65,164.72 580.30,163.26 581.95,161.80 583.61,160.34 585.26,158.88 586.91,157.42 588.57,155.97 590.22,154.53 591.87,153.08 593.53,151.64 595.18,150.21 596.83,148.78 598.49,147.35 600.14,145.93 601.79,144.51 603.45,143.10 605.10,141.69 606.75,140.29 608.40,138.90 610.06,137.51 611.71,136.13 613.36,134.76 615.02,133.40 616.67,132.04 618.32,130.70 619.98,129.36 621.63,128.04 623.28,126.72 624.94,125.42 626.59,124.13 628.24,122.85 629.90,121.59 631.55,120.34 633.20,119.11 634.86,117.89 636.51,116.69 638.16,115.50 639.82,114.34 641.47,113.19 643.12,112.07 644.77,110.97 646.43,109.89 648.08,108.83 649.73,107.80 651.39,106.80 653.04,105.82 654.69,104.87 656.35,103.95 658.00,103.06 659.65,102.20 661.31,101.38 662.96,100.59 664.61,99.83 666.27,99.11 667.92,98.43 669.57,97.78 671.23,97.17 672.88,96.60 674.53,96.07 676.18,95.57 677.84,95.12 679.49,94.70 681.14,94.32 682.80,93.97 684.45,93.67 686.10,93.39 687.76,93.15 689.41,92.94 691.06,92.76 692.72,92.61 694.37,92.48 696.02,92.37 697.68,92.28 699.33,92.21 700.98,92.16 702.64,92.11 704.29,92.08 705.94,92.06 707.60,92.04 709.25,92.02 710.90,92.02 712.55,92.01 714.21,92.01 715.86,92.00 717.51,92.00 719.17,92.00 720.82,92.00 722.47,92.00 724.13,92.00 725.78,92.00 727.43,92.00 729.09,92.00 730.74,92.00 732.39,92.00 734.05,92.00 735.70,92.00 737.35,92.00 739.01,92.00 740.66,92.00 742.31,92.00 743.97,92.00 745.62,92.00 747.27,92.00 748.92,92.00 750.58,92.00 752.23,92.00 753.88,92.00 755.54,92.00 757.19,92.00 758.84,92.00 760.50,92.00 762.15,92.00 763.80,92.00 765.46,92.00 767.11,92.00 768.76,92.00 770.42,92.00 772.07,92.00 773.72,92.00 775.38,92.00 777.03,92.00 778.68,92.00 780.34,92.00 781.99,92.00 783.64,92.00 785.29,92.00 786.95,92.00 788.60,92.00 790.25,92.00 791.91,92.00 793.56,92.00 795.21,92.00 796.87,92.00 798.52,92.00 800.17,92.00 801.83,92.00 803.48,92.00 805.13,92.00 806.79,92.00 808.44,92.00 810.09,92.00 811.75,92.00 813.40,92.00 815.05,92.00 816.71,92.00 818.36,92.00 820.01,92.00 821.66,92.00 823.32,92.00 824.97,92.00 826.62,92.00 828.28,92.00 829.93,92.00 831.58,92.00 833.24,92.00 834.89,92.00 836.54,92.00 838.20,92.00 839.85,92.00 841.50,92.00 843.16,92.00 844.81,92.00 846.46,92.00 848.12,92.00 849.77,92.00 851.42,92.00 853.08,92.00 854.73,92.00 856.38,92.00 858.03,92.00 859.69,92.00 861.34,92.00 862.99,92.00 864.65,92.00 866.30,92.00 867.95,92.00 869.61,92.00 871.26,92.00 872.91,92.00 874.57,92.00 876.22,92.00 877.87,92.00 879.53,92.00 881.18,92.00 882.83,92.00 884.49,92.00 886.14,92.00 887.79,92.00 889.45,92.00 891.10,92.00 892.75,92.00 894.40,92.00 896.06,92.00 897.71,92.00 899.36,92.00 901.02,92.00 902.67,92.00 904.32,92.00 905.98,92.00 907.63,92.00 909.28,92.00 910.94,92.00 912.59,92.00 914.24,92.00 915.90,92.00 917.55,92.00 919.20,92.00 920.86,92.00 922.51,92.00 924.16,92.00 925.82,92.00 927.47,92.00 929.12,92.00 930.77,92.00 932.43,92.00 934.08,92.00 935.73,92.00 937.39,92.00 939.04,92.00 940.69,92.00 942.35,92.00 944.00,92.00"/>
<polyline class="curve" stroke="#7c3aed" points="86.00,538.00 87.65,538.00 89.31,538.00 90.96,538.00 92.61,538.00 94.27,538.00 95.92,538.00 97.57,538.00 99.23,538.00 100.88,538.00 102.53,538.00 104.18,538.00 105.84,538.00 107.49,538.00 109.14,538.00 110.80,538.00 112.45,538.00 114.10,538.00 115.76,538.00 117.41,538.00 119.06,538.00 120.72,538.00 122.37,538.00 124.02,538.00 125.68,538.00 127.33,538.00 128.98,538.00 130.64,538.00 132.29,538.00 133.94,538.00 135.60,538.00 137.25,538.00 138.90,538.00 140.55,538.00 142.21,538.00 143.86,538.00 145.51,538.00 147.17,538.00 148.82,538.00 150.47,538.00 152.13,538.00 153.78,538.00 155.43,538.00 157.09,538.00 158.74,538.00 160.39,538.00 162.05,538.00 163.70,538.00 165.35,538.00 167.01,538.00 168.66,538.00 170.31,538.00 171.97,538.00 173.62,538.00 175.27,538.00 176.92,538.00 178.58,538.00 180.23,538.00 181.88,538.00 183.54,538.00 185.19,538.00 186.84,538.00 188.50,538.00 190.15,538.00 191.80,538.00 193.46,538.00 195.11,538.00 196.76,538.00 198.42,538.00 200.07,538.00 201.72,538.00 203.38,538.00 205.03,538.00 206.68,538.00 208.34,538.00 209.99,538.00 211.64,538.00 213.29,538.00 214.95,538.00 216.60,538.00 218.25,538.00 219.91,538.00 221.56,538.00 223.21,538.00 224.87,538.00 226.52,538.00 228.17,538.00 229.83,538.00 231.48,538.00 233.13,538.00 234.79,538.00 236.44,538.00 238.09,538.00 239.75,538.00 241.40,538.00 243.05,538.00 244.71,538.00 246.36,538.00 248.01,538.00 249.66,538.00 251.32,538.00 252.97,538.00 254.62,538.00 256.28,538.00 257.93,538.00 259.58,538.00 261.24,538.00 262.89,538.00 264.54,538.00 266.20,538.00 267.85,538.00 269.50,538.00 271.16,538.00 272.81,538.00 274.46,538.00 276.12,538.00 277.77,538.00 279.42,537.65 281.08,536.12 282.73,534.60 284.38,533.08 286.03,531.56 287.69,530.03 289.34,528.51 290.99,526.99 292.65,525.47 294.30,523.95 295.95,522.43 297.61,520.92 299.26,519.40 300.91,517.88 302.57,516.36 304.22,514.85 305.87,513.33 307.53,511.81 309.18,510.30 310.83,508.78 312.49,507.27 314.14,505.75 315.79,504.24 317.45,502.73 319.10,501.21 320.75,499.70 322.40,498.19 324.06,496.67 325.71,495.16 327.36,493.65 329.02,492.14 330.67,490.62 332.32,489.11 333.98,487.60 335.63,486.09 337.28,484.58 338.94,483.07 340.59,481.56 342.24,480.05 343.90,478.54 345.55,477.03 347.20,475.52 348.86,474.01 350.51,472.50 352.16,470.99 353.82,469.48 355.47,467.98 357.12,466.47 358.77,464.96 360.43,463.45 362.08,461.94 363.73,460.43 365.39,458.93 367.04,457.42 368.69,455.91 370.35,454.40 372.00,452.90 373.65,451.39 375.31,449.88 376.96,448.37 378.61,446.87 380.27,445.36 381.92,443.85 383.57,442.35 385.23,440.84 386.88,439.33 388.53,437.83 390.18,436.32 391.84,434.81 393.49,433.31 395.14,431.80 396.80,430.30 398.45,428.79 400.10,427.28 401.76,425.78 403.41,424.27 405.06,422.77 406.72,421.26 408.37,419.76 410.02,418.25 411.68,416.74 413.33,415.24 414.98,413.73 416.64,412.23 418.29,410.72 419.94,409.22 421.60,407.71 423.25,406.21 424.90,404.70 426.55,403.20 428.21,401.69 429.86,400.19 431.51,398.68 433.17,397.18 434.82,395.67 436.47,394.17 438.13,392.66 439.78,391.16 441.43,389.65 443.09,388.15 444.74,386.64 446.39,385.14 448.05,383.63 449.70,382.13 451.35,380.62 453.01,379.12 454.66,377.61 456.31,376.11 457.97,374.61 459.62,373.10 461.27,371.60 462.92,370.09 464.58,368.59 466.23,367.08 467.88,365.58 469.54,364.07 471.19,362.57 472.84,361.06 474.50,359.56 476.15,358.06 477.80,356.55 479.46,355.05 481.11,353.54 482.76,352.04 484.42,350.53 486.07,349.03 487.72,347.53 489.38,346.02 491.03,344.52 492.68,343.01 494.34,341.51 495.99,340.01 497.64,338.50 499.29,337.00 500.95,335.49 502.60,333.99 504.25,332.48 505.91,330.98 507.56,329.48 509.21,327.97 510.87,326.47 512.52,324.96 514.17,323.46 515.83,321.96 517.48,320.45 519.13,318.95 520.79,317.44 522.44,315.94 524.09,314.44 525.75,312.93 527.40,311.43 529.05,309.92 530.71,308.42 532.36,306.92 534.01,305.41 535.66,303.91 537.32,302.40 538.97,300.90 540.62,299.40 542.28,297.89 543.93,296.39 545.58,294.89 547.24,293.38 548.89,291.88 550.54,290.37 552.20,288.87 553.85,287.37 555.50,285.86 557.16,284.36 558.81,282.86 560.46,281.35 562.12,279.85 563.77,278.34 565.42,276.84 567.08,275.34 568.73,273.83 570.38,272.33 572.03,270.83 573.69,269.32 575.34,267.82 576.99,266.32 578.65,264.81 580.30,263.31 581.95,261.81 583.61,260.30 585.26,258.80 586.91,257.30 588.57,255.79 590.22,254.29 591.87,252.79 593.53,251.29 595.18,249.78 596.83,248.28 598.49,246.78 600.14,245.27 601.79,243.77 603.45,242.27 605.10,240.77 606.75,239.26 608.40,237.76 610.06,236.26 611.71,234.76 613.36,233.26 615.02,231.76 616.67,230.25 618.32,228.75 619.98,227.25 621.63,225.75 623.28,224.25 624.94,222.75 626.59,221.25 628.24,219.75 629.90,218.25 631.55,216.75 633.20,215.25 634.86,213.75 636.51,212.25 638.16,210.75 639.82,209.26 641.47,207.76 643.12,206.26 644.77,204.76 646.43,203.27 648.08,201.77 649.73,200.28 651.39,198.78 653.04,197.29 654.69,195.79 656.35,194.30 658.00,192.81 659.65,191.31 661.31,189.82 662.96,188.33 664.61,186.84 666.27,185.36 667.92,183.87 669.57,182.38 671.23,180.90 672.88,179.41 674.53,177.93 676.18,176.45 677.84,174.97 679.49,173.49 681.14,172.01 682.80,170.54 684.45,169.07 686.10,167.59 687.76,166.13 689.41,164.66 691.06,163.19 692.72,161.73 694.37,160.27 696.02,158.82 697.68,157.36 699.33,155.91 700.98,154.46 702.64,153.02 704.29,151.58 705.94,150.15 707.60,148.71 709.25,147.29 710.90,145.86 712.55,144.45 714.21,143.04 715.86,141.63 717.51,140.23 719.17,138.84 720.82,137.45 722.47,136.07 724.13,134.70 725.78,133.34 727.43,131.99 729.09,130.64 730.74,129.31 732.39,127.98 734.05,126.67 735.70,125.37 737.35,124.08 739.01,122.80 740.66,121.54 742.31,120.29 743.97,119.05 745.62,117.84 747.27,116.64 748.92,115.45 750.58,114.29 752.23,113.15 753.88,112.02 755.54,110.92 757.19,109.84 758.84,108.79 760.50,107.76 762.15,106.75 763.80,105.78 765.46,104.83 767.11,103.91 768.76,103.02 770.42,102.17 772.07,101.34 773.72,100.55 775.38,99.80 777.03,99.08 778.68,98.40 780.34,97.75 781.99,97.14 783.64,96.58 785.29,96.04 786.95,95.55 788.60,95.10 790.25,94.68 791.91,94.30 793.56,93.96 795.21,93.65 796.87,93.38 798.52,93.14 800.17,92.93 801.83,92.75 803.48,92.60 805.13,92.47 806.79,92.37 808.44,92.28 810.09,92.21 811.75,92.15 813.40,92.11 815.05,92.08 816.71,92.05 818.36,92.04 820.01,92.02 821.66,92.02 823.32,92.01 824.97,92.01 826.62,92.00 828.28,92.00 829.93,92.00 831.58,92.00 833.24,92.00 834.89,92.00 836.54,92.00 838.20,92.00 839.85,92.00 841.50,92.00 843.16,92.00 844.81,92.00 846.46,92.00 848.12,92.00 849.77,92.00 851.42,92.00 853.08,92.00 854.73,92.00 856.38,92.00 858.03,92.00 859.69,92.00 861.34,92.00 862.99,92.00 864.65,92.00 866.30,92.00 867.95,92.00 869.61,92.00 871.26,92.00 872.91,92.00 874.57,92.00 876.22,92.00 877.87,92.00 879.53,92.00 881.18,92.00 882.83,92.00 884.49,92.00 886.14,92.00 887.79,92.00 889.45,92.00 891.10,92.00 892.75,92.00 894.40,92.00 896.06,92.00 897.71,92.00 899.36,92.00 901.02,92.00 902.67,92.00 904.32,92.00 905.98,92.00 907.63,92.00 909.28,92.00 910.94,92.00 912.59,92.00 914.24,92.00 915.90,92.00 917.55,92.00 919.20,92.00 920.86,92.00 922.51,92.00 924.16,92.00 925.82,92.00 927.47,92.00 929.12,92.00 930.77,92.00 932.43,92.00 934.08,92.00 935.73,92.00 937.39,92.00 939.04,92.00 940.69,92.00 942.35,92.00 944.00,92.00"/>
<rect x="722" y="94" width="206" height="126" rx="4" fill="#ffffff" stroke="#cbd5e1"/>
<line x1="738" y1="114" x2="764" y2="114" stroke="#c2410c" stroke-width="3"/>
<text class="legend" x="774" y="118">d = 12</text>
<line x1="738" y1="136" x2="764" y2="136" stroke="#d97706" stroke-width="3"/>
<text class="legend" x="774" y="140">d = 18</text>
<line x1="738" y1="158" x2="764" y2="158" stroke="#16a34a" stroke-width="3"/>
<text class="legend" x="774" y="162">d = 24</text>
<line x1="738" y1="180" x2="764" y2="180" stroke="#2563eb" stroke-width="3"/>
<text class="legend" x="774" y="184">d = 30 (current)</text>
<line x1="738" y1="202" x2="764" y2="202" stroke="#7c3aed" stroke-width="3"/>
<text class="legend" x="774" y="206">d = 36</text>
<text class="note" x="86" y="612">This is a general finite-leaf projection model, not a DApp-specific event-rate model.</text>
</svg>
