<svg xmlns="http://www.w3.org/2000/svg" width="980" height="620" viewBox="0 0 980 620">
<style>
text{font-family:Arial,sans-serif;fill:#172033}.title{font-size:24px;font-weight:bold}.subtitle{font-size:14px;fill:#475569}.axis{font-size:13px;fill:#334155}.tick{font-size:12px;fill:#475569}.legend{font-size:13px;fill:#172033}.grid{stroke:#e2e8f0;stroke-width:1}.axisline{stroke:#334155;stroke-width:1.4}.curve{fill:none;stroke-width:3}.marker{stroke:#64748b;stroke-width:1.4;stroke-dasharray:5 5}.note{font-size:12px;fill:#64748b}</style>
<rect x="0" y="0" width="980" height="620" fill="#ffffff"/>
<text class="title" x="86" y="36">General channel lifespan leaf collision probability</text>
<text class="subtitle" x="86" y="62">Poisson arrival model with one new storage key per minute on average.</text>
<text class="subtitle" x="86" y="84">P(collision by day t) = 1 - exp(-mu) * (1 + mu / 2^d)^(2^d), where mu = 1440t.</text>
<rect x="86" y="96" width="858" height="442" fill="#f8fafc" stroke="#cbd5e1" stroke-width="1"/>
<line class="grid" x1="86.00" y1="96" x2="86.00" y2="538"/>
<text class="tick" x="86.00" y="562" text-anchor="middle">0</text>
<line class="grid" x1="156.52" y1="96" x2="156.52" y2="538"/>
<text class="tick" x="156.52" y="562" text-anchor="middle">30</text>
<line class="grid" x1="227.04" y1="96" x2="227.04" y2="538"/>
<text class="tick" x="227.04" y="562" text-anchor="middle">60</text>
<line class="grid" x1="297.56" y1="96" x2="297.56" y2="538"/>
<text class="tick" x="297.56" y="562" text-anchor="middle">90</text>
<line class="grid" x1="368.08" y1="96" x2="368.08" y2="538"/>
<text class="tick" x="368.08" y="562" text-anchor="middle">120</text>
<line class="grid" x1="509.12" y1="96" x2="509.12" y2="538"/>
<text class="tick" x="509.12" y="562" text-anchor="middle">180</text>
<line class="grid" x1="650.16" y1="96" x2="650.16" y2="538"/>
<text class="tick" x="650.16" y="562" text-anchor="middle">240</text>
<line class="grid" x1="791.21" y1="96" x2="791.21" y2="538"/>
<text class="tick" x="791.21" y="562" text-anchor="middle">300</text>
<line class="grid" x1="944.00" y1="96" x2="944.00" y2="538"/>
<text class="tick" x="944.00" y="562" text-anchor="middle">365</text>
<line class="grid" x1="86" y1="538.00" x2="944" y2="538.00"/>
<text class="tick" x="74" y="542.00" text-anchor="end">0</text>
<line class="grid" x1="86" y1="493.80" x2="944" y2="493.80"/>
<text class="tick" x="74" y="497.80" text-anchor="end">0.1</text>
<line class="grid" x1="86" y1="427.50" x2="944" y2="427.50"/>
<text class="tick" x="74" y="431.50" text-anchor="end">0.2</text>
<line class="grid" x1="86" y1="317.00" x2="944" y2="317.00"/>
<text class="tick" x="74" y="321.00" text-anchor="end">0.5</text>
<line class="grid" x1="86" y1="206.50" x2="944" y2="206.50"/>
<text class="tick" x="74" y="210.50" text-anchor="end">0.8</text>
<line class="grid" x1="86" y1="140.20" x2="944" y2="140.20"/>
<text class="tick" x="74" y="144.20" text-anchor="end">0.9</text>
<line class="grid" x1="86" y1="96.00" x2="944" y2="96.00"/>
<text class="tick" x="74" y="100.00" text-anchor="end">1</text>
<line class="axisline" x1="86" y1="538" x2="944" y2="538"/>
<line class="axisline" x1="86" y1="96" x2="86" y2="538"/>
<text class="axis" x="515.0" y="592" text-anchor="middle">Channel operating period, days</text>
<text class="axis" transform="translate(22 317.0) rotate(-90)" text-anchor="middle">Probability of at least one leaf collision by that time</text>
<line class="marker" x1="148.98" y1="96" x2="148.98" y2="538"/>
<text class="note" x="153.98" y="310.00">d=30 p50: 26.8d</text>
<line class="marker" x1="200.79" y1="96" x2="200.79" y2="538"/>
<text class="note" x="205.79" y="133.20">d=30 p90: 48.8d</text>
<polyline class="curve" stroke="#c2410c" points="86.00,538.00 88.35,96.00 90.70,96.00 93.05,96.00 95.40,96.00 97.75,96.00 100.10,96.00 102.45,96.00 104.81,96.00 107.16,96.00 109.51,96.00 111.86,96.00 114.21,96.00 116.56,96.00 118.91,96.00 121.26,96.00 123.61,96.00 125.96,96.00 128.31,96.00 130.66,96.00 133.01,96.00 135.36,96.00 137.72,96.00 140.07,96.00 142.42,96.00 144.77,96.00 147.12,96.00 149.47,96.00 151.82,96.00 154.17,96.00 156.52,96.00 158.87,96.00 161.22,96.00 163.57,96.00 165.92,96.00 168.27,96.00 170.62,96.00 172.98,96.00 175.33,96.00 177.68,96.00 180.03,96.00 182.38,96.00 184.73,96.00 187.08,96.00 189.43,96.00 191.78,96.00 194.13,96.00 196.48,96.00 198.83,96.00 201.18,96.00 203.53,96.00 205.88,96.00 208.24,96.00 210.59,96.00 212.94,96.00 215.29,96.00 217.64,96.00 219.99,96.00 222.34,96.00 224.69,96.00 227.04,96.00 229.39,96.00 231.74,96.00 234.09,96.00 236.44,96.00 238.79,96.00 241.15,96.00 243.50,96.00 245.85,96.00 248.20,96.00 250.55,96.00 252.90,96.00 255.25,96.00 257.60,96.00 259.95,96.00 262.30,96.00 264.65,96.00 267.00,96.00 269.35,96.00 271.70,96.00 274.05,96.00 276.41,96.00 278.76,96.00 281.11,96.00 283.46,96.00 285.81,96.00 288.16,96.00 290.51,96.00 292.86,96.00 295.21,96.00 297.56,96.00 299.91,96.00 302.26,96.00 304.61,96.00 306.96,96.00 309.32,96.00 311.67,96.00 314.02,96.00 316.37,96.00 318.72,96.00 321.07,96.00 323.42,96.00 325.77,96.00 328.12,96.00 330.47,96.00 332.82,96.00 335.17,96.00 337.52,96.00 339.87,96.00 342.22,96.00 344.58,96.00 346.93,96.00 349.28,96.00 351.63,96.00 353.98,96.00 356.33,96.00 358.68,96.00 361.03,96.00 363.38,96.00 365.73,96.00 368.08,96.00 370.43,96.00 372.78,96.00 375.13,96.00 377.48,96.00 379.84,96.00 382.19,96.00 384.54,96.00 386.89,96.00 389.24,96.00 391.59,96.00 393.94,96.00 396.29,96.00 398.64,96.00 400.99,96.00 403.34,96.00 405.69,96.00 408.04,96.00 410.39,96.00 412.75,96.00 415.10,96.00 417.45,96.00 419.80,96.00 422.15,96.00 424.50,96.00 426.85,96.00 429.20,96.00 431.55,96.00 433.90,96.00 436.25,96.00 438.60,96.00 440.95,96.00 443.30,96.00 445.65,96.00 448.01,96.00 450.36,96.00 452.71,96.00 455.06,96.00 457.41,96.00 459.76,96.00 462.11,96.00 464.46,96.00 466.81,96.00 469.16,96.00 471.51,96.00 473.86,96.00 476.21,96.00 478.56,96.00 480.92,96.00 483.27,96.00 485.62,96.00 487.97,96.00 490.32,96.00 492.67,96.00 495.02,96.00 497.37,96.00 499.72,96.00 502.07,96.00 504.42,96.00 506.77,96.00 509.12,96.00 511.47,96.00 513.82,96.00 516.18,96.00 518.53,96.00 520.88,96.00 523.23,96.00 525.58,96.00 527.93,96.00 530.28,96.00 532.63,96.00 534.98,96.00 537.33,96.00 539.68,96.00 542.03,96.00 544.38,96.00 546.73,96.00 549.08,96.00 551.44,96.00 553.79,96.00 556.14,96.00 558.49,96.00 560.84,96.00 563.19,96.00 565.54,96.00 567.89,96.00 570.24,96.00 572.59,96.00 574.94,96.00 577.29,96.00 579.64,96.00 581.99,96.00 584.35,96.00 586.70,96.00 589.05,96.00 591.40,96.00 593.75,96.00 596.10,96.00 598.45,96.00 600.80,96.00 603.15,96.00 605.50,96.00 607.85,96.00 610.20,96.00 612.55,96.00 614.90,96.00 617.25,96.00 619.61,96.00 621.96,96.00 624.31,96.00 626.66,96.00 629.01,96.00 631.36,96.00 633.71,96.00 636.06,96.00 638.41,96.00 640.76,96.00 643.11,96.00 645.46,96.00 647.81,96.00 650.16,96.00 652.52,96.00 654.87,96.00 657.22,96.00 659.57,96.00 661.92,96.00 664.27,96.00 666.62,96.00 668.97,96.00 671.32,96.00 673.67,96.00 676.02,96.00 678.37,96.00 680.72,96.00 683.07,96.00 685.42,96.00 687.78,96.00 690.13,96.00 692.48,96.00 694.83,96.00 697.18,96.00 699.53,96.00 701.88,96.00 704.23,96.00 706.58,96.00 708.93,96.00 711.28,96.00 713.63,96.00 715.98,96.00 718.33,96.00 720.68,96.00 723.04,96.00 725.39,96.00 727.74,96.00 730.09,96.00 732.44,96.00 734.79,96.00 737.14,96.00 739.49,96.00 741.84,96.00 744.19,96.00 746.54,96.00 748.89,96.00 751.24,96.00 753.59,96.00 755.95,96.00 758.30,96.00 760.65,96.00 763.00,96.00 765.35,96.00 767.70,96.00 770.05,96.00 772.40,96.00 774.75,96.00 777.10,96.00 779.45,96.00 781.80,96.00 784.15,96.00 786.50,96.00 788.85,96.00 791.21,96.00 793.56,96.00 795.91,96.00 798.26,96.00 800.61,96.00 802.96,96.00 805.31,96.00 807.66,96.00 810.01,96.00 812.36,96.00 814.71,96.00 817.06,96.00 819.41,96.00 821.76,96.00 824.12,96.00 826.47,96.00 828.82,96.00 831.17,96.00 833.52,96.00 835.87,96.00 838.22,96.00 840.57,96.00 842.92,96.00 845.27,96.00 847.62,96.00 849.97,96.00 852.32,96.00 854.67,96.00 857.02,96.00 859.38,96.00 861.73,96.00 864.08,96.00 866.43,96.00 868.78,96.00 871.13,96.00 873.48,96.00 875.83,96.00 878.18,96.00 880.53,96.00 882.88,96.00 885.23,96.00 887.58,96.00 889.93,96.00 892.28,96.00 894.64,96.00 896.99,96.00 899.34,96.00 901.69,96.00 904.04,96.00 906.39,96.00 908.74,96.00 911.09,96.00 913.44,96.00 915.79,96.00 918.14,96.00 920.49,96.00 922.84,96.00 925.19,96.00 927.55,96.00 929.90,96.00 932.25,96.00 934.60,96.00 936.95,96.00 939.30,96.00 941.65,96.00 944.00,96.00"/>
<polyline class="curve" stroke="#d97706" points="86.00,538.00 88.35,104.59 90.70,96.00 93.05,96.00 95.40,96.00 97.75,96.00 100.10,96.00 102.45,96.00 104.81,96.00 107.16,96.00 109.51,96.00 111.86,96.00 114.21,96.00 116.56,96.00 118.91,96.00 121.26,96.00 123.61,96.00 125.96,96.00 128.31,96.00 130.66,96.00 133.01,96.00 135.36,96.00 137.72,96.00 140.07,96.00 142.42,96.00 144.77,96.00 147.12,96.00 149.47,96.00 151.82,96.00 154.17,96.00 156.52,96.00 158.87,96.00 161.22,96.00 163.57,96.00 165.92,96.00 168.27,96.00 170.62,96.00 172.98,96.00 175.33,96.00 177.68,96.00 180.03,96.00 182.38,96.00 184.73,96.00 187.08,96.00 189.43,96.00 191.78,96.00 194.13,96.00 196.48,96.00 198.83,96.00 201.18,96.00 203.53,96.00 205.88,96.00 208.24,96.00 210.59,96.00 212.94,96.00 215.29,96.00 217.64,96.00 219.99,96.00 222.34,96.00 224.69,96.00 227.04,96.00 229.39,96.00 231.74,96.00 234.09,96.00 236.44,96.00 238.79,96.00 241.15,96.00 243.50,96.00 245.85,96.00 248.20,96.00 250.55,96.00 252.90,96.00 255.25,96.00 257.60,96.00 259.95,96.00 262.30,96.00 264.65,96.00 267.00,96.00 269.35,96.00 271.70,96.00 274.05,96.00 276.41,96.00 278.76,96.00 281.11,96.00 283.46,96.00 285.81,96.00 288.16,96.00 290.51,96.00 292.86,96.00 295.21,96.00 297.56,96.00 299.91,96.00 302.26,96.00 304.61,96.00 306.96,96.00 309.32,96.00 311.67,96.00 314.02,96.00 316.37,96.00 318.72,96.00 321.07,96.00 323.42,96.00 325.77,96.00 328.12,96.00 330.47,96.00 332.82,96.00 335.17,96.00 337.52,96.00 339.87,96.00 342.22,96.00 344.58,96.00 346.93,96.00 349.28,96.00 351.63,96.00 353.98,96.00 356.33,96.00 358.68,96.00 361.03,96.00 363.38,96.00 365.73,96.00 368.08,96.00 370.43,96.00 372.78,96.00 375.13,96.00 377.48,96.00 379.84,96.00 382.19,96.00 384.54,96.00 386.89,96.00 389.24,96.00 391.59,96.00 393.94,96.00 396.29,96.00 398.64,96.00 400.99,96.00 403.34,96.00 405.69,96.00 408.04,96.00 410.39,96.00 412.75,96.00 415.10,96.00 417.45,96.00 419.80,96.00 422.15,96.00 424.50,96.00 426.85,96.00 429.20,96.00 431.55,96.00 433.90,96.00 436.25,96.00 438.60,96.00 440.95,96.00 443.30,96.00 445.65,96.00 448.01,96.00 450.36,96.00 452.71,96.00 455.06,96.00 457.41,96.00 459.76,96.00 462.11,96.00 464.46,96.00 466.81,96.00 469.16,96.00 471.51,96.00 473.86,96.00 476.21,96.00 478.56,96.00 480.92,96.00 483.27,96.00 485.62,96.00 487.97,96.00 490.32,96.00 492.67,96.00 495.02,96.00 497.37,96.00 499.72,96.00 502.07,96.00 504.42,96.00 506.77,96.00 509.12,96.00 511.47,96.00 513.82,96.00 516.18,96.00 518.53,96.00 520.88,96.00 523.23,96.00 525.58,96.00 527.93,96.00 530.28,96.00 532.63,96.00 534.98,96.00 537.33,96.00 539.68,96.00 542.03,96.00 544.38,96.00 546.73,96.00 549.08,96.00 551.44,96.00 553.79,96.00 556.14,96.00 558.49,96.00 560.84,96.00 563.19,96.00 565.54,96.00 567.89,96.00 570.24,96.00 572.59,96.00 574.94,96.00 577.29,96.00 579.64,96.00 581.99,96.00 584.35,96.00 586.70,96.00 589.05,96.00 591.40,96.00 593.75,96.00 596.10,96.00 598.45,96.00 600.80,96.00 603.15,96.00 605.50,96.00 607.85,96.00 610.20,96.00 612.55,96.00 614.90,96.00 617.25,96.00 619.61,96.00 621.96,96.00 624.31,96.00 626.66,96.00 629.01,96.00 631.36,96.00 633.71,96.00 636.06,96.00 638.41,96.00 640.76,96.00 643.11,96.00 645.46,96.00 647.81,96.00 650.16,96.00 652.52,96.00 654.87,96.00 657.22,96.00 659.57,96.00 661.92,96.00 664.27,96.00 666.62,96.00 668.97,96.00 671.32,96.00 673.67,96.00 676.02,96.00 678.37,96.00 680.72,96.00 683.07,96.00 685.42,96.00 687.78,96.00 690.13,96.00 692.48,96.00 694.83,96.00 697.18,96.00 699.53,96.00 701.88,96.00 704.23,96.00 706.58,96.00 708.93,96.00 711.28,96.00 713.63,96.00 715.98,96.00 718.33,96.00 720.68,96.00 723.04,96.00 725.39,96.00 727.74,96.00 730.09,96.00 732.44,96.00 734.79,96.00 737.14,96.00 739.49,96.00 741.84,96.00 744.19,96.00 746.54,96.00 748.89,96.00 751.24,96.00 753.59,96.00 755.95,96.00 758.30,96.00 760.65,96.00 763.00,96.00 765.35,96.00 767.70,96.00 770.05,96.00 772.40,96.00 774.75,96.00 777.10,96.00 779.45,96.00 781.80,96.00 784.15,96.00 786.50,96.00 788.85,96.00 791.21,96.00 793.56,96.00 795.91,96.00 798.26,96.00 800.61,96.00 802.96,96.00 805.31,96.00 807.66,96.00 810.01,96.00 812.36,96.00 814.71,96.00 817.06,96.00 819.41,96.00 821.76,96.00 824.12,96.00 826.47,96.00 828.82,96.00 831.17,96.00 833.52,96.00 835.87,96.00 838.22,96.00 840.57,96.00 842.92,96.00 845.27,96.00 847.62,96.00 849.97,96.00 852.32,96.00 854.67,96.00 857.02,96.00 859.38,96.00 861.73,96.00 864.08,96.00 866.43,96.00 868.78,96.00 871.13,96.00 873.48,96.00 875.83,96.00 878.18,96.00 880.53,96.00 882.88,96.00 885.23,96.00 887.58,96.00 889.93,96.00 892.28,96.00 894.64,96.00 896.99,96.00 899.34,96.00 901.69,96.00 904.04,96.00 906.39,96.00 908.74,96.00 911.09,96.00 913.44,96.00 915.79,96.00 918.14,96.00 920.49,96.00 922.84,96.00 925.19,96.00 927.55,96.00 929.90,96.00 932.25,96.00 934.60,96.00 936.95,96.00 939.30,96.00 941.65,96.00 944.00,96.00"/>
<polyline class="curve" stroke="#16a34a" points="86.00,538.00 88.35,511.51 90.70,441.21 93.05,349.46 95.40,260.48 97.75,190.33 100.10,143.82 102.45,117.42 104.81,104.48 107.16,98.97 109.51,96.92 111.86,96.25 114.21,96.06 116.56,96.01 118.91,96.00 121.26,96.00 123.61,96.00 125.96,96.00 128.31,96.00 130.66,96.00 133.01,96.00 135.36,96.00 137.72,96.00 140.07,96.00 142.42,96.00 144.77,96.00 147.12,96.00 149.47,96.00 151.82,96.00 154.17,96.00 156.52,96.00 158.87,96.00 161.22,96.00 163.57,96.00 165.92,96.00 168.27,96.00 170.62,96.00 172.98,96.00 175.33,96.00 177.68,96.00 180.03,96.00 182.38,96.00 184.73,96.00 187.08,96.00 189.43,96.00 191.78,96.00 194.13,96.00 196.48,96.00 198.83,96.00 201.18,96.00 203.53,96.00 205.88,96.00 208.24,96.00 210.59,96.00 212.94,96.00 215.29,96.00 217.64,96.00 219.99,96.00 222.34,96.00 224.69,96.00 227.04,96.00 229.39,96.00 231.74,96.00 234.09,96.00 236.44,96.00 238.79,96.00 241.15,96.00 243.50,96.00 245.85,96.00 248.20,96.00 250.55,96.00 252.90,96.00 255.25,96.00 257.60,96.00 259.95,96.00 262.30,96.00 264.65,96.00 267.00,96.00 269.35,96.00 271.70,96.00 274.05,96.00 276.41,96.00 278.76,96.00 281.11,96.00 283.46,96.00 285.81,96.00 288.16,96.00 290.51,96.00 292.86,96.00 295.21,96.00 297.56,96.00 299.91,96.00 302.26,96.00 304.61,96.00 306.96,96.00 309.32,96.00 311.67,96.00 314.02,96.00 316.37,96.00 318.72,96.00 321.07,96.00 323.42,96.00 325.77,96.00 328.12,96.00 330.47,96.00 332.82,96.00 335.17,96.00 337.52,96.00 339.87,96.00 342.22,96.00 344.58,96.00 346.93,96.00 349.28,96.00 351.63,96.00 353.98,96.00 356.33,96.00 358.68,96.00 361.03,96.00 363.38,96.00 365.73,96.00 368.08,96.00 370.43,96.00 372.78,96.00 375.13,96.00 377.48,96.00 379.84,96.00 382.19,96.00 384.54,96.00 386.89,96.00 389.24,96.00 391.59,96.00 393.94,96.00 396.29,96.00 398.64,96.00 400.99,96.00 403.34,96.00 405.69,96.00 408.04,96.00 410.39,96.00 412.75,96.00 415.10,96.00 417.45,96.00 419.80,96.00 422.15,96.00 424.50,96.00 426.85,96.00 429.20,96.00 431.55,96.00 433.90,96.00 436.25,96.00 438.60,96.00 440.95,96.00 443.30,96.00 445.65,96.00 448.01,96.00 450.36,96.00 452.71,96.00 455.06,96.00 457.41,96.00 459.76,96.00 462.11,96.00 464.46,96.00 466.81,96.00 469.16,96.00 471.51,96.00 473.86,96.00 476.21,96.00 478.56,96.00 480.92,96.00 483.27,96.00 485.62,96.00 487.97,96.00 490.32,96.00 492.67,96.00 495.02,96.00 497.37,96.00 499.72,96.00 502.07,96.00 504.42,96.00 506.77,96.00 509.12,96.00 511.47,96.00 513.82,96.00 516.18,96.00 518.53,96.00 520.88,96.00 523.23,96.00 525.58,96.00 527.93,96.00 530.28,96.00 532.63,96.00 534.98,96.00 537.33,96.00 539.68,96.00 542.03,96.00 544.38,96.00 546.73,96.00 549.08,96.00 551.44,96.00 553.79,96.00 556.14,96.00 558.49,96.00 560.84,96.00 563.19,96.00 565.54,96.00 567.89,96.00 570.24,96.00 572.59,96.00 574.94,96.00 577.29,96.00 579.64,96.00 581.99,96.00 584.35,96.00 586.70,96.00 589.05,96.00 591.40,96.00 593.75,96.00 596.10,96.00 598.45,96.00 600.80,96.00 603.15,96.00 605.50,96.00 607.85,96.00 610.20,96.00 612.55,96.00 614.90,96.00 617.25,96.00 619.61,96.00 621.96,96.00 624.31,96.00 626.66,96.00 629.01,96.00 631.36,96.00 633.71,96.00 636.06,96.00 638.41,96.00 640.76,96.00 643.11,96.00 645.46,96.00 647.81,96.00 650.16,96.00 652.52,96.00 654.87,96.00 657.22,96.00 659.57,96.00 661.92,96.00 664.27,96.00 666.62,96.00 668.97,96.00 671.32,96.00 673.67,96.00 676.02,96.00 678.37,96.00 680.72,96.00 683.07,96.00 685.42,96.00 687.78,96.00 690.13,96.00 692.48,96.00 694.83,96.00 697.18,96.00 699.53,96.00 701.88,96.00 704.23,96.00 706.58,96.00 708.93,96.00 711.28,96.00 713.63,96.00 715.98,96.00 718.33,96.00 720.68,96.00 723.04,96.00 725.39,96.00 727.74,96.00 730.09,96.00 732.44,96.00 734.79,96.00 737.14,96.00 739.49,96.00 741.84,96.00 744.19,96.00 746.54,96.00 748.89,96.00 751.24,96.00 753.59,96.00 755.95,96.00 758.30,96.00 760.65,96.00 763.00,96.00 765.35,96.00 767.70,96.00 770.05,96.00 772.40,96.00 774.75,96.00 777.10,96.00 779.45,96.00 781.80,96.00 784.15,96.00 786.50,96.00 788.85,96.00 791.21,96.00 793.56,96.00 795.91,96.00 798.26,96.00 800.61,96.00 802.96,96.00 805.31,96.00 807.66,96.00 810.01,96.00 812.36,96.00 814.71,96.00 817.06,96.00 819.41,96.00 821.76,96.00 824.12,96.00 826.47,96.00 828.82,96.00 831.17,96.00 833.52,96.00 835.87,96.00 838.22,96.00 840.57,96.00 842.92,96.00 845.27,96.00 847.62,96.00 849.97,96.00 852.32,96.00 854.67,96.00 857.02,96.00 859.38,96.00 861.73,96.00 864.08,96.00 866.43,96.00 868.78,96.00 871.13,96.00 873.48,96.00 875.83,96.00 878.18,96.00 880.53,96.00 882.88,96.00 885.23,96.00 887.58,96.00 889.93,96.00 892.28,96.00 894.64,96.00 896.99,96.00 899.34,96.00 901.69,96.00 904.04,96.00 906.39,96.00 908.74,96.00 911.09,96.00 913.44,96.00 915.79,96.00 918.14,96.00 920.49,96.00 922.84,96.00 925.19,96.00 927.55,96.00 929.90,96.00 932.25,96.00 934.60,96.00 936.95,96.00 939.30,96.00 941.65,96.00 944.00,96.00"/>
<polyline class="curve" stroke="#2563eb" points="86.00,538.00 88.35,537.57 90.70,536.30 93.05,534.18 95.40,531.22 97.75,527.46 100.10,522.90 102.45,517.57 104.81,511.51 107.16,504.75 109.51,497.32 111.86,489.26 114.21,480.62 116.56,471.45 118.91,461.79 121.26,451.69 123.61,441.20 125.96,430.37 128.31,419.26 130.66,407.92 133.01,396.39 135.36,384.73 137.72,372.99 140.07,361.21 142.42,349.44 144.77,337.73 147.12,326.12 149.47,314.64 151.82,303.33 154.17,292.23 156.52,281.36 158.87,270.76 161.22,260.44 163.57,250.44 165.92,240.77 168.27,231.44 170.62,222.46 172.98,213.85 175.33,205.62 177.68,197.77 180.03,190.29 182.38,183.20 184.73,176.48 187.08,170.14 189.43,164.17 191.78,158.56 194.13,153.29 196.48,148.37 198.83,143.78 201.18,139.51 203.53,135.54 205.88,131.87 208.24,128.47 210.59,125.34 212.94,122.46 215.29,119.82 217.64,117.40 219.99,115.19 222.34,113.17 224.69,111.34 227.04,109.67 229.39,108.16 231.74,106.80 234.09,105.57 236.44,104.47 238.79,103.48 241.15,102.59 243.50,101.80 245.85,101.09 248.20,100.46 250.55,99.90 252.90,99.40 255.25,98.96 257.60,98.58 259.95,98.23 262.30,97.94 264.65,97.67 267.00,97.44 269.35,97.24 271.70,97.07 274.05,96.92 276.41,96.78 278.76,96.67 281.11,96.57 283.46,96.49 285.81,96.41 288.16,96.35 290.51,96.30 292.86,96.25 295.21,96.21 297.56,96.18 299.91,96.15 302.26,96.12 304.61,96.10 306.96,96.09 309.32,96.07 311.67,96.06 314.02,96.05 316.37,96.04 318.72,96.03 321.07,96.03 323.42,96.02 325.77,96.02 328.12,96.02 330.47,96.01 332.82,96.01 335.17,96.01 337.52,96.01 339.87,96.01 342.22,96.00 344.58,96.00 346.93,96.00 349.28,96.00 351.63,96.00 353.98,96.00 356.33,96.00 358.68,96.00 361.03,96.00 363.38,96.00 365.73,96.00 368.08,96.00 370.43,96.00 372.78,96.00 375.13,96.00 377.48,96.00 379.84,96.00 382.19,96.00 384.54,96.00 386.89,96.00 389.24,96.00 391.59,96.00 393.94,96.00 396.29,96.00 398.64,96.00 400.99,96.00 403.34,96.00 405.69,96.00 408.04,96.00 410.39,96.00 412.75,96.00 415.10,96.00 417.45,96.00 419.80,96.00 422.15,96.00 424.50,96.00 426.85,96.00 429.20,96.00 431.55,96.00 433.90,96.00 436.25,96.00 438.60,96.00 440.95,96.00 443.30,96.00 445.65,96.00 448.01,96.00 450.36,96.00 452.71,96.00 455.06,96.00 457.41,96.00 459.76,96.00 462.11,96.00 464.46,96.00 466.81,96.00 469.16,96.00 471.51,96.00 473.86,96.00 476.21,96.00 478.56,96.00 480.92,96.00 483.27,96.00 485.62,96.00 487.97,96.00 490.32,96.00 492.67,96.00 495.02,96.00 497.37,96.00 499.72,96.00 502.07,96.00 504.42,96.00 506.77,96.00 509.12,96.00 511.47,96.00 513.82,96.00 516.18,96.00 518.53,96.00 520.88,96.00 523.23,96.00 525.58,96.00 527.93,96.00 530.28,96.00 532.63,96.00 534.98,96.00 537.33,96.00 539.68,96.00 542.03,96.00 544.38,96.00 546.73,96.00 549.08,96.00 551.44,96.00 553.79,96.00 556.14,96.00 558.49,96.00 560.84,96.00 563.19,96.00 565.54,96.00 567.89,96.00 570.24,96.00 572.59,96.00 574.94,96.00 577.29,96.00 579.64,96.00 581.99,96.00 584.35,96.00 586.70,96.00 589.05,96.00 591.40,96.00 593.75,96.00 596.10,96.00 598.45,96.00 600.80,96.00 603.15,96.00 605.50,96.00 607.85,96.00 610.20,96.00 612.55,96.00 614.90,96.00 617.25,96.00 619.61,96.00 621.96,96.00 624.31,96.00 626.66,96.00 629.01,96.00 631.36,96.00 633.71,96.00 636.06,96.00 638.41,96.00 640.76,96.00 643.11,96.00 645.46,96.00 647.81,96.00 650.16,96.00 652.52,96.00 654.87,96.00 657.22,96.00 659.57,96.00 661.92,96.00 664.27,96.00 666.62,96.00 668.97,96.00 671.32,96.00 673.67,96.00 676.02,96.00 678.37,96.00 680.72,96.00 683.07,96.00 685.42,96.00 687.78,96.00 690.13,96.00 692.48,96.00 694.83,96.00 697.18,96.00 699.53,96.00 701.88,96.00 704.23,96.00 706.58,96.00 708.93,96.00 711.28,96.00 713.63,96.00 715.98,96.00 718.33,96.00 720.68,96.00 723.04,96.00 725.39,96.00 727.74,96.00 730.09,96.00 732.44,96.00 734.79,96.00 737.14,96.00 739.49,96.00 741.84,96.00 744.19,96.00 746.54,96.00 748.89,96.00 751.24,96.00 753.59,96.00 755.95,96.00 758.30,96.00 760.65,96.00 763.00,96.00 765.35,96.00 767.70,96.00 770.05,96.00 772.40,96.00 774.75,96.00 777.10,96.00 779.45,96.00 781.80,96.00 784.15,96.00 786.50,96.00 788.85,96.00 791.21,96.00 793.56,96.00 795.91,96.00 798.26,96.00 800.61,96.00 802.96,96.00 805.31,96.00 807.66,96.00 810.01,96.00 812.36,96.00 814.71,96.00 817.06,96.00 819.41,96.00 821.76,96.00 824.12,96.00 826.47,96.00 828.82,96.00 831.17,96.00 833.52,96.00 835.87,96.00 838.22,96.00 840.57,96.00 842.92,96.00 845.27,96.00 847.62,96.00 849.97,96.00 852.32,96.00 854.67,96.00 857.02,96.00 859.38,96.00 861.73,96.00 864.08,96.00 866.43,96.00 868.78,96.00 871.13,96.00 873.48,96.00 875.83,96.00 878.18,96.00 880.53,96.00 882.88,96.00 885.23,96.00 887.58,96.00 889.93,96.00 892.28,96.00 894.64,96.00 896.99,96.00 899.34,96.00 901.69,96.00 904.04,96.00 906.39,96.00 908.74,96.00 911.09,96.00 913.44,96.00 915.79,96.00 918.14,96.00 920.49,96.00 922.84,96.00 925.19,96.00 927.55,96.00 929.90,96.00 932.25,96.00 934.60,96.00 936.95,96.00 939.30,96.00 941.65,96.00 944.00,96.00"/>
<polyline class="curve" stroke="#7c3aed" points="86.00,538.00 88.35,537.99 90.70,537.97 93.05,537.94 95.40,537.89 97.75,537.83 100.10,537.76 102.45,537.67 104.81,537.57 107.16,537.46 109.51,537.33 111.86,537.19 114.21,537.04 116.56,536.87 118.91,536.69 121.26,536.50 123.61,536.30 125.96,536.08 128.31,535.84 130.66,535.60 133.01,535.34 135.36,535.07 137.72,534.78 140.07,534.49 142.42,534.18 144.77,533.85 147.12,533.51 149.47,533.17 151.82,532.80 154.17,532.43 156.52,532.04 158.87,531.64 161.22,531.22 163.57,530.80 165.92,530.36 168.27,529.91 170.62,529.44 172.98,528.96 175.33,528.47 177.68,527.97 180.03,527.46 182.38,526.93 184.73,526.39 187.08,525.84 189.43,525.28 191.78,524.70 194.13,524.11 196.48,523.51 198.83,522.90 201.18,522.28 203.53,521.64 205.88,520.99 208.24,520.33 210.59,519.66 212.94,518.98 215.29,518.28 217.64,517.57 219.99,516.86 222.34,516.13 224.69,515.39 227.04,514.63 229.39,513.87 231.74,513.09 234.09,512.31 236.44,511.51 238.79,510.70 241.15,509.89 243.50,509.06 245.85,508.22 248.20,507.36 250.55,506.50 252.90,505.63 255.25,504.75 257.60,503.85 259.95,502.95 262.30,502.04 264.65,501.11 267.00,500.18 269.35,499.23 271.70,498.28 274.05,497.32 276.41,496.34 278.76,495.36 281.11,494.37 283.46,493.36 285.81,492.35 288.16,491.33 290.51,490.30 292.86,489.26 295.21,488.21 297.56,487.15 299.91,486.09 302.26,485.01 304.61,483.93 306.96,482.83 309.32,481.73 311.67,480.62 314.02,479.50 316.37,478.38 318.72,477.24 321.07,476.10 323.42,474.95 325.77,473.79 328.12,472.62 330.47,471.45 332.82,470.27 335.17,469.08 337.52,467.88 339.87,466.68 342.22,465.47 344.58,464.25 346.93,463.02 349.28,461.79 351.63,460.55 353.98,459.30 356.33,458.05 358.68,456.79 361.03,455.52 363.38,454.25 365.73,452.97 368.08,451.69 370.43,450.40 372.78,449.10 375.13,447.80 377.48,446.49 379.84,445.17 382.19,443.85 384.54,442.53 386.89,441.20 389.24,439.86 391.59,438.52 393.94,437.17 396.29,435.82 398.64,434.47 400.99,433.11 403.34,431.74 405.69,430.37 408.04,429.00 410.39,427.62 412.75,426.24 415.10,424.85 417.45,423.46 419.80,422.06 422.15,420.66 424.50,419.26 426.85,417.85 429.20,416.44 431.55,415.03 433.90,413.61 436.25,412.19 438.60,410.77 440.95,409.34 443.30,407.92 445.65,406.48 448.01,405.05 450.36,403.61 452.71,402.17 455.06,400.73 457.41,399.28 459.76,397.84 462.11,396.39 464.46,394.94 466.81,393.48 469.16,392.03 471.51,390.57 473.86,389.11 476.21,387.65 478.56,386.19 480.92,384.73 483.27,383.26 485.62,381.80 487.97,380.33 490.32,378.86 492.67,377.40 495.02,375.93 497.37,374.46 499.72,372.98 502.07,371.51 504.42,370.04 506.77,368.57 509.12,367.10 511.47,365.62 513.82,364.15 516.18,362.68 518.53,361.21 520.88,359.73 523.23,358.26 525.58,356.79 527.93,355.32 530.28,353.85 532.63,352.38 534.98,350.91 537.33,349.44 539.68,347.97 542.03,346.51 544.38,345.04 546.73,343.57 549.08,342.11 551.44,340.65 553.79,339.19 556.14,337.73 558.49,336.27 560.84,334.81 563.19,333.36 565.54,331.91 567.89,330.45 570.24,329.01 572.59,327.56 574.94,326.11 577.29,324.67 579.64,323.23 581.99,321.79 584.35,320.35 586.70,318.92 589.05,317.49 591.40,316.06 593.75,314.63 596.10,313.21 598.45,311.79 600.80,310.37 603.15,308.95 605.50,307.54 607.85,306.13 610.20,304.73 612.55,303.32 614.90,301.92 617.25,300.53 619.61,299.14 621.96,297.75 624.31,296.36 626.66,294.98 629.01,293.60 631.36,292.22 633.71,290.85 636.06,289.48 638.41,288.12 640.76,286.76 643.11,285.40 645.46,284.05 647.81,282.70 650.16,281.36 652.52,280.02 654.87,278.68 657.22,277.35 659.57,276.02 661.92,274.70 664.27,273.38 666.62,272.06 668.97,270.75 671.32,269.45 673.67,268.15 676.02,266.85 678.37,265.56 680.72,264.27 683.07,262.99 685.42,261.71 687.78,260.44 690.13,259.17 692.48,257.91 694.83,256.65 697.18,255.40 699.53,254.15 701.88,252.91 704.23,251.67 706.58,250.44 708.93,249.21 711.28,247.99 713.63,246.77 715.98,245.56 718.33,244.35 720.68,243.15 723.04,241.95 725.39,240.76 727.74,239.58 730.09,238.40 732.44,237.22 734.79,236.05 737.14,234.89 739.49,233.73 741.84,232.58 744.19,231.43 746.54,230.29 748.89,229.15 751.24,228.02 753.59,226.90 755.95,225.78 758.30,224.67 760.65,223.56 763.00,222.46 765.35,221.36 767.70,220.27 770.05,219.19 772.40,218.11 774.75,217.03 777.10,215.97 779.45,214.91 781.80,213.85 784.15,212.80 786.50,211.76 788.85,210.72 791.21,209.69 793.56,208.66 795.91,207.64 798.26,206.63 800.61,205.62 802.96,204.61 805.31,203.62 807.66,202.63 810.01,201.64 812.36,200.66 814.71,199.69 817.06,198.72 819.41,197.76 821.76,196.81 824.12,195.86 826.47,194.92 828.82,193.98 831.17,193.05 833.52,192.12 835.87,191.20 838.22,190.29 840.57,189.38 842.92,188.48 845.27,187.58 847.62,186.69 849.97,185.81 852.32,184.93 854.67,184.06 857.02,183.20 859.38,182.34 861.73,181.48 864.08,180.63 866.43,179.79 868.78,178.95 871.13,178.12 873.48,177.30 875.83,176.48 878.18,175.67 880.53,174.86 882.88,174.06 885.23,173.26 887.58,172.47 889.93,171.69 892.28,170.91 894.64,170.14 896.99,169.37 899.34,168.61 901.69,167.86 904.04,167.11 906.39,166.36 908.74,165.62 911.09,164.89 913.44,164.16 915.79,163.44 918.14,162.73 920.49,162.02 922.84,161.31 925.19,160.61 927.55,159.92 929.90,159.23 932.25,158.55 934.60,157.87 936.95,157.20 939.30,156.54 941.65,155.88 944.00,155.22"/>
<rect x="718" y="102" width="210" height="128" rx="4" fill="#ffffff" stroke="#cbd5e1"/>
<line x1="734" y1="124" x2="762" y2="124" stroke="#c2410c" stroke-width="3"/>
<text class="legend" x="772" y="128">d = 12</text>
<line x1="734" y1="146" x2="762" y2="146" stroke="#d97706" stroke-width="3"/>
<text class="legend" x="772" y="150">d = 18</text>
<line x1="734" y1="168" x2="762" y2="168" stroke="#16a34a" stroke-width="3"/>
<text class="legend" x="772" y="172">d = 24</text>
<line x1="734" y1="190" x2="762" y2="190" stroke="#2563eb" stroke-width="3"/>
<text class="legend" x="772" y="194">d = 30 (current)</text>
<line x1="734" y1="212" x2="762" y2="212" stroke="#7c3aed" stroke-width="3"/>
<text class="legend" x="772" y="216">d = 36</text>
<text class="note" x="86" y="612">This is a general channel-lifespan model for finite leaf projection, not a DApp-specific note/nullifier model.</text>
</svg>
