<svg xmlns="http://www.w3.org/2000/svg" width="980" height="620" viewBox="0 0 980 620">
<style>
text{font-family:Arial,sans-serif;fill:#172033}.title{font-size:24px;font-weight:bold}.subtitle{font-size:14px;fill:#475569}.axis{font-size:13px;fill:#334155}.tick{font-size:12px;fill:#475569}.legend{font-size:13px;fill:#172033}.grid{stroke:#e2e8f0;stroke-width:1}.axisline{stroke:#334155;stroke-width:1.4}.curve{fill:none;stroke-width:3}.marker{stroke:#64748b;stroke-width:1.4;stroke-dasharray:5 5}.note{font-size:12px;fill:#64748b}</style>
<rect x="0" y="0" width="980" height="620" fill="#ffffff"/>
<text class="title" x="86" y="36">General channel lifespan leaf collision probability</text>
<text class="subtitle" x="86" y="62">Poisson arrival model with one new storage key per minute on average.</text>
<text class="subtitle" x="86" y="84">P(collision by day t) = 1 - exp(-mu) * (1 + mu / 2^d)^(2^d), where mu = 1440t. Y axis is logarithmic.</text>
<rect x="86" y="96" width="858" height="442" fill="#f8fafc" stroke="#cbd5e1" stroke-width="1"/>
<line class="grid" x1="86.00" y1="96" x2="86.00" y2="538"/>
<text class="tick" x="86.00" y="562" text-anchor="middle">0</text>
<line class="grid" x1="156.52" y1="96" x2="156.52" y2="538"/>
<text class="tick" x="156.52" y="562" text-anchor="middle">30</text>
<line class="grid" x1="227.04" y1="96" x2="227.04" y2="538"/>
<text class="tick" x="227.04" y="562" text-anchor="middle">60</text>
<line class="grid" x1="297.56" y1="96" x2="297.56" y2="538"/>
<text class="tick" x="297.56" y="562" text-anchor="middle">90</text>
<line class="grid" x1="368.08" y1="96" x2="368.08" y2="538"/>
<text class="tick" x="368.08" y="562" text-anchor="middle">120</text>
<line class="grid" x1="509.12" y1="96" x2="509.12" y2="538"/>
<text class="tick" x="509.12" y="562" text-anchor="middle">180</text>
<line class="grid" x1="650.16" y1="96" x2="650.16" y2="538"/>
<text class="tick" x="650.16" y="562" text-anchor="middle">240</text>
<line class="grid" x1="791.21" y1="96" x2="791.21" y2="538"/>
<text class="tick" x="791.21" y="562" text-anchor="middle">300</text>
<line class="grid" x1="944.00" y1="96" x2="944.00" y2="538"/>
<text class="tick" x="944.00" y="562" text-anchor="middle">365</text>
<line class="grid" x1="86" y1="96.00" x2="944" y2="96.00"/>
<text class="tick" x="74" y="100.00" text-anchor="end">1</text>
<line class="grid" x1="86" y1="151.25" x2="944" y2="151.25"/>
<text class="tick" x="74" y="155.25" text-anchor="end">1e-1</text>
<line class="grid" x1="86" y1="206.50" x2="944" y2="206.50"/>
<text class="tick" x="74" y="210.50" text-anchor="end">1e-2</text>
<line class="grid" x1="86" y1="261.75" x2="944" y2="261.75"/>
<text class="tick" x="74" y="265.75" text-anchor="end">1e-3</text>
<line class="grid" x1="86" y1="317.00" x2="944" y2="317.00"/>
<text class="tick" x="74" y="321.00" text-anchor="end">1e-4</text>
<line class="grid" x1="86" y1="372.25" x2="944" y2="372.25"/>
<text class="tick" x="74" y="376.25" text-anchor="end">1e-5</text>
<line class="grid" x1="86" y1="427.50" x2="944" y2="427.50"/>
<text class="tick" x="74" y="431.50" text-anchor="end">1e-6</text>
<line class="grid" x1="86" y1="482.75" x2="944" y2="482.75"/>
<text class="tick" x="74" y="486.75" text-anchor="end">1e-7</text>
<line class="grid" x1="86" y1="538.00" x2="944" y2="538.00"/>
<text class="tick" x="74" y="542.00" text-anchor="end">1e-8</text>
<line class="axisline" x1="86" y1="538" x2="944" y2="538"/>
<line class="axisline" x1="86" y1="96" x2="86" y2="538"/>
<text class="axis" x="515.0" y="592" text-anchor="middle">Channel operating period, days</text>
<text class="axis" transform="translate(22 317.0) rotate(-90)" text-anchor="middle">Probability of at least one leaf collision by that time (log scale)</text>
<line class="marker" x1="148.98" y1="96" x2="148.98" y2="538"/>
<text class="note" x="153.98" y="104.63">d=30 p50: 26.8d</text>
<line class="marker" x1="200.79" y1="96" x2="200.79" y2="538"/>
<text class="note" x="205.79" y="90.53">d=30 p90: 48.8d</text>
<polyline class="curve" stroke="#c2410c" points="86.00,538.00 88.35,96.00 90.70,96.00 93.05,96.00 95.40,96.00 97.75,96.00 100.10,96.00 102.45,96.00 104.81,96.00 107.16,96.00 109.51,96.00 111.86,96.00 114.21,96.00 116.56,96.00 118.91,96.00 121.26,96.00 123.61,96.00 125.96,96.00 128.31,96.00 130.66,96.00 133.01,96.00 135.36,96.00 137.72,96.00 140.07,96.00 142.42,96.00 144.77,96.00 147.12,96.00 149.47,96.00 151.82,96.00 154.17,96.00 156.52,96.00 158.87,96.00 161.22,96.00 163.57,96.00 165.92,96.00 168.27,96.00 170.62,96.00 172.98,96.00 175.33,96.00 177.68,96.00 180.03,96.00 182.38,96.00 184.73,96.00 187.08,96.00 189.43,96.00 191.78,96.00 194.13,96.00 196.48,96.00 198.83,96.00 201.18,96.00 203.53,96.00 205.88,96.00 208.24,96.00 210.59,96.00 212.94,96.00 215.29,96.00 217.64,96.00 219.99,96.00 222.34,96.00 224.69,96.00 227.04,96.00 229.39,96.00 231.74,96.00 234.09,96.00 236.44,96.00 238.79,96.00 241.15,96.00 243.50,96.00 245.85,96.00 248.20,96.00 250.55,96.00 252.90,96.00 255.25,96.00 257.60,96.00 259.95,96.00 262.30,96.00 264.65,96.00 267.00,96.00 269.35,96.00 271.70,96.00 274.05,96.00 276.41,96.00 278.76,96.00 281.11,96.00 283.46,96.00 285.81,96.00 288.16,96.00 290.51,96.00 292.86,96.00 295.21,96.00 297.56,96.00 299.91,96.00 302.26,96.00 304.61,96.00 306.96,96.00 309.32,96.00 311.67,96.00 314.02,96.00 316.37,96.00 318.72,96.00 321.07,96.00 323.42,96.00 325.77,96.00 328.12,96.00 330.47,96.00 332.82,96.00 335.17,96.00 337.52,96.00 339.87,96.00 342.22,96.00 344.58,96.00 346.93,96.00 349.28,96.00 351.63,96.00 353.98,96.00 356.33,96.00 358.68,96.00 361.03,96.00 363.38,96.00 365.73,96.00 368.08,96.00 370.43,96.00 372.78,96.00 375.13,96.00 377.48,96.00 379.84,96.00 382.19,96.00 384.54,96.00 386.89,96.00 389.24,96.00 391.59,96.00 393.94,96.00 396.29,96.00 398.64,96.00 400.99,96.00 403.34,96.00 405.69,96.00 408.04,96.00 410.39,96.00 412.75,96.00 415.10,96.00 417.45,96.00 419.80,96.00 422.15,96.00 424.50,96.00 426.85,96.00 429.20,96.00 431.55,96.00 433.90,96.00 436.25,96.00 438.60,96.00 440.95,96.00 443.30,96.00 445.65,96.00 448.01,96.00 450.36,96.00 452.71,96.00 455.06,96.00 457.41,96.00 459.76,96.00 462.11,96.00 464.46,96.00 466.81,96.00 469.16,96.00 471.51,96.00 473.86,96.00 476.21,96.00 478.56,96.00 480.92,96.00 483.27,96.00 485.62,96.00 487.97,96.00 490.32,96.00 492.67,96.00 495.02,96.00 497.37,96.00 499.72,96.00 502.07,96.00 504.42,96.00 506.77,96.00 509.12,96.00 511.47,96.00 513.82,96.00 516.18,96.00 518.53,96.00 520.88,96.00 523.23,96.00 525.58,96.00 527.93,96.00 530.28,96.00 532.63,96.00 534.98,96.00 537.33,96.00 539.68,96.00 542.03,96.00 544.38,96.00 546.73,96.00 549.08,96.00 551.44,96.00 553.79,96.00 556.14,96.00 558.49,96.00 560.84,96.00 563.19,96.00 565.54,96.00 567.89,96.00 570.24,96.00 572.59,96.00 574.94,96.00 577.29,96.00 579.64,96.00 581.99,96.00 584.35,96.00 586.70,96.00 589.05,96.00 591.40,96.00 593.75,96.00 596.10,96.00 598.45,96.00 600.80,96.00 603.15,96.00 605.50,96.00 607.85,96.00 610.20,96.00 612.55,96.00 614.90,96.00 617.25,96.00 619.61,96.00 621.96,96.00 624.31,96.00 626.66,96.00 629.01,96.00 631.36,96.00 633.71,96.00 636.06,96.00 638.41,96.00 640.76,96.00 643.11,96.00 645.46,96.00 647.81,96.00 650.16,96.00 652.52,96.00 654.87,96.00 657.22,96.00 659.57,96.00 661.92,96.00 664.27,96.00 666.62,96.00 668.97,96.00 671.32,96.00 673.67,96.00 676.02,96.00 678.37,96.00 680.72,96.00 683.07,96.00 685.42,96.00 687.78,96.00 690.13,96.00 692.48,96.00 694.83,96.00 697.18,96.00 699.53,96.00 701.88,96.00 704.23,96.00 706.58,96.00 708.93,96.00 711.28,96.00 713.63,96.00 715.98,96.00 718.33,96.00 720.68,96.00 723.04,96.00 725.39,96.00 727.74,96.00 730.09,96.00 732.44,96.00 734.79,96.00 737.14,96.00 739.49,96.00 741.84,96.00 744.19,96.00 746.54,96.00 748.89,96.00 751.24,96.00 753.59,96.00 755.95,96.00 758.30,96.00 760.65,96.00 763.00,96.00 765.35,96.00 767.70,96.00 770.05,96.00 772.40,96.00 774.75,96.00 777.10,96.00 779.45,96.00 781.80,96.00 784.15,96.00 786.50,96.00 788.85,96.00 791.21,96.00 793.56,96.00 795.91,96.00 798.26,96.00 800.61,96.00 802.96,96.00 805.31,96.00 807.66,96.00 810.01,96.00 812.36,96.00 814.71,96.00 817.06,96.00 819.41,96.00 821.76,96.00 824.12,96.00 826.47,96.00 828.82,96.00 831.17,96.00 833.52,96.00 835.87,96.00 838.22,96.00 840.57,96.00 842.92,96.00 845.27,96.00 847.62,96.00 849.97,96.00 852.32,96.00 854.67,96.00 857.02,96.00 859.38,96.00 861.73,96.00 864.08,96.00 866.43,96.00 868.78,96.00 871.13,96.00 873.48,96.00 875.83,96.00 878.18,96.00 880.53,96.00 882.88,96.00 885.23,96.00 887.58,96.00 889.93,96.00 892.28,96.00 894.64,96.00 896.99,96.00 899.34,96.00 901.69,96.00 904.04,96.00 906.39,96.00 908.74,96.00 911.09,96.00 913.44,96.00 915.79,96.00 918.14,96.00 920.49,96.00 922.84,96.00 925.19,96.00 927.55,96.00 929.90,96.00 932.25,96.00 934.60,96.00 936.95,96.00 939.30,96.00 941.65,96.00 944.00,96.00"/>
<polyline class="curve" stroke="#d97706" points="86.00,538.00 88.35,96.47 90.70,96.00 93.05,96.00 95.40,96.00 97.75,96.00 100.10,96.00 102.45,96.00 104.81,96.00 107.16,96.00 109.51,96.00 111.86,96.00 114.21,96.00 116.56,96.00 118.91,96.00 121.26,96.00 123.61,96.00 125.96,96.00 128.31,96.00 130.66,96.00 133.01,96.00 135.36,96.00 137.72,96.00 140.07,96.00 142.42,96.00 144.77,96.00 147.12,96.00 149.47,96.00 151.82,96.00 154.17,96.00 156.52,96.00 158.87,96.00 161.22,96.00 163.57,96.00 165.92,96.00 168.27,96.00 170.62,96.00 172.98,96.00 175.33,96.00 177.68,96.00 180.03,96.00 182.38,96.00 184.73,96.00 187.08,96.00 189.43,96.00 191.78,96.00 194.13,96.00 196.48,96.00 198.83,96.00 201.18,96.00 203.53,96.00 205.88,96.00 208.24,96.00 210.59,96.00 212.94,96.00 215.29,96.00 217.64,96.00 219.99,96.00 222.34,96.00 224.69,96.00 227.04,96.00 229.39,96.00 231.74,96.00 234.09,96.00 236.44,96.00 238.79,96.00 241.15,96.00 243.50,96.00 245.85,96.00 248.20,96.00 250.55,96.00 252.90,96.00 255.25,96.00 257.60,96.00 259.95,96.00 262.30,96.00 264.65,96.00 267.00,96.00 269.35,96.00 271.70,96.00 274.05,96.00 276.41,96.00 278.76,96.00 281.11,96.00 283.46,96.00 285.81,96.00 288.16,96.00 290.51,96.00 292.86,96.00 295.21,96.00 297.56,96.00 299.91,96.00 302.26,96.00 304.61,96.00 306.96,96.00 309.32,96.00 311.67,96.00 314.02,96.00 316.37,96.00 318.72,96.00 321.07,96.00 323.42,96.00 325.77,96.00 328.12,96.00 330.47,96.00 332.82,96.00 335.17,96.00 337.52,96.00 339.87,96.00 342.22,96.00 344.58,96.00 346.93,96.00 349.28,96.00 351.63,96.00 353.98,96.00 356.33,96.00 358.68,96.00 361.03,96.00 363.38,96.00 365.73,96.00 368.08,96.00 370.43,96.00 372.78,96.00 375.13,96.00 377.48,96.00 379.84,96.00 382.19,96.00 384.54,96.00 386.89,96.00 389.24,96.00 391.59,96.00 393.94,96.00 396.29,96.00 398.64,96.00 400.99,96.00 403.34,96.00 405.69,96.00 408.04,96.00 410.39,96.00 412.75,96.00 415.10,96.00 417.45,96.00 419.80,96.00 422.15,96.00 424.50,96.00 426.85,96.00 429.20,96.00 431.55,96.00 433.90,96.00 436.25,96.00 438.60,96.00 440.95,96.00 443.30,96.00 445.65,96.00 448.01,96.00 450.36,96.00 452.71,96.00 455.06,96.00 457.41,96.00 459.76,96.00 462.11,96.00 464.46,96.00 466.81,96.00 469.16,96.00 471.51,96.00 473.86,96.00 476.21,96.00 478.56,96.00 480.92,96.00 483.27,96.00 485.62,96.00 487.97,96.00 490.32,96.00 492.67,96.00 495.02,96.00 497.37,96.00 499.72,96.00 502.07,96.00 504.42,96.00 506.77,96.00 509.12,96.00 511.47,96.00 513.82,96.00 516.18,96.00 518.53,96.00 520.88,96.00 523.23,96.00 525.58,96.00 527.93,96.00 530.28,96.00 532.63,96.00 534.98,96.00 537.33,96.00 539.68,96.00 542.03,96.00 544.38,96.00 546.73,96.00 549.08,96.00 551.44,96.00 553.79,96.00 556.14,96.00 558.49,96.00 560.84,96.00 563.19,96.00 565.54,96.00 567.89,96.00 570.24,96.00 572.59,96.00 574.94,96.00 577.29,96.00 579.64,96.00 581.99,96.00 584.35,96.00 586.70,96.00 589.05,96.00 591.40,96.00 593.75,96.00 596.10,96.00 598.45,96.00 600.80,96.00 603.15,96.00 605.50,96.00 607.85,96.00 610.20,96.00 612.55,96.00 614.90,96.00 617.25,96.00 619.61,96.00 621.96,96.00 624.31,96.00 626.66,96.00 629.01,96.00 631.36,96.00 633.71,96.00 636.06,96.00 638.41,96.00 640.76,96.00 643.11,96.00 645.46,96.00 647.81,96.00 650.16,96.00 652.52,96.00 654.87,96.00 657.22,96.00 659.57,96.00 661.92,96.00 664.27,96.00 666.62,96.00 668.97,96.00 671.32,96.00 673.67,96.00 676.02,96.00 678.37,96.00 680.72,96.00 683.07,96.00 685.42,96.00 687.78,96.00 690.13,96.00 692.48,96.00 694.83,96.00 697.18,96.00 699.53,96.00 701.88,96.00 704.23,96.00 706.58,96.00 708.93,96.00 711.28,96.00 713.63,96.00 715.98,96.00 718.33,96.00 720.68,96.00 723.04,96.00 725.39,96.00 727.74,96.00 730.09,96.00 732.44,96.00 734.79,96.00 737.14,96.00 739.49,96.00 741.84,96.00 744.19,96.00 746.54,96.00 748.89,96.00 751.24,96.00 753.59,96.00 755.95,96.00 758.30,96.00 760.65,96.00 763.00,96.00 765.35,96.00 767.70,96.00 770.05,96.00 772.40,96.00 774.75,96.00 777.10,96.00 779.45,96.00 781.80,96.00 784.15,96.00 786.50,96.00 788.85,96.00 791.21,96.00 793.56,96.00 795.91,96.00 798.26,96.00 800.61,96.00 802.96,96.00 805.31,96.00 807.66,96.00 810.01,96.00 812.36,96.00 814.71,96.00 817.06,96.00 819.41,96.00 821.76,96.00 824.12,96.00 826.47,96.00 828.82,96.00 831.17,96.00 833.52,96.00 835.87,96.00 838.22,96.00 840.57,96.00 842.92,96.00 845.27,96.00 847.62,96.00 849.97,96.00 852.32,96.00 854.67,96.00 857.02,96.00 859.38,96.00 861.73,96.00 864.08,96.00 866.43,96.00 868.78,96.00 871.13,96.00 873.48,96.00 875.83,96.00 878.18,96.00 880.53,96.00 882.88,96.00 885.23,96.00 887.58,96.00 889.93,96.00 892.28,96.00 894.64,96.00 896.99,96.00 899.34,96.00 901.69,96.00 904.04,96.00 906.39,96.00 908.74,96.00 911.09,96.00 913.44,96.00 915.79,96.00 918.14,96.00 920.49,96.00 922.84,96.00 925.19,96.00 927.55,96.00 929.90,96.00 932.25,96.00 934.60,96.00 936.95,96.00 939.30,96.00 941.65,96.00 944.00,96.00"/>
<polyline class="curve" stroke="#16a34a" points="86.00,538.00 88.35,163.54 90.70,132.44 93.05,116.44 95.40,107.17 97.75,101.76 100.10,98.75 102.45,97.19 104.81,96.46 107.16,96.16 109.51,96.05 111.86,96.01 114.21,96.00 116.56,96.00 118.91,96.00 121.26,96.00 123.61,96.00 125.96,96.00 128.31,96.00 130.66,96.00 133.01,96.00 135.36,96.00 137.72,96.00 140.07,96.00 142.42,96.00 144.77,96.00 147.12,96.00 149.47,96.00 151.82,96.00 154.17,96.00 156.52,96.00 158.87,96.00 161.22,96.00 163.57,96.00 165.92,96.00 168.27,96.00 170.62,96.00 172.98,96.00 175.33,96.00 177.68,96.00 180.03,96.00 182.38,96.00 184.73,96.00 187.08,96.00 189.43,96.00 191.78,96.00 194.13,96.00 196.48,96.00 198.83,96.00 201.18,96.00 203.53,96.00 205.88,96.00 208.24,96.00 210.59,96.00 212.94,96.00 215.29,96.00 217.64,96.00 219.99,96.00 222.34,96.00 224.69,96.00 227.04,96.00 229.39,96.00 231.74,96.00 234.09,96.00 236.44,96.00 238.79,96.00 241.15,96.00 243.50,96.00 245.85,96.00 248.20,96.00 250.55,96.00 252.90,96.00 255.25,96.00 257.60,96.00 259.95,96.00 262.30,96.00 264.65,96.00 267.00,96.00 269.35,96.00 271.70,96.00 274.05,96.00 276.41,96.00 278.76,96.00 281.11,96.00 283.46,96.00 285.81,96.00 288.16,96.00 290.51,96.00 292.86,96.00 295.21,96.00 297.56,96.00 299.91,96.00 302.26,96.00 304.61,96.00 306.96,96.00 309.32,96.00 311.67,96.00 314.02,96.00 316.37,96.00 318.72,96.00 321.07,96.00 323.42,96.00 325.77,96.00 328.12,96.00 330.47,96.00 332.82,96.00 335.17,96.00 337.52,96.00 339.87,96.00 342.22,96.00 344.58,96.00 346.93,96.00 349.28,96.00 351.63,96.00 353.98,96.00 356.33,96.00 358.68,96.00 361.03,96.00 363.38,96.00 365.73,96.00 368.08,96.00 370.43,96.00 372.78,96.00 375.13,96.00 377.48,96.00 379.84,96.00 382.19,96.00 384.54,96.00 386.89,96.00 389.24,96.00 391.59,96.00 393.94,96.00 396.29,96.00 398.64,96.00 400.99,96.00 403.34,96.00 405.69,96.00 408.04,96.00 410.39,96.00 412.75,96.00 415.10,96.00 417.45,96.00 419.80,96.00 422.15,96.00 424.50,96.00 426.85,96.00 429.20,96.00 431.55,96.00 433.90,96.00 436.25,96.00 438.60,96.00 440.95,96.00 443.30,96.00 445.65,96.00 448.01,96.00 450.36,96.00 452.71,96.00 455.06,96.00 457.41,96.00 459.76,96.00 462.11,96.00 464.46,96.00 466.81,96.00 469.16,96.00 471.51,96.00 473.86,96.00 476.21,96.00 478.56,96.00 480.92,96.00 483.27,96.00 485.62,96.00 487.97,96.00 490.32,96.00 492.67,96.00 495.02,96.00 497.37,96.00 499.72,96.00 502.07,96.00 504.42,96.00 506.77,96.00 509.12,96.00 511.47,96.00 513.82,96.00 516.18,96.00 518.53,96.00 520.88,96.00 523.23,96.00 525.58,96.00 527.93,96.00 530.28,96.00 532.63,96.00 534.98,96.00 537.33,96.00 539.68,96.00 542.03,96.00 544.38,96.00 546.73,96.00 549.08,96.00 551.44,96.00 553.79,96.00 556.14,96.00 558.49,96.00 560.84,96.00 563.19,96.00 565.54,96.00 567.89,96.00 570.24,96.00 572.59,96.00 574.94,96.00 577.29,96.00 579.64,96.00 581.99,96.00 584.35,96.00 586.70,96.00 589.05,96.00 591.40,96.00 593.75,96.00 596.10,96.00 598.45,96.00 600.80,96.00 603.15,96.00 605.50,96.00 607.85,96.00 610.20,96.00 612.55,96.00 614.90,96.00 617.25,96.00 619.61,96.00 621.96,96.00 624.31,96.00 626.66,96.00 629.01,96.00 631.36,96.00 633.71,96.00 636.06,96.00 638.41,96.00 640.76,96.00 643.11,96.00 645.46,96.00 647.81,96.00 650.16,96.00 652.52,96.00 654.87,96.00 657.22,96.00 659.57,96.00 661.92,96.00 664.27,96.00 666.62,96.00 668.97,96.00 671.32,96.00 673.67,96.00 676.02,96.00 678.37,96.00 680.72,96.00 683.07,96.00 685.42,96.00 687.78,96.00 690.13,96.00 692.48,96.00 694.83,96.00 697.18,96.00 699.53,96.00 701.88,96.00 704.23,96.00 706.58,96.00 708.93,96.00 711.28,96.00 713.63,96.00 715.98,96.00 718.33,96.00 720.68,96.00 723.04,96.00 725.39,96.00 727.74,96.00 730.09,96.00 732.44,96.00 734.79,96.00 737.14,96.00 739.49,96.00 741.84,96.00 744.19,96.00 746.54,96.00 748.89,96.00 751.24,96.00 753.59,96.00 755.95,96.00 758.30,96.00 760.65,96.00 763.00,96.00 765.35,96.00 767.70,96.00 770.05,96.00 772.40,96.00 774.75,96.00 777.10,96.00 779.45,96.00 781.80,96.00 784.15,96.00 786.50,96.00 788.85,96.00 791.21,96.00 793.56,96.00 795.91,96.00 798.26,96.00 800.61,96.00 802.96,96.00 805.31,96.00 807.66,96.00 810.01,96.00 812.36,96.00 814.71,96.00 817.06,96.00 819.41,96.00 821.76,96.00 824.12,96.00 826.47,96.00 828.82,96.00 831.17,96.00 833.52,96.00 835.87,96.00 838.22,96.00 840.57,96.00 842.92,96.00 845.27,96.00 847.62,96.00 849.97,96.00 852.32,96.00 854.67,96.00 857.02,96.00 859.38,96.00 861.73,96.00 864.08,96.00 866.43,96.00 868.78,96.00 871.13,96.00 873.48,96.00 875.83,96.00 878.18,96.00 880.53,96.00 882.88,96.00 885.23,96.00 887.58,96.00 889.93,96.00 892.28,96.00 894.64,96.00 896.99,96.00 899.34,96.00 901.69,96.00 904.04,96.00 906.39,96.00 908.74,96.00 911.09,96.00 913.44,96.00 915.79,96.00 918.14,96.00 920.49,96.00 922.84,96.00 925.19,96.00 927.55,96.00 929.90,96.00 932.25,96.00 934.60,96.00 936.95,96.00 939.30,96.00 941.65,96.00 944.00,96.00"/>
<polyline class="curve" stroke="#2563eb" points="86.00,538.00 88.35,262.60 90.70,229.37 93.05,209.97 95.40,196.25 97.75,185.64 100.10,177.02 102.45,169.77 104.81,163.54 107.16,158.08 109.51,153.24 111.86,148.90 114.21,144.99 116.56,141.43 118.91,138.18 121.26,135.19 123.61,132.44 125.96,129.90 128.31,127.54 130.66,125.35 133.01,123.31 135.36,121.41 137.72,119.64 140.07,117.99 142.42,116.44 144.77,115.00 147.12,113.64 149.47,112.38 151.82,111.19 154.17,110.08 156.52,109.04 158.87,108.07 161.22,107.16 163.57,106.31 165.92,105.52 168.27,104.78 170.62,104.09 172.98,103.44 175.33,102.84 177.68,102.28 180.03,101.76 182.38,101.27 184.73,100.82 187.08,100.41 189.43,100.02 191.78,99.66 194.13,99.33 196.48,99.03 198.83,98.75 201.18,98.49 203.53,98.25 205.88,98.03 208.24,97.83 210.59,97.65 212.94,97.48 215.29,97.33 217.64,97.19 219.99,97.06 222.34,96.95 224.69,96.85 227.04,96.75 229.39,96.67 231.74,96.59 234.09,96.53 236.44,96.46 238.79,96.41 241.15,96.36 243.50,96.32 245.85,96.28 248.20,96.24 250.55,96.21 252.90,96.19 255.25,96.16 257.60,96.14 259.95,96.12 262.30,96.11 264.65,96.09 267.00,96.08 269.35,96.07 271.70,96.06 274.05,96.05 276.41,96.04 278.76,96.04 281.11,96.03 283.46,96.03 285.81,96.02 288.16,96.02 290.51,96.02 292.86,96.01 295.21,96.01 297.56,96.01 299.91,96.01 302.26,96.01 304.61,96.01 306.96,96.00 309.32,96.00 311.67,96.00 314.02,96.00 316.37,96.00 318.72,96.00 321.07,96.00 323.42,96.00 325.77,96.00 328.12,96.00 330.47,96.00 332.82,96.00 335.17,96.00 337.52,96.00 339.87,96.00 342.22,96.00 344.58,96.00 346.93,96.00 349.28,96.00 351.63,96.00 353.98,96.00 356.33,96.00 358.68,96.00 361.03,96.00 363.38,96.00 365.73,96.00 368.08,96.00 370.43,96.00 372.78,96.00 375.13,96.00 377.48,96.00 379.84,96.00 382.19,96.00 384.54,96.00 386.89,96.00 389.24,96.00 391.59,96.00 393.94,96.00 396.29,96.00 398.64,96.00 400.99,96.00 403.34,96.00 405.69,96.00 408.04,96.00 410.39,96.00 412.75,96.00 415.10,96.00 417.45,96.00 419.80,96.00 422.15,96.00 424.50,96.00 426.85,96.00 429.20,96.00 431.55,96.00 433.90,96.00 436.25,96.00 438.60,96.00 440.95,96.00 443.30,96.00 445.65,96.00 448.01,96.00 450.36,96.00 452.71,96.00 455.06,96.00 457.41,96.00 459.76,96.00 462.11,96.00 464.46,96.00 466.81,96.00 469.16,96.00 471.51,96.00 473.86,96.00 476.21,96.00 478.56,96.00 480.92,96.00 483.27,96.00 485.62,96.00 487.97,96.00 490.32,96.00 492.67,96.00 495.02,96.00 497.37,96.00 499.72,96.00 502.07,96.00 504.42,96.00 506.77,96.00 509.12,96.00 511.47,96.00 513.82,96.00 516.18,96.00 518.53,96.00 520.88,96.00 523.23,96.00 525.58,96.00 527.93,96.00 530.28,96.00 532.63,96.00 534.98,96.00 537.33,96.00 539.68,96.00 542.03,96.00 544.38,96.00 546.73,96.00 549.08,96.00 551.44,96.00 553.79,96.00 556.14,96.00 558.49,96.00 560.84,96.00 563.19,96.00 565.54,96.00 567.89,96.00 570.24,96.00 572.59,96.00 574.94,96.00 577.29,96.00 579.64,96.00 581.99,96.00 584.35,96.00 586.70,96.00 589.05,96.00 591.40,96.00 593.75,96.00 596.10,96.00 598.45,96.00 600.80,96.00 603.15,96.00 605.50,96.00 607.85,96.00 610.20,96.00 612.55,96.00 614.90,96.00 617.25,96.00 619.61,96.00 621.96,96.00 624.31,96.00 626.66,96.00 629.01,96.00 631.36,96.00 633.71,96.00 636.06,96.00 638.41,96.00 640.76,96.00 643.11,96.00 645.46,96.00 647.81,96.00 650.16,96.00 652.52,96.00 654.87,96.00 657.22,96.00 659.57,96.00 661.92,96.00 664.27,96.00 666.62,96.00 668.97,96.00 671.32,96.00 673.67,96.00 676.02,96.00 678.37,96.00 680.72,96.00 683.07,96.00 685.42,96.00 687.78,96.00 690.13,96.00 692.48,96.00 694.83,96.00 697.18,96.00 699.53,96.00 701.88,96.00 704.23,96.00 706.58,96.00 708.93,96.00 711.28,96.00 713.63,96.00 715.98,96.00 718.33,96.00 720.68,96.00 723.04,96.00 725.39,96.00 727.74,96.00 730.09,96.00 732.44,96.00 734.79,96.00 737.14,96.00 739.49,96.00 741.84,96.00 744.19,96.00 746.54,96.00 748.89,96.00 751.24,96.00 753.59,96.00 755.95,96.00 758.30,96.00 760.65,96.00 763.00,96.00 765.35,96.00 767.70,96.00 770.05,96.00 772.40,96.00 774.75,96.00 777.10,96.00 779.45,96.00 781.80,96.00 784.15,96.00 786.50,96.00 788.85,96.00 791.21,96.00 793.56,96.00 795.91,96.00 798.26,96.00 800.61,96.00 802.96,96.00 805.31,96.00 807.66,96.00 810.01,96.00 812.36,96.00 814.71,96.00 817.06,96.00 819.41,96.00 821.76,96.00 824.12,96.00 826.47,96.00 828.82,96.00 831.17,96.00 833.52,96.00 835.87,96.00 838.22,96.00 840.57,96.00 842.92,96.00 845.27,96.00 847.62,96.00 849.97,96.00 852.32,96.00 854.67,96.00 857.02,96.00 859.38,96.00 861.73,96.00 864.08,96.00 866.43,96.00 868.78,96.00 871.13,96.00 873.48,96.00 875.83,96.00 878.18,96.00 880.53,96.00 882.88,96.00 885.23,96.00 887.58,96.00 889.93,96.00 892.28,96.00 894.64,96.00 896.99,96.00 899.34,96.00 901.69,96.00 904.04,96.00 906.39,96.00 908.74,96.00 911.09,96.00 913.44,96.00 915.79,96.00 918.14,96.00 920.49,96.00 922.84,96.00 925.19,96.00 927.55,96.00 929.90,96.00 932.25,96.00 934.60,96.00 936.95,96.00 939.30,96.00 941.65,96.00 944.00,96.00"/>
<polyline class="curve" stroke="#7c3aed" points="86.00,538.00 88.35,362.38 90.70,329.12 93.05,309.66 95.40,295.86 97.75,285.15 100.10,276.40 102.45,269.01 104.81,262.60 107.16,256.95 109.51,251.90 111.86,247.33 114.21,243.16 116.56,239.32 118.91,235.77 121.26,232.46 123.61,229.37 125.96,226.47 128.31,223.73 130.66,221.14 133.01,218.69 135.36,216.36 137.72,214.13 140.07,212.01 142.42,209.97 144.77,208.02 147.12,206.15 149.47,204.35 151.82,202.61 154.17,200.94 156.52,199.32 158.87,197.76 161.22,196.25 163.57,194.78 165.92,193.36 168.27,191.98 170.62,190.64 172.98,189.34 175.33,188.08 177.68,186.84 180.03,185.64 182.38,184.47 184.73,183.33 187.08,182.22 189.43,181.13 191.78,180.07 194.13,179.03 196.48,178.01 198.83,177.02 201.18,176.05 203.53,175.10 205.88,174.16 208.24,173.25 210.59,172.36 212.94,171.48 215.29,170.62 217.64,169.77 219.99,168.94 222.34,168.13 224.69,167.33 227.04,166.54 229.39,165.77 231.74,165.01 234.09,164.27 236.44,163.54 238.79,162.82 241.15,162.11 243.50,161.41 245.85,160.72 248.20,160.05 250.55,159.38 252.90,158.72 255.25,158.08 257.60,157.44 259.95,156.82 262.30,156.20 264.65,155.59 267.00,154.99 269.35,154.40 271.70,153.81 274.05,153.24 276.41,152.67 278.76,152.11 281.11,151.56 283.46,151.01 285.81,150.48 288.16,149.95 290.51,149.42 292.86,148.90 295.21,148.39 297.56,147.89 299.91,147.39 302.26,146.90 304.61,146.41 306.96,145.93 309.32,145.46 311.67,144.99 314.02,144.53 316.37,144.07 318.72,143.62 321.07,143.17 323.42,142.73 325.77,142.29 328.12,141.86 330.47,141.43 332.82,141.01 335.17,140.59 337.52,140.18 339.87,139.77 342.22,139.36 344.58,138.96 346.93,138.57 349.28,138.18 351.63,137.79 353.98,137.41 356.33,137.03 358.68,136.65 361.03,136.28 363.38,135.91 365.73,135.55 368.08,135.19 370.43,134.84 372.78,134.48 375.13,134.13 377.48,133.79 379.84,133.45 382.19,133.11 384.54,132.77 386.89,132.44 389.24,132.11 391.59,131.78 393.94,131.46 396.29,131.14 398.64,130.83 400.99,130.51 403.34,130.20 405.69,129.90 408.04,129.59 410.39,129.29 412.75,128.99 415.10,128.69 417.45,128.40 419.80,128.11 422.15,127.82 424.50,127.54 426.85,127.26 429.20,126.98 431.55,126.70 433.90,126.42 436.25,126.15 438.60,125.88 440.95,125.61 443.30,125.35 445.65,125.09 448.01,124.83 450.36,124.57 452.71,124.31 455.06,124.06 457.41,123.81 459.76,123.56 462.11,123.31 464.46,123.07 466.81,122.82 469.16,122.58 471.51,122.35 473.86,122.11 476.21,121.87 478.56,121.64 480.92,121.41 483.27,121.18 485.62,120.96 487.97,120.73 490.32,120.51 492.67,120.29 495.02,120.07 497.37,119.86 499.72,119.64 502.07,119.43 504.42,119.22 506.77,119.01 509.12,118.80 511.47,118.59 513.82,118.39 516.18,118.19 518.53,117.99 520.88,117.79 523.23,117.59 525.58,117.40 527.93,117.20 530.28,117.01 532.63,116.82 534.98,116.63 537.33,116.44 539.68,116.25 542.03,116.07 544.38,115.89 546.73,115.71 549.08,115.53 551.44,115.35 553.79,115.17 556.14,115.00 558.49,114.82 560.84,114.65 563.19,114.48 565.54,114.31 567.89,114.14 570.24,113.97 572.59,113.81 574.94,113.64 577.29,113.48 579.64,113.32 581.99,113.16 584.35,113.00 586.70,112.84 589.05,112.68 591.40,112.53 593.75,112.38 596.10,112.22 598.45,112.07 600.80,111.92 603.15,111.77 605.50,111.63 607.85,111.48 610.20,111.34 612.55,111.19 614.90,111.05 617.25,110.91 619.61,110.77 621.96,110.63 624.31,110.49 626.66,110.35 629.01,110.22 631.36,110.08 633.71,109.95 636.06,109.82 638.41,109.68 640.76,109.55 643.11,109.43 645.46,109.30 647.81,109.17 650.16,109.04 652.52,108.92 654.87,108.80 657.22,108.67 659.57,108.55 661.92,108.43 664.27,108.31 666.62,108.19 668.97,108.07 671.32,107.96 673.67,107.84 676.02,107.72 678.37,107.61 680.72,107.50 683.07,107.39 685.42,107.27 687.78,107.16 690.13,107.05 692.48,106.95 694.83,106.84 697.18,106.73 699.53,106.63 701.88,106.52 704.23,106.42 706.58,106.31 708.93,106.21 711.28,106.11 713.63,106.01 715.98,105.91 718.33,105.81 720.68,105.71 723.04,105.62 725.39,105.52 727.74,105.43 730.09,105.33 732.44,105.24 734.79,105.14 737.14,105.05 739.49,104.96 741.84,104.87 744.19,104.78 746.54,104.69 748.89,104.60 751.24,104.51 753.59,104.43 755.95,104.34 758.30,104.26 760.65,104.17 763.00,104.09 765.35,104.00 767.70,103.92 770.05,103.84 772.40,103.76 774.75,103.68 777.10,103.60 779.45,103.52 781.80,103.44 784.15,103.36 786.50,103.29 788.85,103.21 791.21,103.13 793.56,103.06 795.91,102.99 798.26,102.91 800.61,102.84 802.96,102.77 805.31,102.70 807.66,102.62 810.01,102.55 812.36,102.48 814.71,102.42 817.06,102.35 819.41,102.28 821.76,102.21 824.12,102.14 826.47,102.08 828.82,102.01 831.17,101.95 833.52,101.88 835.87,101.82 838.22,101.76 840.57,101.69 842.92,101.63 845.27,101.57 847.62,101.51 849.97,101.45 852.32,101.39 854.67,101.33 857.02,101.27 859.38,101.21 861.73,101.16 864.08,101.10 866.43,101.04 868.78,100.99 871.13,100.93 873.48,100.88 875.83,100.82 878.18,100.77 880.53,100.72 882.88,100.66 885.23,100.61 887.58,100.56 889.93,100.51 892.28,100.46 894.64,100.41 896.99,100.36 899.34,100.31 901.69,100.26 904.04,100.21 906.39,100.16 908.74,100.11 911.09,100.07 913.44,100.02 915.79,99.97 918.14,99.93 920.49,99.88 922.84,99.84 925.19,99.79 927.55,99.75 929.90,99.70 932.25,99.66 934.60,99.62 936.95,99.58 939.30,99.53 941.65,99.49 944.00,99.45"/>
<rect x="718" y="102" width="210" height="128" rx="4" fill="#ffffff" stroke="#cbd5e1"/>
<line x1="734" y1="124" x2="762" y2="124" stroke="#c2410c" stroke-width="3"/>
<text class="legend" x="772" y="128">d = 12</text>
<line x1="734" y1="146" x2="762" y2="146" stroke="#d97706" stroke-width="3"/>
<text class="legend" x="772" y="150">d = 18</text>
<line x1="734" y1="168" x2="762" y2="168" stroke="#16a34a" stroke-width="3"/>
<text class="legend" x="772" y="172">d = 24</text>
<line x1="734" y1="190" x2="762" y2="190" stroke="#2563eb" stroke-width="3"/>
<text class="legend" x="772" y="194">d = 30 (current)</text>
<line x1="734" y1="212" x2="762" y2="212" stroke="#7c3aed" stroke-width="3"/>
<text class="legend" x="772" y="216">d = 36</text>
<text class="note" x="86" y="612">The zero-probability point at day 0 is clamped to the 1e-8 floor for log-scale rendering.</text>
</svg>
