<svg xmlns="http://www.w3.org/2000/svg" width="1040" height="620" viewBox="0 0 1040 620">
<style>
  text { font-family: -apple-system, BlinkMacSystemFont, "Segoe UI", sans-serif; fill: #0f172a; }
  .title { font-size: 28px; font-weight: 700; }
  .subtitle { font-size: 14px; fill: #475569; }
  .formula { font-size: 13px; fill: #334155; }
  .tick { font-size: 12px; fill: #475569; }
  .label { font-size: 13px; fill: #334155; }
  .legend { font-size: 13px; fill: #0f172a; }
  .grid { stroke: #e2e8f0; stroke-width: 1; }
  .axis { stroke: #64748b; stroke-width: 1.4; }
  .curve { fill: none; stroke-width: 2.5; }
</style>
<rect width="100%" height="100%" fill="#ffffff"/>
<text class="title" x="86" y="38">General leaf collision probability by channel age</text>
<text class="subtitle" x="86" y="60">Poisson arrival model; one new finite-tree leaf per minute on average; y-axis is logarithmic.</text>
<text class="formula" x="86" y="612">P(collision by t) = 1 - exp(-mu(t)) * (1 + mu(t) / 2^d)^(2^d), where mu(t) = 1440t for t in days.</text>

<line class="grid" x1="86.00" y1="76" x2="86.00" y2="538"/><text class="tick" x="86.00" y="564" text-anchor="middle">0</text>
<line class="grid" x1="156.52" y1="76" x2="156.52" y2="538"/><text class="tick" x="156.52" y="564" text-anchor="middle">30</text>
<line class="grid" x1="227.04" y1="76" x2="227.04" y2="538"/><text class="tick" x="227.04" y="564" text-anchor="middle">60</text>
<line class="grid" x1="368.08" y1="76" x2="368.08" y2="538"/><text class="tick" x="368.08" y="564" text-anchor="middle">120</text>
<line class="grid" x1="509.12" y1="76" x2="509.12" y2="538"/><text class="tick" x="509.12" y="564" text-anchor="middle">180</text>
<line class="grid" x1="650.16" y1="76" x2="650.16" y2="538"/><text class="tick" x="650.16" y="564" text-anchor="middle">240</text>
<line class="grid" x1="791.21" y1="76" x2="791.21" y2="538"/><text class="tick" x="791.21" y="564" text-anchor="middle">300</text>
<line class="grid" x1="944.00" y1="76" x2="944.00" y2="538"/><text class="tick" x="944.00" y="564" text-anchor="middle">365</text>
<line class="grid" x1="86" y1="76.00" x2="944" y2="76.00"/><text class="tick" x="74" y="81.00" text-anchor="end">1</text>
<line class="grid" x1="86" y1="168.40" x2="944" y2="168.40"/><text class="tick" x="74" y="173.40" text-anchor="end">1e-2</text>
<line class="grid" x1="86" y1="260.80" x2="944" y2="260.80"/><text class="tick" x="74" y="265.80" text-anchor="end">1e-4</text>
<line class="grid" x1="86" y1="353.20" x2="944" y2="353.20"/><text class="tick" x="74" y="358.20" text-anchor="end">1e-6</text>
<line class="grid" x1="86" y1="445.60" x2="944" y2="445.60"/><text class="tick" x="74" y="450.60" text-anchor="end">1e-8</text>
<line class="grid" x1="86" y1="538.00" x2="944" y2="538.00"/><text class="tick" x="74" y="543.00" text-anchor="end">1e-10</text>
<line class="axis" x1="86" y1="538" x2="944" y2="538"/>
<line class="axis" x1="86" y1="76" x2="86" y2="538"/>
<text class="label" x="515" y="596" text-anchor="middle">channel operating period (days), lambda = 1 new leaf/minute</text>
<text class="label" transform="translate(24 307) rotate(-90)" text-anchor="middle">probability, log scale</text>
<polyline class="curve" stroke="#c2410c" points="86.00,538.00 88.35,76.00 90.70,76.00 93.05,76.00 95.40,76.00 97.75,76.00 100.10,76.00 102.45,76.00 104.81,76.00 107.16,76.00 109.51,76.00 111.86,76.00 114.21,76.00 116.56,76.00 118.91,76.00 121.26,76.00 123.61,76.00 125.96,76.00 128.31,76.00 130.66,76.00 133.01,76.00 135.36,76.00 137.72,76.00 140.07,76.00 142.42,76.00 144.77,76.00 147.12,76.00 149.47,76.00 151.82,76.00 154.17,76.00 156.52,76.00 158.87,76.00 161.22,76.00 163.57,76.00 165.92,76.00 168.27,76.00 170.62,76.00 172.98,76.00 175.33,76.00 177.68,76.00 180.03,76.00 182.38,76.00 184.73,76.00 187.08,76.00 189.43,76.00 191.78,76.00 194.13,76.00 196.48,76.00 198.83,76.00 201.18,76.00 203.53,76.00 205.88,76.00 208.24,76.00 210.59,76.00 212.94,76.00 215.29,76.00 217.64,76.00 219.99,76.00 222.34,76.00 224.69,76.00 227.04,76.00 229.39,76.00 231.74,76.00 234.09,76.00 236.44,76.00 238.79,76.00 241.15,76.00 243.50,76.00 245.85,76.00 248.20,76.00 250.55,76.00 252.90,76.00 255.25,76.00 257.60,76.00 259.95,76.00 262.30,76.00 264.65,76.00 267.00,76.00 269.35,76.00 271.70,76.00 274.05,76.00 276.41,76.00 278.76,76.00 281.11,76.00 283.46,76.00 285.81,76.00 288.16,76.00 290.51,76.00 292.86,76.00 295.21,76.00 297.56,76.00 299.91,76.00 302.26,76.00 304.61,76.00 306.96,76.00 309.32,76.00 311.67,76.00 314.02,76.00 316.37,76.00 318.72,76.00 321.07,76.00 323.42,76.00 325.77,76.00 328.12,76.00 330.47,76.00 332.82,76.00 335.17,76.00 337.52,76.00 339.87,76.00 342.22,76.00 344.58,76.00 346.93,76.00 349.28,76.00 351.63,76.00 353.98,76.00 356.33,76.00 358.68,76.00 361.03,76.00 363.38,76.00 365.73,76.00 368.08,76.00 370.43,76.00 372.78,76.00 375.13,76.00 377.48,76.00 379.84,76.00 382.19,76.00 384.54,76.00 386.89,76.00 389.24,76.00 391.59,76.00 393.94,76.00 396.29,76.00 398.64,76.00 400.99,76.00 403.34,76.00 405.69,76.00 408.04,76.00 410.39,76.00 412.75,76.00 415.10,76.00 417.45,76.00 419.80,76.00 422.15,76.00 424.50,76.00 426.85,76.00 429.20,76.00 431.55,76.00 433.90,76.00 436.25,76.00 438.60,76.00 440.95,76.00 443.30,76.00 445.65,76.00 448.01,76.00 450.36,76.00 452.71,76.00 455.06,76.00 457.41,76.00 459.76,76.00 462.11,76.00 464.46,76.00 466.81,76.00 469.16,76.00 471.51,76.00 473.86,76.00 476.21,76.00 478.56,76.00 480.92,76.00 483.27,76.00 485.62,76.00 487.97,76.00 490.32,76.00 492.67,76.00 495.02,76.00 497.37,76.00 499.72,76.00 502.07,76.00 504.42,76.00 506.77,76.00 509.12,76.00 511.47,76.00 513.82,76.00 516.18,76.00 518.53,76.00 520.88,76.00 523.23,76.00 525.58,76.00 527.93,76.00 530.28,76.00 532.63,76.00 534.98,76.00 537.33,76.00 539.68,76.00 542.03,76.00 544.38,76.00 546.73,76.00 549.08,76.00 551.44,76.00 553.79,76.00 556.14,76.00 558.49,76.00 560.84,76.00 563.19,76.00 565.54,76.00 567.89,76.00 570.24,76.00 572.59,76.00 574.94,76.00 577.29,76.00 579.64,76.00 581.99,76.00 584.35,76.00 586.70,76.00 589.05,76.00 591.40,76.00 593.75,76.00 596.10,76.00 598.45,76.00 600.80,76.00 603.15,76.00 605.50,76.00 607.85,76.00 610.20,76.00 612.55,76.00 614.90,76.00 617.25,76.00 619.61,76.00 621.96,76.00 624.31,76.00 626.66,76.00 629.01,76.00 631.36,76.00 633.71,76.00 636.06,76.00 638.41,76.00 640.76,76.00 643.11,76.00 645.46,76.00 647.81,76.00 650.16,76.00 652.52,76.00 654.87,76.00 657.22,76.00 659.57,76.00 661.92,76.00 664.27,76.00 666.62,76.00 668.97,76.00 671.32,76.00 673.67,76.00 676.02,76.00 678.37,76.00 680.72,76.00 683.07,76.00 685.42,76.00 687.78,76.00 690.13,76.00 692.48,76.00 694.83,76.00 697.18,76.00 699.53,76.00 701.88,76.00 704.23,76.00 706.58,76.00 708.93,76.00 711.28,76.00 713.63,76.00 715.98,76.00 718.33,76.00 720.68,76.00 723.04,76.00 725.39,76.00 727.74,76.00 730.09,76.00 732.44,76.00 734.79,76.00 737.14,76.00 739.49,76.00 741.84,76.00 744.19,76.00 746.54,76.00 748.89,76.00 751.24,76.00 753.59,76.00 755.95,76.00 758.30,76.00 760.65,76.00 763.00,76.00 765.35,76.00 767.70,76.00 770.05,76.00 772.40,76.00 774.75,76.00 777.10,76.00 779.45,76.00 781.80,76.00 784.15,76.00 786.50,76.00 788.85,76.00 791.21,76.00 793.56,76.00 795.91,76.00 798.26,76.00 800.61,76.00 802.96,76.00 805.31,76.00 807.66,76.00 810.01,76.00 812.36,76.00 814.71,76.00 817.06,76.00 819.41,76.00 821.76,76.00 824.12,76.00 826.47,76.00 828.82,76.00 831.17,76.00 833.52,76.00 835.87,76.00 838.22,76.00 840.57,76.00 842.92,76.00 845.27,76.00 847.62,76.00 849.97,76.00 852.32,76.00 854.67,76.00 857.02,76.00 859.38,76.00 861.73,76.00 864.08,76.00 866.43,76.00 868.78,76.00 871.13,76.00 873.48,76.00 875.83,76.00 878.18,76.00 880.53,76.00 882.88,76.00 885.23,76.00 887.58,76.00 889.93,76.00 892.28,76.00 894.64,76.00 896.99,76.00 899.34,76.00 901.69,76.00 904.04,76.00 906.39,76.00 908.74,76.00 911.09,76.00 913.44,76.00 915.79,76.00 918.14,76.00 920.49,76.00 922.84,76.00 925.19,76.00 927.55,76.00 929.90,76.00 932.25,76.00 934.60,76.00 936.95,76.00 939.30,76.00 941.65,76.00 944.00,76.00"/>
<polyline class="curve" stroke="#d97706" points="86.00,538.00 88.35,76.39 90.70,76.00 93.05,76.00 95.40,76.00 97.75,76.00 100.10,76.00 102.45,76.00 104.81,76.00 107.16,76.00 109.51,76.00 111.86,76.00 114.21,76.00 116.56,76.00 118.91,76.00 121.26,76.00 123.61,76.00 125.96,76.00 128.31,76.00 130.66,76.00 133.01,76.00 135.36,76.00 137.72,76.00 140.07,76.00 142.42,76.00 144.77,76.00 147.12,76.00 149.47,76.00 151.82,76.00 154.17,76.00 156.52,76.00 158.87,76.00 161.22,76.00 163.57,76.00 165.92,76.00 168.27,76.00 170.62,76.00 172.98,76.00 175.33,76.00 177.68,76.00 180.03,76.00 182.38,76.00 184.73,76.00 187.08,76.00 189.43,76.00 191.78,76.00 194.13,76.00 196.48,76.00 198.83,76.00 201.18,76.00 203.53,76.00 205.88,76.00 208.24,76.00 210.59,76.00 212.94,76.00 215.29,76.00 217.64,76.00 219.99,76.00 222.34,76.00 224.69,76.00 227.04,76.00 229.39,76.00 231.74,76.00 234.09,76.00 236.44,76.00 238.79,76.00 241.15,76.00 243.50,76.00 245.85,76.00 248.20,76.00 250.55,76.00 252.90,76.00 255.25,76.00 257.60,76.00 259.95,76.00 262.30,76.00 264.65,76.00 267.00,76.00 269.35,76.00 271.70,76.00 274.05,76.00 276.41,76.00 278.76,76.00 281.11,76.00 283.46,76.00 285.81,76.00 288.16,76.00 290.51,76.00 292.86,76.00 295.21,76.00 297.56,76.00 299.91,76.00 302.26,76.00 304.61,76.00 306.96,76.00 309.32,76.00 311.67,76.00 314.02,76.00 316.37,76.00 318.72,76.00 321.07,76.00 323.42,76.00 325.77,76.00 328.12,76.00 330.47,76.00 332.82,76.00 335.17,76.00 337.52,76.00 339.87,76.00 342.22,76.00 344.58,76.00 346.93,76.00 349.28,76.00 351.63,76.00 353.98,76.00 356.33,76.00 358.68,76.00 361.03,76.00 363.38,76.00 365.73,76.00 368.08,76.00 370.43,76.00 372.78,76.00 375.13,76.00 377.48,76.00 379.84,76.00 382.19,76.00 384.54,76.00 386.89,76.00 389.24,76.00 391.59,76.00 393.94,76.00 396.29,76.00 398.64,76.00 400.99,76.00 403.34,76.00 405.69,76.00 408.04,76.00 410.39,76.00 412.75,76.00 415.10,76.00 417.45,76.00 419.80,76.00 422.15,76.00 424.50,76.00 426.85,76.00 429.20,76.00 431.55,76.00 433.90,76.00 436.25,76.00 438.60,76.00 440.95,76.00 443.30,76.00 445.65,76.00 448.01,76.00 450.36,76.00 452.71,76.00 455.06,76.00 457.41,76.00 459.76,76.00 462.11,76.00 464.46,76.00 466.81,76.00 469.16,76.00 471.51,76.00 473.86,76.00 476.21,76.00 478.56,76.00 480.92,76.00 483.27,76.00 485.62,76.00 487.97,76.00 490.32,76.00 492.67,76.00 495.02,76.00 497.37,76.00 499.72,76.00 502.07,76.00 504.42,76.00 506.77,76.00 509.12,76.00 511.47,76.00 513.82,76.00 516.18,76.00 518.53,76.00 520.88,76.00 523.23,76.00 525.58,76.00 527.93,76.00 530.28,76.00 532.63,76.00 534.98,76.00 537.33,76.00 539.68,76.00 542.03,76.00 544.38,76.00 546.73,76.00 549.08,76.00 551.44,76.00 553.79,76.00 556.14,76.00 558.49,76.00 560.84,76.00 563.19,76.00 565.54,76.00 567.89,76.00 570.24,76.00 572.59,76.00 574.94,76.00 577.29,76.00 579.64,76.00 581.99,76.00 584.35,76.00 586.70,76.00 589.05,76.00 591.40,76.00 593.75,76.00 596.10,76.00 598.45,76.00 600.80,76.00 603.15,76.00 605.50,76.00 607.85,76.00 610.20,76.00 612.55,76.00 614.90,76.00 617.25,76.00 619.61,76.00 621.96,76.00 624.31,76.00 626.66,76.00 629.01,76.00 631.36,76.00 633.71,76.00 636.06,76.00 638.41,76.00 640.76,76.00 643.11,76.00 645.46,76.00 647.81,76.00 650.16,76.00 652.52,76.00 654.87,76.00 657.22,76.00 659.57,76.00 661.92,76.00 664.27,76.00 666.62,76.00 668.97,76.00 671.32,76.00 673.67,76.00 676.02,76.00 678.37,76.00 680.72,76.00 683.07,76.00 685.42,76.00 687.78,76.00 690.13,76.00 692.48,76.00 694.83,76.00 697.18,76.00 699.53,76.00 701.88,76.00 704.23,76.00 706.58,76.00 708.93,76.00 711.28,76.00 713.63,76.00 715.98,76.00 718.33,76.00 720.68,76.00 723.04,76.00 725.39,76.00 727.74,76.00 730.09,76.00 732.44,76.00 734.79,76.00 737.14,76.00 739.49,76.00 741.84,76.00 744.19,76.00 746.54,76.00 748.89,76.00 751.24,76.00 753.59,76.00 755.95,76.00 758.30,76.00 760.65,76.00 763.00,76.00 765.35,76.00 767.70,76.00 770.05,76.00 772.40,76.00 774.75,76.00 777.10,76.00 779.45,76.00 781.80,76.00 784.15,76.00 786.50,76.00 788.85,76.00 791.21,76.00 793.56,76.00 795.91,76.00 798.26,76.00 800.61,76.00 802.96,76.00 805.31,76.00 807.66,76.00 810.01,76.00 812.36,76.00 814.71,76.00 817.06,76.00 819.41,76.00 821.76,76.00 824.12,76.00 826.47,76.00 828.82,76.00 831.17,76.00 833.52,76.00 835.87,76.00 838.22,76.00 840.57,76.00 842.92,76.00 845.27,76.00 847.62,76.00 849.97,76.00 852.32,76.00 854.67,76.00 857.02,76.00 859.38,76.00 861.73,76.00 864.08,76.00 866.43,76.00 868.78,76.00 871.13,76.00 873.48,76.00 875.83,76.00 878.18,76.00 880.53,76.00 882.88,76.00 885.23,76.00 887.58,76.00 889.93,76.00 892.28,76.00 894.64,76.00 896.99,76.00 899.34,76.00 901.69,76.00 904.04,76.00 906.39,76.00 908.74,76.00 911.09,76.00 913.44,76.00 915.79,76.00 918.14,76.00 920.49,76.00 922.84,76.00 925.19,76.00 927.55,76.00 929.90,76.00 932.25,76.00 934.60,76.00 936.95,76.00 939.30,76.00 941.65,76.00 944.00,76.00"/>
<polyline class="curve" stroke="#16a34a" points="86.00,538.00 88.35,132.47 90.70,106.47 93.05,93.10 95.40,85.34 97.75,80.82 100.10,78.30 102.45,77.00 104.81,76.39 107.16,76.14 109.51,76.04 111.86,76.01 114.21,76.00 116.56,76.00 118.91,76.00 121.26,76.00 123.61,76.00 125.96,76.00 128.31,76.00 130.66,76.00 133.01,76.00 135.36,76.00 137.72,76.00 140.07,76.00 142.42,76.00 144.77,76.00 147.12,76.00 149.47,76.00 151.82,76.00 154.17,76.00 156.52,76.00 158.87,76.00 161.22,76.00 163.57,76.00 165.92,76.00 168.27,76.00 170.62,76.00 172.98,76.00 175.33,76.00 177.68,76.00 180.03,76.00 182.38,76.00 184.73,76.00 187.08,76.00 189.43,76.00 191.78,76.00 194.13,76.00 196.48,76.00 198.83,76.00 201.18,76.00 203.53,76.00 205.88,76.00 208.24,76.00 210.59,76.00 212.94,76.00 215.29,76.00 217.64,76.00 219.99,76.00 222.34,76.00 224.69,76.00 227.04,76.00 229.39,76.00 231.74,76.00 234.09,76.00 236.44,76.00 238.79,76.00 241.15,76.00 243.50,76.00 245.85,76.00 248.20,76.00 250.55,76.00 252.90,76.00 255.25,76.00 257.60,76.00 259.95,76.00 262.30,76.00 264.65,76.00 267.00,76.00 269.35,76.00 271.70,76.00 274.05,76.00 276.41,76.00 278.76,76.00 281.11,76.00 283.46,76.00 285.81,76.00 288.16,76.00 290.51,76.00 292.86,76.00 295.21,76.00 297.56,76.00 299.91,76.00 302.26,76.00 304.61,76.00 306.96,76.00 309.32,76.00 311.67,76.00 314.02,76.00 316.37,76.00 318.72,76.00 321.07,76.00 323.42,76.00 325.77,76.00 328.12,76.00 330.47,76.00 332.82,76.00 335.17,76.00 337.52,76.00 339.87,76.00 342.22,76.00 344.58,76.00 346.93,76.00 349.28,76.00 351.63,76.00 353.98,76.00 356.33,76.00 358.68,76.00 361.03,76.00 363.38,76.00 365.73,76.00 368.08,76.00 370.43,76.00 372.78,76.00 375.13,76.00 377.48,76.00 379.84,76.00 382.19,76.00 384.54,76.00 386.89,76.00 389.24,76.00 391.59,76.00 393.94,76.00 396.29,76.00 398.64,76.00 400.99,76.00 403.34,76.00 405.69,76.00 408.04,76.00 410.39,76.00 412.75,76.00 415.10,76.00 417.45,76.00 419.80,76.00 422.15,76.00 424.50,76.00 426.85,76.00 429.20,76.00 431.55,76.00 433.90,76.00 436.25,76.00 438.60,76.00 440.95,76.00 443.30,76.00 445.65,76.00 448.01,76.00 450.36,76.00 452.71,76.00 455.06,76.00 457.41,76.00 459.76,76.00 462.11,76.00 464.46,76.00 466.81,76.00 469.16,76.00 471.51,76.00 473.86,76.00 476.21,76.00 478.56,76.00 480.92,76.00 483.27,76.00 485.62,76.00 487.97,76.00 490.32,76.00 492.67,76.00 495.02,76.00 497.37,76.00 499.72,76.00 502.07,76.00 504.42,76.00 506.77,76.00 509.12,76.00 511.47,76.00 513.82,76.00 516.18,76.00 518.53,76.00 520.88,76.00 523.23,76.00 525.58,76.00 527.93,76.00 530.28,76.00 532.63,76.00 534.98,76.00 537.33,76.00 539.68,76.00 542.03,76.00 544.38,76.00 546.73,76.00 549.08,76.00 551.44,76.00 553.79,76.00 556.14,76.00 558.49,76.00 560.84,76.00 563.19,76.00 565.54,76.00 567.89,76.00 570.24,76.00 572.59,76.00 574.94,76.00 577.29,76.00 579.64,76.00 581.99,76.00 584.35,76.00 586.70,76.00 589.05,76.00 591.40,76.00 593.75,76.00 596.10,76.00 598.45,76.00 600.80,76.00 603.15,76.00 605.50,76.00 607.85,76.00 610.20,76.00 612.55,76.00 614.90,76.00 617.25,76.00 619.61,76.00 621.96,76.00 624.31,76.00 626.66,76.00 629.01,76.00 631.36,76.00 633.71,76.00 636.06,76.00 638.41,76.00 640.76,76.00 643.11,76.00 645.46,76.00 647.81,76.00 650.16,76.00 652.52,76.00 654.87,76.00 657.22,76.00 659.57,76.00 661.92,76.00 664.27,76.00 666.62,76.00 668.97,76.00 671.32,76.00 673.67,76.00 676.02,76.00 678.37,76.00 680.72,76.00 683.07,76.00 685.42,76.00 687.78,76.00 690.13,76.00 692.48,76.00 694.83,76.00 697.18,76.00 699.53,76.00 701.88,76.00 704.23,76.00 706.58,76.00 708.93,76.00 711.28,76.00 713.63,76.00 715.98,76.00 718.33,76.00 720.68,76.00 723.04,76.00 725.39,76.00 727.74,76.00 730.09,76.00 732.44,76.00 734.79,76.00 737.14,76.00 739.49,76.00 741.84,76.00 744.19,76.00 746.54,76.00 748.89,76.00 751.24,76.00 753.59,76.00 755.95,76.00 758.30,76.00 760.65,76.00 763.00,76.00 765.35,76.00 767.70,76.00 770.05,76.00 772.40,76.00 774.75,76.00 777.10,76.00 779.45,76.00 781.80,76.00 784.15,76.00 786.50,76.00 788.85,76.00 791.21,76.00 793.56,76.00 795.91,76.00 798.26,76.00 800.61,76.00 802.96,76.00 805.31,76.00 807.66,76.00 810.01,76.00 812.36,76.00 814.71,76.00 817.06,76.00 819.41,76.00 821.76,76.00 824.12,76.00 826.47,76.00 828.82,76.00 831.17,76.00 833.52,76.00 835.87,76.00 838.22,76.00 840.57,76.00 842.92,76.00 845.27,76.00 847.62,76.00 849.97,76.00 852.32,76.00 854.67,76.00 857.02,76.00 859.38,76.00 861.73,76.00 864.08,76.00 866.43,76.00 868.78,76.00 871.13,76.00 873.48,76.00 875.83,76.00 878.18,76.00 880.53,76.00 882.88,76.00 885.23,76.00 887.58,76.00 889.93,76.00 892.28,76.00 894.64,76.00 896.99,76.00 899.34,76.00 901.69,76.00 904.04,76.00 906.39,76.00 908.74,76.00 911.09,76.00 913.44,76.00 915.79,76.00 918.14,76.00 920.49,76.00 922.84,76.00 925.19,76.00 927.55,76.00 929.90,76.00 932.25,76.00 934.60,76.00 936.95,76.00 939.30,76.00 941.65,76.00 944.00,76.00"/>
<polyline class="curve" stroke="#2563eb" points="86.00,538.00 88.35,215.31 90.70,187.53 93.05,171.30 95.40,159.83 97.75,150.96 100.10,143.75 102.45,137.69 104.81,132.47 107.16,127.91 109.51,123.86 111.86,120.24 114.21,116.97 116.56,113.99 118.91,111.27 121.26,108.77 123.61,106.47 125.96,104.34 128.31,102.37 130.66,100.54 133.01,98.84 135.36,97.25 137.72,95.77 140.07,94.39 142.42,93.09 144.77,91.88 147.12,90.75 149.47,89.69 151.82,88.70 154.17,87.78 156.52,86.91 158.87,86.10 161.22,85.34 163.57,84.63 165.92,83.96 168.27,83.34 170.62,82.76 172.98,82.22 175.33,81.72 177.68,81.25 180.03,80.81 182.38,80.41 184.73,80.03 187.08,79.68 189.43,79.36 191.78,79.06 194.13,78.79 196.48,78.53 198.83,78.30 201.18,78.08 203.53,77.88 205.88,77.70 208.24,77.53 210.59,77.38 212.94,77.24 215.29,77.11 217.64,77.00 219.99,76.89 222.34,76.80 224.69,76.71 227.04,76.63 229.39,76.56 231.74,76.50 234.09,76.44 236.44,76.39 238.79,76.34 241.15,76.30 243.50,76.26 245.85,76.23 248.20,76.20 250.55,76.18 252.90,76.15 255.25,76.13 257.60,76.12 259.95,76.10 262.30,76.09 264.65,76.08 267.00,76.07 269.35,76.06 271.70,76.05 274.05,76.04 276.41,76.04 278.76,76.03 281.11,76.03 283.46,76.02 285.81,76.02 288.16,76.02 290.51,76.01 292.86,76.01 295.21,76.01 297.56,76.01 299.91,76.01 302.26,76.01 304.61,76.00 306.96,76.00 309.32,76.00 311.67,76.00 314.02,76.00 316.37,76.00 318.72,76.00 321.07,76.00 323.42,76.00 325.77,76.00 328.12,76.00 330.47,76.00 332.82,76.00 335.17,76.00 337.52,76.00 339.87,76.00 342.22,76.00 344.58,76.00 346.93,76.00 349.28,76.00 351.63,76.00 353.98,76.00 356.33,76.00 358.68,76.00 361.03,76.00 363.38,76.00 365.73,76.00 368.08,76.00 370.43,76.00 372.78,76.00 375.13,76.00 377.48,76.00 379.84,76.00 382.19,76.00 384.54,76.00 386.89,76.00 389.24,76.00 391.59,76.00 393.94,76.00 396.29,76.00 398.64,76.00 400.99,76.00 403.34,76.00 405.69,76.00 408.04,76.00 410.39,76.00 412.75,76.00 415.10,76.00 417.45,76.00 419.80,76.00 422.15,76.00 424.50,76.00 426.85,76.00 429.20,76.00 431.55,76.00 433.90,76.00 436.25,76.00 438.60,76.00 440.95,76.00 443.30,76.00 445.65,76.00 448.01,76.00 450.36,76.00 452.71,76.00 455.06,76.00 457.41,76.00 459.76,76.00 462.11,76.00 464.46,76.00 466.81,76.00 469.16,76.00 471.51,76.00 473.86,76.00 476.21,76.00 478.56,76.00 480.92,76.00 483.27,76.00 485.62,76.00 487.97,76.00 490.32,76.00 492.67,76.00 495.02,76.00 497.37,76.00 499.72,76.00 502.07,76.00 504.42,76.00 506.77,76.00 509.12,76.00 511.47,76.00 513.82,76.00 516.18,76.00 518.53,76.00 520.88,76.00 523.23,76.00 525.58,76.00 527.93,76.00 530.28,76.00 532.63,76.00 534.98,76.00 537.33,76.00 539.68,76.00 542.03,76.00 544.38,76.00 546.73,76.00 549.08,76.00 551.44,76.00 553.79,76.00 556.14,76.00 558.49,76.00 560.84,76.00 563.19,76.00 565.54,76.00 567.89,76.00 570.24,76.00 572.59,76.00 574.94,76.00 577.29,76.00 579.64,76.00 581.99,76.00 584.35,76.00 586.70,76.00 589.05,76.00 591.40,76.00 593.75,76.00 596.10,76.00 598.45,76.00 600.80,76.00 603.15,76.00 605.50,76.00 607.85,76.00 610.20,76.00 612.55,76.00 614.90,76.00 617.25,76.00 619.61,76.00 621.96,76.00 624.31,76.00 626.66,76.00 629.01,76.00 631.36,76.00 633.71,76.00 636.06,76.00 638.41,76.00 640.76,76.00 643.11,76.00 645.46,76.00 647.81,76.00 650.16,76.00 652.52,76.00 654.87,76.00 657.22,76.00 659.57,76.00 661.92,76.00 664.27,76.00 666.62,76.00 668.97,76.00 671.32,76.00 673.67,76.00 676.02,76.00 678.37,76.00 680.72,76.00 683.07,76.00 685.42,76.00 687.78,76.00 690.13,76.00 692.48,76.00 694.83,76.00 697.18,76.00 699.53,76.00 701.88,76.00 704.23,76.00 706.58,76.00 708.93,76.00 711.28,76.00 713.63,76.00 715.98,76.00 718.33,76.00 720.68,76.00 723.04,76.00 725.39,76.00 727.74,76.00 730.09,76.00 732.44,76.00 734.79,76.00 737.14,76.00 739.49,76.00 741.84,76.00 744.19,76.00 746.54,76.00 748.89,76.00 751.24,76.00 753.59,76.00 755.95,76.00 758.30,76.00 760.65,76.00 763.00,76.00 765.35,76.00 767.70,76.00 770.05,76.00 772.40,76.00 774.75,76.00 777.10,76.00 779.45,76.00 781.80,76.00 784.15,76.00 786.50,76.00 788.85,76.00 791.21,76.00 793.56,76.00 795.91,76.00 798.26,76.00 800.61,76.00 802.96,76.00 805.31,76.00 807.66,76.00 810.01,76.00 812.36,76.00 814.71,76.00 817.06,76.00 819.41,76.00 821.76,76.00 824.12,76.00 826.47,76.00 828.82,76.00 831.17,76.00 833.52,76.00 835.87,76.00 838.22,76.00 840.57,76.00 842.92,76.00 845.27,76.00 847.62,76.00 849.97,76.00 852.32,76.00 854.67,76.00 857.02,76.00 859.38,76.00 861.73,76.00 864.08,76.00 866.43,76.00 868.78,76.00 871.13,76.00 873.48,76.00 875.83,76.00 878.18,76.00 880.53,76.00 882.88,76.00 885.23,76.00 887.58,76.00 889.93,76.00 892.28,76.00 894.64,76.00 896.99,76.00 899.34,76.00 901.69,76.00 904.04,76.00 906.39,76.00 908.74,76.00 911.09,76.00 913.44,76.00 915.79,76.00 918.14,76.00 920.49,76.00 922.84,76.00 925.19,76.00 927.55,76.00 929.90,76.00 932.25,76.00 934.60,76.00 936.95,76.00 939.30,76.00 941.65,76.00 944.00,76.00"/>
<polyline class="curve" stroke="#7c3aed" points="86.00,538.00 88.35,298.75 90.70,270.93 93.05,254.66 95.40,243.12 97.75,234.17 100.10,226.85 102.45,220.67 104.81,215.31 107.16,210.59 109.51,206.36 111.86,202.54 114.21,199.05 116.56,195.85 118.91,192.88 121.26,190.11 123.61,187.53 125.96,185.10 128.31,182.81 130.66,180.65 133.01,178.59 135.36,176.64 137.72,174.78 140.07,173.00 142.42,171.30 144.77,169.67 147.12,168.11 149.47,166.60 151.82,165.15 154.17,163.75 156.52,162.40 158.87,161.09 161.22,159.83 163.57,158.60 165.92,157.41 168.27,156.26 170.62,155.14 172.98,154.05 175.33,152.99 177.68,151.96 180.03,150.96 182.38,149.98 184.73,149.03 187.08,148.09 189.43,147.19 191.78,146.30 194.13,145.43 196.48,144.58 198.83,143.75 201.18,142.94 203.53,142.14 205.88,141.36 208.24,140.60 210.59,139.85 212.94,139.11 215.29,138.39 217.64,137.69 219.99,136.99 222.34,136.31 224.69,135.65 227.04,134.99 229.39,134.34 231.74,133.71 234.09,133.09 236.44,132.47 238.79,131.87 241.15,131.28 243.50,130.69 245.85,130.12 248.20,129.55 250.55,129.00 252.90,128.45 255.25,127.91 257.60,127.38 259.95,126.85 262.30,126.34 264.65,125.83 267.00,125.33 269.35,124.83 271.70,124.34 274.05,123.86 276.41,123.39 278.76,122.92 281.11,122.46 283.46,122.00 285.81,121.55 288.16,121.11 290.51,120.67 292.86,120.24 295.21,119.81 297.56,119.39 299.91,118.97 302.26,118.56 304.61,118.16 306.96,117.75 309.32,117.36 311.67,116.96 314.02,116.58 316.37,116.19 318.72,115.82 321.07,115.44 323.42,115.07 325.77,114.71 328.12,114.35 330.47,113.99 332.82,113.64 335.17,113.29 337.52,112.94 339.87,112.60 342.22,112.26 344.58,111.93 346.93,111.60 349.28,111.27 351.63,110.95 353.98,110.62 356.33,110.31 358.68,109.99 361.03,109.68 363.38,109.38 365.73,109.07 368.08,108.77 370.43,108.47 372.78,108.18 375.13,107.89 377.48,107.60 379.84,107.31 382.19,107.03 384.54,106.75 386.89,106.47 389.24,106.20 391.59,105.92 393.94,105.65 396.29,105.39 398.64,105.12 400.99,104.86 403.34,104.60 405.69,104.34 408.04,104.09 410.39,103.84 412.75,103.59 415.10,103.34 417.45,103.09 419.80,102.85 422.15,102.61 424.50,102.37 426.85,102.14 429.20,101.90 431.55,101.67 433.90,101.44 436.25,101.21 438.60,100.99 440.95,100.76 443.30,100.54 445.65,100.32 448.01,100.10 450.36,99.89 452.71,99.67 455.06,99.46 457.41,99.25 459.76,99.04 462.11,98.84 464.46,98.63 466.81,98.43 469.16,98.23 471.51,98.03 473.86,97.83 476.21,97.64 478.56,97.44 480.92,97.25 483.27,97.06 485.62,96.87 487.97,96.68 490.32,96.50 492.67,96.31 495.02,96.13 497.37,95.95 499.72,95.77 502.07,95.59 504.42,95.41 506.77,95.24 509.12,95.07 511.47,94.89 513.82,94.72 516.18,94.55 518.53,94.39 520.88,94.22 523.23,94.05 525.58,93.89 527.93,93.73 530.28,93.57 532.63,93.41 534.98,93.25 537.33,93.09 539.68,92.94 542.03,92.78 544.38,92.63 546.73,92.48 549.08,92.33 551.44,92.18 553.79,92.03 556.14,91.88 558.49,91.74 560.84,91.59 563.19,91.45 565.54,91.31 567.89,91.17 570.24,91.03 572.59,90.89 574.94,90.75 577.29,90.62 579.64,90.48 581.99,90.35 584.35,90.21 586.70,90.08 589.05,89.95 591.40,89.82 593.75,89.69 596.10,89.57 598.45,89.44 600.80,89.31 603.15,89.19 605.50,89.07 607.85,88.94 610.20,88.82 612.55,88.70 614.90,88.58 617.25,88.47 619.61,88.35 621.96,88.23 624.31,88.12 626.66,88.00 629.01,87.89 631.36,87.78 633.71,87.66 636.06,87.55 638.41,87.44 640.76,87.33 643.11,87.23 645.46,87.12 647.81,87.01 650.16,86.91 652.52,86.80 654.87,86.70 657.22,86.60 659.57,86.49 661.92,86.39 664.27,86.29 666.62,86.19 668.97,86.10 671.32,86.00 673.67,85.90 676.02,85.80 678.37,85.71 680.72,85.61 683.07,85.52 685.42,85.43 687.78,85.34 690.13,85.24 692.48,85.15 694.83,85.06 697.18,84.97 699.53,84.89 701.88,84.80 704.23,84.71 706.58,84.62 708.93,84.54 711.28,84.45 713.63,84.37 715.98,84.29 718.33,84.20 720.68,84.12 723.04,84.04 725.39,83.96 727.74,83.88 730.09,83.80 732.44,83.72 734.79,83.65 737.14,83.57 739.49,83.49 741.84,83.42 744.19,83.34 746.54,83.27 748.89,83.19 751.24,83.12 753.59,83.05 755.95,82.97 758.30,82.90 760.65,82.83 763.00,82.76 765.35,82.69 767.70,82.62 770.05,82.56 772.40,82.49 774.75,82.42 777.10,82.35 779.45,82.29 781.80,82.22 784.15,82.16 786.50,82.09 788.85,82.03 791.21,81.97 793.56,81.90 795.91,81.84 798.26,81.78 800.61,81.72 802.96,81.66 805.31,81.60 807.66,81.54 810.01,81.48 812.36,81.42 814.71,81.36 817.06,81.31 819.41,81.25 821.76,81.19 824.12,81.14 826.47,81.08 828.82,81.03 831.17,80.97 833.52,80.92 835.87,80.87 838.22,80.81 840.57,80.76 842.92,80.71 845.27,80.66 847.62,80.61 849.97,80.56 852.32,80.51 854.67,80.46 857.02,80.41 859.38,80.36 861.73,80.31 864.08,80.26 866.43,80.22 868.78,80.17 871.13,80.12 873.48,80.08 875.83,80.03 878.18,79.99 880.53,79.94 882.88,79.90 885.23,79.86 887.58,79.81 889.93,79.77 892.28,79.73 894.64,79.68 896.99,79.64 899.34,79.60 901.69,79.56 904.04,79.52 906.39,79.48 908.74,79.44 911.09,79.40 913.44,79.36 915.79,79.32 918.14,79.28 920.49,79.25 922.84,79.21 925.19,79.17 927.55,79.13 929.90,79.10 932.25,79.06 934.60,79.03 936.95,78.99 939.30,78.96 941.65,78.92 944.00,78.89"/>
<line x1="778" y1="98" x2="810" y2="98" stroke="#c2410c" stroke-width="3"/><text class="legend" x="820" y="103">d = 12</text>
<line x1="778" y1="122" x2="810" y2="122" stroke="#d97706" stroke-width="3"/><text class="legend" x="820" y="127">d = 18</text>
<line x1="778" y1="146" x2="810" y2="146" stroke="#16a34a" stroke-width="3"/><text class="legend" x="820" y="151">d = 24</text>
<line x1="778" y1="170" x2="810" y2="170" stroke="#2563eb" stroke-width="3"/><text class="legend" x="820" y="175">d = 30</text>
<line x1="778" y1="194" x2="810" y2="194" stroke="#7c3aed" stroke-width="3"/><text class="legend" x="820" y="199">d = 36</text>
</svg>
